<svg xmlns="http://www.w3.org/2000/svg" width="256" height="256"><path fill-opacity=".016" d="M0 128.004v128.004l128.25-.254 128.25-.254.254-127.75L257.008 0H0v128.004m.485.496c0 70.4.119 99.053.265 63.672.146-35.38.146-92.98 0-128C.604 29.153.485 58.1.485 128.5" fill="#1976D2" fill-rule="evenodd"/><path fill-opacity=".171" d="M0 100c0 6.6.297 12 .661 12 1.06 0 20.34-11.327 20.326-11.942C20.974 99.472 1.548 88 .567 88 .255 88 0 93.4 0 100m21 13.434v11.434l-9.25-5.423c-5.088-2.983-9.587-5.428-10-5.434C1.337 114.005 1 119.4 1 126c0 6.6.274 12 .608 12 .334 0 8.547-4.668 18.25-10.373 9.703-5.705 18.655-10.895 19.892-11.535 1.237-.639 2.25-1.57 2.25-2.069C42 113.016 23.726 102 22.056 102c-.68 0-1.056 4.077-1.056 11.434m62.667-9.767c-.367.366-.667 10.716-.667 23V149h6l.063-13.75.062-13.75 5.072 13.75c4.499 12.197 5.331 13.75 7.365 13.75 2.442 0 2.311.268 9.744-20 3.096-8.44 4.261-8.738 3.513-.898-.204 2.134.015 4.009.486 4.166.47.157.326 1.449-.322 2.87-.964 2.115-.867 3.186.535 5.896l1.712 3.312 1.907-2.423c1.385-1.758 1.727-3.246 1.248-5.423-.362-1.65-.496-5.025-.297-7.5.199-2.475.374-9.225.387-15l.025-10.5h-2.899c-2.838 0-3.039.371-9.428 17.38l-6.529 17.379-6.473-17.629c-5.683-15.477-6.74-17.63-8.655-17.63-1.201 0-2.483.3-2.849.667m72.793.397c-4.895 1.424-10.955 7.333-13.438 13.106-6.28 14.6 3.993 31.83 18.978 31.83 5.007 0 10.613-2.257 14.242-5.733 2.569-2.461 2.639-2.741 1.095-4.447-1.962-2.168-3.92-2.35-4.656-.431-.293.764-2.572 2.168-5.064 3.119-6.045 2.309-10.667 1.375-15.091-3.049-8.65-8.65-5.928-23.849 5.02-28.03 5.228-1.996 10.344-1.044 14.328 2.668 2.021 1.883 2.599 1.988 4.715.856 3.176-1.701 3.063-2.27-1.145-5.739-5.657-4.662-12.258-6.105-18.984-4.15m43.617 3.013c-7.563 7.563-4.604 15.144 8.302 21.27 7.673 3.641 9.296 5.76 7.67 10.01-.451 1.179-1.771 3-2.934 4.048-2.467 2.222-2.504 2.498-.666 4.922 1.302 1.719 1.536 1.729 3.919.168 1.393-.914 3.481-3.618 4.64-6.011 1.787-3.691 1.946-4.941 1.053-8.258-1.295-4.808-3.041-6.443-10.322-9.663-9.438-4.174-11.988-8.314-7.739-12.563 2.57-2.57 6.039-2.544 9.36.069 2.798 2.2 6.64 1.884 6.64-.547 0-.74-1.385-2.509-3.077-3.933-2.47-2.079-4.13-2.589-8.423-2.589-4.637 0-5.755.408-8.423 3.077m-40.392 16.458c-1.556 3.263-1.562 3.724-.07 6 2.014 3.074 2.715 3.085 4.328.071 1.012-1.891 1.032-3.153.092-6-.655-1.983-1.522-3.606-1.927-3.606-.406 0-1.496 1.591-2.423 3.535M22 137.846c0 6.07-.429 11.301-.954 11.626-.525.324-5.04-1.734-10.034-4.574-4.995-2.839-9.305-4.938-9.579-4.664-.274.274-.371 5.736-.216 12.137L1.5 164.01l10.5-6.155a5182.346 5182.346 0 0 1 20.756-12.09c5.641-3.265 10.029-6.304 9.75-6.755-.278-.45-3.094-2.269-6.256-4.042a919.828 919.828 0 0 1-10-5.69L22 126.81v11.036m94.469-7.796c-.918 1.486-.188 2.012 1.417 1.021.859-.532.962-1.047.29-1.462-.571-.353-1.339-.154-1.707.441M115 145.944c0 2.889.259 3.159 2.75 2.872 2.243-.258 2.759-.823 2.796-3.066.048-2.804-.91-3.589-2.076-1.701-.443.716-1.094.678-2.059-.123-1.164-.966-1.411-.614-1.411 2.018M33 160.5c0 3.667.436 6.5 1 6.5.55 0 1.008-1.912 1.017-4.25l.017-4.25 2.081 3.25c1.145 1.787 2.269 3.25 2.498 3.25.229 0 1.308-1.463 2.398-3.25l1.982-3.25.003 3.691c.002 2.03.454 3.969 1.004 4.309.63.39.988-1.899.967-6.191-.032-6.567-.094-6.736-1.75-4.755-.944 1.13-2.428 3.127-3.298 4.438l-1.58 2.383-2.354-4.187c-1.294-2.304-2.72-4.188-3.169-4.188-.449 0-.816 2.925-.816 6.5m15-5.5c0 .55.45 1 1 1s1-.45 1-1-.45-1-1-1-1 .45-1 1m48.015 5.309c-.009 4.288.355 6.58.985 6.191 1.278-.79 1.278-9.522 0-11.5-.678-1.05-.974.544-.985 5.309m22.001-3.602c-3.637 4.623-.819 10.293 5.116 10.293 4.204 0 4.405-1.835.24-2.188-4.572-.389-6.228-2.638-4.589-6.234.957-2.102 1.87-2.581 4.946-2.593 2.803-.012 3.386-.264 2.271-.985-2.676-1.729-5.808-1.06-7.984 1.707M152 156c0 1.559-.667 2-3.021 2-2.21 0-3.312.638-4.103 2.374-2.301 5.049 3.605 9.002 7.553 5.055 1.759-1.76 2.242-11.429.571-11.429-.55 0-1 .9-1 2m8.128 4.55.129 6.95.996-5.825c.716-4.184.68-6.142-.128-6.95-.833-.833-1.092.678-.997 5.825m3.887.2c.011 4.727.306 6.3.985 5.25 1.281-1.983 1.281-12 0-12-.569 0-.993 2.906-.985 6.75M208 156c0 1.55-.667 2-2.965 2-4.428 0-6.484 4.408-3.464 7.429 4.037 4.036 8.429.649 8.429-6.5 0-2.711-.45-4.929-1-4.929s-1 .9-1 2m14 4.559c0 4.118.372 6.329 1 5.941.55-.34 1-3.291 1-6.559 0-3.294-.446-5.941-1-5.941-.565 0-1 2.853-1 6.559m11.529-5.204c-2.556 1.869-1.347 4.405 2.957 6.204 1.933.807 3.514 1.912 3.514 2.454 0 1.448-5.755 1.206-6.28-.263-.245-.687-.797-.923-1.226-.524-1.376 1.281 1.658 3.774 4.593 3.774 2.886 0 5.039-2.399 4.213-4.694-.236-.656-1.975-1.704-3.865-2.327-3.672-1.212-4.417-2.665-1.868-3.643 2.904-1.114 6.171 1.622 6.825 5.717.705 4.403 1.779 5.372 5.05 4.551 1.682-.422 2.469-1.488 2.836-3.844.279-1.793.106-3.688-.385-4.21-.54-.574-.899.02-.908 1.5-.009 1.348-.413 3.078-.899 3.846-1.348 2.128-4.086.511-4.086-2.412 0-2.861-4.296-7.484-6.955-7.484-.914 0-2.497.61-3.516 1.355M48 161.941c0 2.168.45 4.219 1 4.559.611.378 1-1.156 1-3.941 0-2.507-.45-4.559-1-4.559s-1 1.773-1 3.941m5.243-2.784C51.763 160.637 51.566 167 53 167c.55 0 1-1.606 1-3.57 0-3.129.277-3.53 2.25-3.25 1.685.24 2.414 1.2 2.903 3.82.6 3.21.641 3.128.5-1-.136-4.01-.426-4.532-2.66-4.793-1.379-.161-3.066.266-3.75.95m9.424-.49c-1.105 1.105-.75 5.85.533 7.133 1.451 1.451 5.8 1.601 5.8.2 0-.55-1.098-1-2.441-1-1.343 0-2.719-.45-3.059-1-.373-.604.99-1 3.441-1 4.18 0 5.244-1.415 2.859-3.8-1.283-1.283-6.028-1.638-7.133-.533m10.533.533c-1.448 1.448-1.611 7.8-.2 7.8.55 0 1-1.413 1-3.14 0-1.817.737-3.699 1.75-4.468 1.473-1.118 1.504-1.333.2-1.36-.852-.018-2.09.508-2.75 1.168m5.8-.263c0 .515 1.463 1.118 3.25 1.34l3.25.403-3.128.16c-6.282.321-6.708 6.16-.45 6.16 3.217 0 5.078-1.649 5.078-4.5 0-1.155-.54-2.64-1.2-3.3-1.414-1.414-6.8-1.622-6.8-.263m22 0c0 .584 1.237 1.116 2.75 1.181l2.75.119-2.893.631c-3.69.806-5.754 3.765-3.607 5.171.825.54 2.85.865 4.5.722 2.79-.243 3-.541 3-4.261 0-3.782-.177-4.017-3.25-4.313-1.826-.176-3.25.152-3.25.75m27.98 1.101c-1.401 2.618-.42 5.688 2.071 6.478 4.624 1.468 8.165-2.375 5.969-6.478-1.481-2.769-6.559-2.769-8.04 0m11.22-.838c-1.457 1.457-1.641 8.191-.2 7.3.55-.34 1-1.919 1-3.509 0-1.699.722-3.312 1.75-3.911 1.441-.839 1.476-1.025.2-1.05-.853-.016-2.09.51-2.75 1.17m15.564-.45c-.194.412-.06 2.55.299 4.75l.653 4 .142-4.75c.132-4.419-.245-5.799-1.094-4m12.481.405c-1.582 1.582-1.605 5.085-.045 6.645 1.456 1.456 5.446 1.582 6.3.2.361-.583-.656-1-2.441-1-1.682 0-3.059-.45-3.059-1s1.606-1 3.57-1c3.129 0 3.53-.277 3.25-2.25-.239-1.679-1.082-2.325-3.325-2.545-1.653-.162-3.565.265-4.25.95m10.955.045c-.66.66-1.159 2.798-1.11 4.75l.09 3.55 1-3.5c.55-1.925 1.465-4.062 2.033-4.75 1.32-1.599-.421-1.642-2.013-.05m5.8-.2c0 .55 1.238 1.036 2.75 1.079 2.912.084 2.494.36-2.065 1.369-2.195.486-2.746 1.11-2.5 2.837.265 1.865.947 2.215 4.315 2.215 3.641 0 4.029-.252 4.322-2.81.177-1.546-.215-3.459-.872-4.25-1.352-1.629-5.95-1.969-5.95-.44m27.245.155c-1.582 1.582-1.605 5.085-.045 6.645 1.456 1.456 5.446 1.582 6.3.2.361-.583-.656-1-2.441-1-1.682 0-3.059-.45-3.059-1s1.606-1 3.57-1c3.129 0 3.53-.277 3.25-2.25-.239-1.679-1.082-2.325-3.325-2.545-1.653-.162-3.565.265-4.25.95m40.422-.488c-.367.366-.626 2.504-.577 4.75l.09 4.083 1-3.5c.55-1.925 1.465-4.062 2.033-4.75.743-.9.625-1.25-.424-1.25-.801 0-1.756.3-2.122.667m-187.398 2.026c.973.254 2.323.237 3-.037.677-.274-.119-.481-1.769-.461-1.65.02-2.204.244-1.231.498m64.902 1.483c.44 3.104 5.329 3.402 5.329.324 0-1.452-.775-2.089-2.829-2.324-2.46-.282-2.787-.021-2.5 2m16 0c.44 3.104 5.329 3.402 5.329.324 0-1.452-.775-2.089-2.829-2.324-2.46-.282-2.787-.021-2.5 2m24.098-1.483c.973.254 2.323.237 3-.037.677-.274-.119-.481-1.769-.461-1.65.02-2.204.244-1.231.498m32.067.874c-.331.862-.14 2.029.425 2.594 1.661 1.661 4.713.502 5.059-1.921.26-1.828-.16-2.24-2.282-2.24-1.439 0-2.869.7-3.202 1.567m11.933-.874c.973.254 2.323.237 3-.037.677-.274-.119-.481-1.769-.461-1.65.02-2.204.244-1.231.498M79 164c0 .55 1.35 1 3 1s3-.45 3-1-1.35-1-3-1-3 .45-3 1m22 0c0 .55 1.35 1 3 1s3-.45 3-1-1.35-1-3-1-3 .45-3 1m84 0c0 .55 1.098 1 2.441 1 1.343 0 2.719-.45 3.059-1 .361-.583-.656-1-2.441-1-1.682 0-3.059.45-3.059 1" fill="#1976D2" fill-rule="evenodd"/><path fill-opacity=".688" d="M0 99.965C0 106.584.157 112 .349 112c.192 0 4.954-2.661 10.582-5.913l10.234-5.912-8.332-4.92C8.25 92.549 3.488 89.794 2.25 89.132L0 87.93v12.035m22 13.44c0 6.377-.337 11.581-.75 11.565-.413-.017-5.025-2.486-10.25-5.487l-9.5-5.458-.298 5.988c-.163 3.293-.163 8.667 0 11.943l.298 5.956 11-6.418a3599.05 3599.05 0 0 1 20.229-11.706c5.076-2.909 9.238-5.52 9.25-5.804.02-.484-3.864-2.891-15.229-9.438L22 101.81v11.595m61 13.161v22.567l2.75-.317 2.75-.316.32-14 .321-14 5.19 14c4.151 11.196 5.567 14 7.071 14 2.424 0 2.718-.563 8.353-16l4.745-13 .54 6c.402 4.464.763 5.516 1.411 4.11.842-1.828.915-1.83 2.21-.059 1.143 1.563 1.339-.187 1.339-11.926v-13.758l-2.652.317c-2.448.292-3.124 1.567-8.75 16.494-3.354 8.898-6.383 16.458-6.732 16.801-.349.343-3.47-7.05-6.935-16.428-6.11-16.54-6.384-17.051-9.115-17.051H83v22.566m68.42-19.316c-6.613 4.472-9.427 10.058-9.398 18.657.027 7.977 2.228 13.35 7.294 17.797 7.522 6.605 17.049 6.832 25.434.607 3.573-2.653 4.049-4.403 1.721-6.335-1.263-1.048-1.917-.917-3.75.752-7.311 6.657-16.837 5.443-23.043-2.937-3.12-4.212-3.343-12.254-.493-17.783 5.12-9.934 15.553-12.008 23.586-4.689 2.122 1.934 2.379 1.959 3.943.395s1.514-1.845-.77-4.322c-3.392-3.678-7.938-5.392-14.299-5.392-4.461 0-6.268.574-10.225 3.25m48.98.15c-2.837 2.837-3.4 4.129-3.4 7.804 0 3.659.55 4.934 3.25 7.538 1.787 1.724 5.5 4.094 8.25 5.268 2.75 1.173 5.787 2.846 6.75 3.716 2.746 2.485 2.194 6.984-1.282 10.46-2.393 2.392-2.789 3.325-1.878 4.423 1.814 2.185 3.461 1.666 6.806-2.144 2.342-2.667 3.104-4.496 3.104-7.453 0-6.504-1.624-8.594-10.11-13.009-8.184-4.257-11.132-7.12-10.163-9.868 1.861-5.276 7.29-6.683 12.225-3.169 2.38 1.694 3.016 1.778 4.616.608 2.298-1.681 1.012-3.596-4.015-5.982-5.656-2.684-10.247-2.098-14.153 1.808m-40.254 15.178c-1.493 3.278-1.405 5.496.308 7.756 1.322 1.746 1.472 1.709 3.087-.756 1.442-2.202 1.51-3.042.448-5.605-1.688-4.076-2.489-4.366-3.843-1.395M22 139.055c0 6.57-.249 11.945-.553 11.945-.304 0-4.84-2.475-10.079-5.5-5.24-3.025-9.716-5.5-9.947-5.5-.232 0-.421 5.387-.421 11.972v11.972l11.75-6.865a12958.56 12958.56 0 0 0 21.035-12.321l9.284-5.456-10.534-6.096L22 127.109v11.946m93.677-4.504c-1.818 3.812-1.173 6.512 1.976 8.274.926.519 1.31 1.425.891 2.103-.53.859-1.119.686-2.108-.618-1.254-1.654-1.375-1.529-1.404 1.44-.028 2.851.291 3.25 2.6 3.25 2.474 0 2.601-.23 2.117-3.834-.283-2.109-.104-4.567.397-5.463.799-1.427-1.216-8.703-2.41-8.703-.201 0-1.128 1.598-2.059 3.551M96.32 160c0 3.575.182 5.037.403 3.25.222-1.787.222-4.713 0-6.5-.221-1.787-.403-.325-.403 3.25m22.848-4.405c-1.787 1.252-2.212 2.375-1.973 5.219.39 4.63 4.249 7.256 7.953 5.411 2.336-1.164 2.334-1.168-.305-.613-3.855.81-6.843-1.131-6.843-4.447 0-3.582 1.662-5.161 5.45-5.18 2.337-.012 2.699-.242 1.55-.985-2.095-1.354-3.213-1.24-5.832.595m32.832.964c0 1.543-.42 2.3-1.057 1.906-1.832-1.133-5.682.429-6.231 2.528-.298 1.141.249 2.973 1.263 4.225 1.569 1.938 2.113 2.063 4.408 1.017 2.363-1.076 2.617-1.728 2.617-6.714 0-3.036-.225-5.521-.5-5.521s-.5 1.152-.5 2.559m8.32 3.441c0 3.575.182 5.037.403 3.25.222-1.787.222-4.713 0-6.5-.221-1.787-.403-.325-.403 3.25m4 0c0 3.575.182 5.037.403 3.25.222-1.787.222-4.713 0-6.5-.221-1.787-.403-.325-.403 3.25m43.865-3.844c-.148 2.131-.582 2.553-2.19 2.132-2.568-.671-4.995 1.338-4.995 4.134 0 2.6 1.762 4.578 4.078 4.578 2.907 0 4.052-2.554 3.662-8.169-.203-2.932-.453-4.136-.555-2.675M222.3 159c0 3.025.187 4.262.416 2.75.229-1.512.229-3.988 0-5.5s-.416-.275-.416 2.75m11.593-3.115c-1.912 1.549-2.106 2.153-1.088 3.38.682.822 2.58 1.762 4.217 2.089 1.773.355 2.978 1.226 2.978 2.152 0 2.139-2.869 3.057-5.132 1.643-1.113-.694-1.868-.766-1.868-.177 0 1.61 4.88 2.372 6.513 1.017 2.429-2.016 1.711-3.997-2.013-5.553-3.979-1.663-4.729-4.436-1.2-4.436 1.265 0 2.84.54 3.5 1.2.893.893 1.2.902 1.2.035 0-1.004-2.982-3.235-4.323-3.235-.251 0-1.503.848-2.784 1.885M34.134 160.55l.133 5.95.733-5c.403-2.75.343-5.428-.134-5.95-.496-.544-.809 1.59-.732 5m8.296-2.05c-2.181 4.05-2.937 4.289-4.476 1.414-.614-1.147-1.366-1.836-1.67-1.531-.667.666 2.439 5.617 3.523 5.617.419 0 1.646-1.463 2.727-3.25l1.966-3.25.6 4.5.6 4.5.15-5.75c.082-3.162-.229-5.75-.693-5.75-.463 0-1.69 1.575-2.727 3.5m10.605 1.434c-.569 1.064-1.01 2.977-.979 4.25.045 1.819.313 1.565 1.25-1.184.831-2.435 1.802-3.5 3.194-3.5 1.501 0 2.154.873 2.618 3.5.614 3.474.62 3.477.75.45.221-5.104-4.643-7.607-6.833-3.516M63.2 159.2c-2.104 2.104-1.413 5.746 1.327 6.994 1.978.901 2.793.865 3.75-.168.967-1.043.959-1.17-.036-.608-1.528.863-5.241-.189-5.241-1.485 0-.513 1.5-.933 3.333-.933 4.084 0 4.895-.706 3.597-3.131-1.128-2.107-4.916-2.483-6.73-.669m11.065-.385c-1.683 1.069-2.866 7.185-1.39 7.185.619 0 1.125-1.26 1.125-2.8 0-1.54.54-3.34 1.2-4 1.362-1.362.902-1.552-.935-.385m6.735-.157c.825.275 2.162.714 2.972.975 1.296.418 1.296.586 0 1.405-.81.512-2.485.938-3.722.947-1.571.01-2.25.613-2.25 1.996 0 2.487 3.978 3.636 6.995 2.022 1.727-.925 2.042-1.72 1.514-3.825-.764-3.042-2.153-4.175-5.009-4.084-1.372.044-1.529.221-.5.564m21.809.192c3.282.924 3.093 2.561-.366 3.16-3.701.641-3.845 3.125-.253 4.388 3.244 1.141 5.81-.546 5.81-3.82 0-2.923-1.854-4.599-4.95-4.478-2.508.098-2.512.11-.241.75m27.361.024c-1.808 1.146-1.088 6.163 1.08 7.52 2.45 1.534 5.162-.356 5.58-3.886.335-2.83-1.075-4.477-3.83-4.477-.825 0-2.099.379-2.83.843m9.865 1.06c-.569 1.064-.996 2.977-.949 4.25.077 2.084.17 2.034.931-.498.464-1.548 1.381-3.46 2.036-4.25.805-.97.839-1.436.105-1.436-.598 0-1.553.87-2.123 1.934M156.272 162c0 2.475.195 3.488.434 2.25.238-1.238.238-3.262 0-4.5-.239-1.238-.434-.225-.434 2.25m11.763-2.066c-1.406 2.628-1.306 3.652.536 5.495 1.649 1.649 5.429 2.165 5.429.742 0-.457-.967-.794-2.149-.75-1.182.043-2.344-.483-2.583-1.171-.295-.848.717-1.25 3.149-1.25 2.273 0 3.583-.475 3.583-1.3 0-3.698-6.196-5.072-7.965-1.766m11.165-.734c-.66.66-1.139 2.573-1.064 4.25.122 2.724.185 2.783.591.55.251-1.375 1.159-3.287 2.019-4.25 1.74-1.948.347-2.443-1.546-.55m7.3-.487c3.52.847 3.789 2.065.61 2.763-3.719.817-4.697 2.111-3.074 4.068 2.61 3.144 7.964 1.098 7.964-3.044 0-2.854-1.885-4.523-4.95-4.384-2.063.094-2.168.208-.55.597m25.48 1.325c-.6 1.121-.818 2.898-.484 3.949.701 2.208 4.267 3.65 5.638 2.279.576-.576.099-.9-1.25-.849-1.2.046-2.377-.479-2.616-1.167-.295-.848.717-1.25 3.149-1.25 2.273 0 3.583-.475 3.583-1.3 0-3.769-6.204-5.055-8.02-1.662m31.162 1.09c-.169 4.322 2.096 6.838 4.692 5.213 1.049-.657 1.71-2.488 1.785-4.942l.119-3.899-.429 3.75c-.236 2.063-.853 3.817-1.369 3.9-2.994.478-3.488.032-4.048-3.65l-.608-4-.142 3.628M253.2 159.2c-.66.66-1.139 2.573-1.064 4.25.122 2.724.185 2.783.591.55.251-1.375 1.159-3.287 2.019-4.25 1.74-1.948.347-2.443-1.546-.55m-204.39 3.3c.225 1.925.585 3.5.799 3.5.215 0 .391-1.575.391-3.5s-.36-3.5-.799-3.5c-.44 0-.616 1.575-.391 3.5m15.44-2.849c-2.34.965-1.26 2.349 1.833 2.349 2.022 0 2.94-.43 2.667-1.25-.459-1.381-2.568-1.896-4.5-1.099m66.161.72c-1.112 2.897.021 5.129 2.603 5.129 2.096 0 2.486-.471 2.486-3 0-2.352-.487-3.069-2.254-3.32-1.323-.188-2.495.305-2.835 1.191m16.298-.747c-1.063 1.063-.853 5.169.3 5.882.555.342 1.931.33 3.058-.027 2.803-.89 2.322-5.852-.608-6.271-1.123-.161-2.36.027-2.75.416m22.958.043C168.233 161.1 169.133 162 172 162c3.206 0 4.03-1.391 1.418-2.393-2.033-.78-2.926-.766-3.751.06m32.744.704c-1.112 2.897.021 5.129 2.603 5.129 2.096 0 2.486-.471 2.486-3 0-2.352-.487-3.069-2.254-3.32-1.323-.188-2.495.305-2.835 1.191m11.256-.704C212.233 161.1 213.133 162 216 162c3.206 0 4.03-1.391 1.418-2.393-2.033-.78-2.926-.766-3.751.06M79.25 164.25c.229.688 1.467 1.25 2.75 1.25s2.521-.562 2.75-1.25c.275-.825-.661-1.25-2.75-1.25s-3.025.425-2.75 1.25m20.75-.269c0 1.24 4.533 2.425 5.943 1.554 2.135-1.319.964-2.535-2.443-2.535-1.925 0-3.5.441-3.5.981m84.518-.01c-.718 1.161 3.915 2.497 5.425 1.564.581-.359 1.057-1.076 1.057-1.594 0-1.244-5.711-1.218-6.482.03" fill="#1976D2" fill-rule="evenodd"/><path fill-opacity=".969" d="M0 100.073c0 8.365.306 10.995 1.25 10.75 1.853-.479 18.739-10.241 18.722-10.823-.017-.583-18.287-11-19.294-11C.305 89 0 93.983 0 100.073M22 114c0 7.448-.361 11-1.119 11-.616 0-3.653-1.522-6.75-3.381-3.097-1.86-7.094-4.122-8.881-5.026L2 114.949v22.102l3.054-1.579c1.68-.869 7.417-4.185 12.75-7.369a1864.806 1864.806 0 0 1 17.045-10.048l7.349-4.259-9.349-5.391c-5.142-2.966-9.686-5.395-10.099-5.399-.413-.003-.75 4.944-.75 10.994m62 12.216c0 21.689.06 22.355 2 22.355 1.907 0 2-.666 2-14.285 0-7.857.338-14.285.75-14.284.412.001 2.731 5.514 5.151 12.25a5824.895 5824.895 0 0 0 5.196 14.419c.553 1.513 1.38 2.017 2.729 1.664 1.446-.378 3.136-3.845 6.665-13.671 6.152-17.128 6.435-17.549 6.509-9.664.047 5.04.297 6.094 1.111 4.695.83-1.427 1.349-1.558 2.47-.628 1.213 1.007 1.419-.725 1.419-11.945V104h-2.393c-1.316 0-2.607.563-2.869 1.25-.262.688-3.066 8.225-6.232 16.75-3.165 8.525-6.089 15.868-6.497 16.317-.409.449-3.624-6.976-7.145-16.5-5.472-14.802-6.725-17.363-8.633-17.637L84 103.861v22.355m70.5-20.32C134.381 115.211 140.01 148 161.728 148c5.941 0 10.609-1.651 14.087-4.982 2.21-2.117 2.236-2.304.576-4.138-1.707-1.887-1.786-1.876-4.39.619-9.842 9.429-25.01 1.155-24.996-13.635.01-10.047 6.345-16.846 15.71-16.857 4.363-.006 5.769.479 8.599 2.964 3.006 2.639 3.594 2.816 5.272 1.59 1.845-1.35 1.843-1.43-.099-3.612-4.972-5.584-14.776-7.392-21.987-4.053m48.815-.432c-6.089 2.648-8.212 11.219-3.994 16.122 1.276 1.484 5.663 4.325 9.75 6.313 7.171 3.489 7.44 3.748 7.747 7.482.251 3.064-.223 4.432-2.281 6.581-1.652 1.723-2.367 3.319-1.961 4.375.826 2.154 1.604 2.096 4.717-.353 4.939-3.885 5.986-13.612 1.866-17.34-.992-.897-5.007-3.191-8.924-5.097-3.917-1.906-7.635-4.426-8.263-5.6-3.848-7.19 6.515-12.325 13.026-6.454 1.221 1.101 1.826 1.117 3.231.086 1.616-1.186 1.583-1.407-.5-3.358-2.443-2.288-6.905-4.243-9.544-4.182-.927.022-3.118.663-4.87 1.425m-43.276 18.441c-.975 2.355-.927 3.431.256 5.688l1.459 2.784 1.525-2.95c1.336-2.583 1.347-3.293.092-5.689-.789-1.506-1.591-2.738-1.782-2.738-.19 0-.888 1.307-1.55 2.905M22 139.599v11.599l3.75-2.235c2.063-1.228 6.594-3.806 10.07-5.729 3.476-1.922 5.951-3.85 5.5-4.285C40.371 138.034 23.051 128 22.421 128c-.231 0-.421 5.219-.421 11.599m94.19-6.118c-1.557 3.418-1.504 5.708.186 8.018 1.309 1.79 1.45 1.739 2.901-1.067 1.383-2.676 1.366-3.254-.186-6.256l-1.71-3.307-1.191 2.612M1 151.427c0 6.365.25 11.573.556 11.573.305 0 4.858-2.532 10.117-5.628l9.563-5.627-4.368-2.687c-2.402-1.477-6.956-4.153-10.118-5.946L1 139.853v11.574m114-6.118c0 2.204.453 2.691 2.5 2.691 1.93 0 2.497-.513 2.485-2.25-.013-1.837-.2-1.975-1.019-.75-.869 1.298-1.203 1.239-2.485-.441-1.422-1.864-1.481-1.834-1.481.75m-80.985 10.483c-.008.71.941 2.285 2.108 3.5 1.876 1.951 1.997 1.975 1.034.208-2.124-3.898-3.125-5.08-3.142-3.708M96.272 159c0 2.475.195 3.488.434 2.25.238-1.238.238-3.262 0-4.5-.239-1.238-.434-.225-.434 2.25m64 0c0 2.475.195 3.488.434 2.25.238-1.238.238-3.262 0-4.5-.239-1.238-.434-.225-.434 2.25m73.235-3.011c-.35.566.051.734.941.393 1.732-.665 2.049-1.382.611-1.382-.518 0-1.216.445-1.552.989m4.493-.596c0 .216.698.661 1.552.989.89.341 1.291.173.941-.393-.587-.951-2.493-1.406-2.493-.596M43.5 157c-.34.55-.141 1 .441 1S45 157.55 45 157s-.198-1-.441-1-.719.45-1.059 1m11.5 1.383c0 .211.901.619 2.001.907 1.101.288 1.75.115 1.441-.383-.538-.871-3.442-1.313-3.442-.524m11 .33c.825.306 2.175 1.058 3 1.671 1.303.97 1.32.887.128-.634-.755-.963-2.105-1.714-3-1.671-1.362.066-1.383.17-.128.634m7.872 1.037c-1.243 1.586-1.208 1.621.378.378 1.666-1.307 2.195-2.128 1.372-2.128-.207 0-.995.787-1.75 1.75m8.035-.877c1.324.37 2.755 1.563 3.18 2.65.541 1.384.794 1.512.843.427.098-2.168-1.951-3.968-4.38-3.85-1.78.086-1.733.188.357.773m20.906-.19c.721.289 1.584.253 1.916-.079.332-.332-.258-.568-1.312-.525-1.165.048-1.402.285-.604.604m30.187.03c.825.306 2.175 1.058 3 1.671 1.303.97 1.32.887.128-.634-.755-.963-2.105-1.714-3-1.671-1.362.066-1.383.17-.128.634m12.872 1.037c-1.192 1.521-1.175 1.604.128.634.825-.613 2.175-1.365 3-1.671 1.255-.464 1.234-.568-.128-.634-.895-.043-2.245.708-3 1.671m24.941-1.067c.721.289 1.584.253 1.916-.079.332-.332-.258-.568-1.312-.525-1.165.048-1.402.285-.604.604m16 0c.721.289 1.584.253 1.916-.079.332-.332-.258-.568-1.312-.525-1.165.048-1.402.285-.604.604m26.745.224c-.309.498.34.671 1.441.383 2.335-.611 2.63-1.29.56-1.29-.793 0-1.693.408-2.001.907m-150.891.76c-1.974 1.973-.445 3.324 3.583 3.165l4.25-.168-3.832-.397c-2.824-.293-3.687-.775-3.281-1.832.595-1.551.337-1.826-.72-.768M151.5 160c.34.55.816 1 1.059 1s.441-.45.441-1-.477-1-1.059-1-.781.45-.441 1m56 0c.34.55.816 1 1.059 1s.441-.45.441-1-.477-1-1.059-1-.781.45-.441 1m41.658 1c0 1.375.227 1.938.504 1.25.278-.687.278-1.812 0-2.5-.277-.687-.504-.125-.504 1.25M40.49 162.016c-.346.559-1.117.715-1.714.346-.663-.41-.796-.203-.341.532.569.921 1.074.929 2.154.032 1.415-1.174 1.794-1.926.97-1.926-.243 0-.724.457-1.069 1.016M171.5 162l-4 .716 3.691.142c2.03.078 3.969-.308 4.309-.858.34-.55.479-.936.309-.858-.17.078-2.109.464-4.309.858m44 0-4 .716 3.691.142c2.03.078 3.969-.308 4.309-.858.34-.55.479-.936.309-.858-.17.078-2.109.464-4.309.858m-137.041 1.067c-.363.586-.445 1.281-.183 1.543s.743-.218 1.069-1.067c.676-1.762.1-2.072-.886-.476" fill="#1976D2" fill-rule="evenodd"/></svg>