<?xml version="1.0" standalone="no"?>
<!DOCTYPE svg PUBLIC "-//W3C//DTD SVG 20010904//EN"
 "http://www.w3.org/TR/2001/REC-SVG-20010904/DTD/svg10.dtd">
<svg version="1.0" xmlns="http://www.w3.org/2000/svg"
 width="1024.000000pt" height="343.000000pt" viewBox="0 0 1024.000000 343.000000"
 preserveAspectRatio="xMidYMid meet">

<g transform="translate(0.000000,343.000000) scale(0.100000,-0.100000)"
fill="#000000" stroke="none">
<path d="M250 2749 c0 -241 2 -439 5 -439 3 0 22 11 43 23 20 13 188 111 372
217 184 106 336 194 338 195 3 3 -73 49 -318 190 -74 43 -178 103 -230 133
-52 31 -121 70 -152 88 l-58 33 0 -440z"/>
<path d="M1030 2259 c1 -232 -1 -423 -2 -425 -2 -1 -64 32 -138 75 -74 43
-238 137 -364 210 -126 72 -230 130 -232 128 -2 -2 -3 -198 -2 -435 l3 -431
240 137 c420 241 510 294 515 302 3 4 37 25 75 47 155 89 475 273 545 315 41
24 83 47 93 51 30 11 19 24 -65 72 -108 62 -438 253 -554 322 -50 29 -96 53
-103 53 -8 0 -11 -104 -11 -421z"/>
<path d="M3257 2614 c-3 -3 -6 -370 -7 -815 l-1 -809 96 0 95 0 0 537 c0 326
4 533 9 527 5 -5 25 -54 45 -109 59 -168 107 -299 116 -320 5 -11 29 -76 53
-145 105 -291 136 -378 157 -433 l22 -58 70 3 c50 2 73 7 79 18 5 8 38 98 75
200 36 102 94 262 130 357 35 95 73 198 84 230 57 166 96 265 105 264 6 -1 9
-87 7 -236 -2 -129 0 -235 5 -235 4 0 25 34 46 75 22 41 43 75 48 75 5 0 23
-29 41 -65 17 -36 35 -68 39 -71 5 -3 9 223 9 505 l0 511 -93 0 -92 0 -48
-127 c-94 -246 -212 -564 -319 -853 -27 -74 -62 -168 -77 -208 -15 -41 -31
-73 -36 -72 -6 0 -43 89 -83 198 -40 108 -79 213 -86 232 -8 19 -32 85 -54
145 -23 61 -89 239 -148 398 l-107 287 -87 0 c-47 0 -89 -3 -93 -6z"/>
<path d="M5975 2613 c-144 -34 -278 -107 -379 -206 -104 -102 -159 -192 -212
-347 -28 -81 -29 -93 -29 -255 0 -166 1 -172 33 -264 76 -219 210 -379 394
-472 298 -151 656 -76 878 183 17 21 30 41 28 46 -7 17 -128 122 -140 122 -7
-1 -26 -18 -43 -38 -159 -203 -466 -250 -682 -107 -197 131 -305 376 -272 619
42 312 274 536 554 536 88 -1 142 -13 221 -51 69 -32 174 -116 194 -154 7 -14
19 -25 25 -25 12 0 138 105 143 119 6 16 -125 139 -199 188 -42 27 -114 62
-160 78 -72 24 -102 29 -209 30 -69 2 -134 1 -145 -2z"/>
<path d="M7656 2599 c-123 -30 -216 -106 -281 -230 -37 -70 -39 -79 -39 -164
0 -122 27 -181 126 -279 82 -80 166 -130 333 -196 142 -57 219 -102 250 -148
22 -32 25 -47 25 -125 0 -53 -6 -100 -14 -120 -15 -36 -88 -114 -155 -168
l-45 -35 48 -67 c26 -37 52 -69 57 -73 5 -3 38 18 74 46 148 118 215 226 223
361 6 98 -12 202 -44 257 -58 98 -144 157 -363 246 -221 90 -315 168 -336 277
-7 37 15 116 44 156 27 38 106 83 160 92 106 17 201 -19 279 -103 l42 -46 68
36 c86 46 88 48 69 78 -49 74 -155 156 -243 187 -67 25 -216 34 -278 18z"/>
<path d="M6021 1914 c-33 -69 -61 -128 -61 -130 0 -9 112 -194 121 -199 4 -3
33 40 65 95 l56 101 -27 62 c-16 34 -43 92 -60 129 l-32 67 -62 -125z"/>
<path d="M1040 1333 c1 -292 -2 -437 -9 -436 -6 2 -59 31 -118 67 -183 108
-597 344 -615 351 -17 7 -18 -18 -18 -429 0 -240 3 -436 6 -436 10 0 715 410
786 457 38 24 98 61 135 82 151 84 288 166 295 176 4 5 8 7 8 3 0 -4 36 15 81
42 44 28 83 50 86 50 3 0 32 16 65 36 l59 36 -137 79 c-75 43 -138 79 -140 79
-2 0 -40 23 -84 50 -44 28 -82 50 -85 50 -2 0 -38 20 -78 45 -41 25 -78 45
-82 45 -4 0 -19 8 -33 18 -15 10 -49 31 -75 46 l-48 27 1 -438z"/>
<path d="M4422 1521 c-34 -71 -62 -132 -62 -136 0 -11 124 -214 131 -215 8 0
119 200 119 215 0 7 -17 51 -38 97 -21 45 -47 102 -57 126 -10 23 -21 42 -24
42 -4 0 -34 -58 -69 -129z"/>
<path d="M4392 1108 l3 -113 93 -3 92 -3 -1 118 c0 82 -3 113 -10 103 -6 -8
-23 -39 -40 -67 -16 -29 -33 -53 -37 -53 -4 0 -25 29 -47 65 -22 36 -44 65
-48 65 -4 0 -6 -51 -5 -112z"/>
<path d="M2000 775 c0 -18 5 -25 20 -25 15 0 20 7 20 25 0 18 -5 25 -20 25
-15 0 -20 -7 -20 -25z"/>
<path d="M3710 652 c0 -200 9 -302 26 -302 11 0 14 43 14 225 0 218 -1 225
-20 225 -19 0 -20 -7 -20 -148z"/>
<path d="M5740 711 l0 -90 -46 21 c-57 25 -132 21 -172 -9 -83 -60 -82 -211 2
-262 44 -26 94 -33 141 -18 101 31 114 63 115 285 0 155 -1 162 -20 162 -19 0
-20 -7 -20 -89z m-27 -131 c27 -30 29 -38 25 -92 -5 -69 -25 -95 -84 -108 -91
-21 -154 26 -154 114 1 92 39 129 129 123 47 -3 59 -9 84 -37z"/>
<path d="M5870 775 c0 -18 5 -25 20 -25 15 0 20 7 20 25 0 18 -5 25 -20 25
-15 0 -20 -7 -20 -25z"/>
<path d="M6020 576 c0 -212 5 -254 28 -231 3 3 8 107 10 231 4 223 4 224 -17
224 -21 0 -21 -3 -21 -224z"/>
<path d="M6170 575 c0 -182 3 -225 14 -225 16 0 26 120 26 317 0 126 -1 133
-20 133 -19 0 -20 -7 -20 -225z"/>
<path d="M7760 710 l0 -90 -27 17 c-38 25 -148 24 -186 -1 -34 -23 -54 -60
-63 -114 -22 -137 129 -227 252 -151 56 34 64 67 64 258 0 164 -1 171 -20 171
-19 0 -20 -7 -20 -90z m-43 -109 c24 -15 34 -30 40 -63 11 -51 2 -102 -23
-129 -26 -28 -86 -42 -132 -29 -56 15 -75 40 -80 110 -4 57 -3 61 31 95 30 30
41 35 84 35 30 0 60 -7 80 -19z"/>
<path d="M8269 793 c-4 -68 5 -440 11 -447 16 -16 19 14 22 237 3 201 2 217
-14 217 -10 0 -18 -3 -19 -7z"/>
<path d="M1467 783 c-12 -11 -8 -431 4 -438 6 -4 13 -5 16 -2 2 3 7 79 10 169
3 90 6 164 8 165 1 2 37 -54 81 -124 43 -69 84 -128 90 -130 6 -2 47 55 90
126 43 72 82 130 87 131 4 0 7 -74 7 -164 0 -100 4 -167 10 -171 20 -12 25 34
25 235 0 172 -2 205 -14 205 -8 0 -56 -68 -105 -152 -50 -84 -94 -152 -97
-153 -4 0 -48 70 -99 155 -51 85 -96 155 -100 155 -3 0 -10 -3 -13 -7z"/>
<path d="M4612 780 c-18 -4 -50 -19 -71 -33 -107 -71 -111 -281 -8 -360 77
-58 212 -62 279 -8 34 28 14 37 -34 15 -57 -26 -153 -25 -199 2 -65 38 -97
117 -83 205 19 114 133 175 255 135 34 -11 55 -14 61 -8 17 17 0 31 -54 47
-55 16 -94 18 -146 5z"/>
<path d="M8715 776 c-48 -18 -72 -46 -81 -92 -13 -68 31 -112 130 -134 95 -21
136 -40 142 -66 17 -67 -27 -108 -117 -109 -65 0 -112 25 -117 64 -2 15 -9 21
-20 19 -11 -2 -16 -11 -14 -23 7 -39 32 -63 83 -80 91 -31 188 -3 215 62 30
70 -10 128 -102 152 -142 37 -164 51 -164 101 0 83 184 106 228 29 16 -28 52
-41 52 -19 0 25 -33 71 -61 86 -45 23 -126 27 -174 10z"/>
<path d="M2203 640 c-54 -32 -67 -70 -65 -189 1 -57 4 -106 6 -109 17 -16 26
21 26 104 0 106 14 149 56 164 64 25 122 2 145 -57 5 -13 9 -65 9 -114 0 -72
3 -89 15 -89 12 0 15 19 15 108 0 88 -3 113 -20 139 -37 62 -124 82 -187 43z"/>
<path d="M2553 640 c-51 -26 -73 -69 -73 -142 0 -64 15 -95 57 -124 43 -28 94
-37 140 -24 53 14 70 27 57 40 -7 7 -21 6 -47 -5 -62 -26 -147 3 -166 56 -6
18 -11 33 -11 35 0 2 62 5 138 6 l137 3 3 35 c4 41 -21 93 -56 116 -41 27
-130 29 -179 4z m146 -33 c25 -12 68 -74 59 -83 -3 -2 -60 -3 -127 -2 l-121 3
18 35 c9 19 28 40 42 47 32 16 98 16 129 0z"/>
<path d="M2940 642 c-57 -29 -75 -71 -77 -189 -2 -94 -1 -103 16 -103 17 0 19
10 20 96 1 52 7 107 13 120 12 26 55 54 83 54 8 0 15 9 15 20 0 25 -23 26 -70
2z"/>
<path d="M3144 650 c-28 -11 -35 -22 -25 -39 7 -10 13 -10 29 -2 27 15 94 14
127 -1 22 -10 55 -53 55 -72 0 -2 -52 -6 -116 -8 -113 -3 -116 -4 -140 -31
-40 -46 -29 -104 25 -131 76 -40 223 -23 257 29 23 36 15 165 -13 203 -38 53
-135 78 -199 52z m188 -195 c5 -41 1 -48 -30 -64 -31 -16 -144 -17 -182 -1
-25 10 -30 18 -30 46 0 46 18 53 136 54 l102 0 4 -35z"/>
<path d="M3911 645 c-27 -12 -31 -18 -21 -29 8 -11 18 -12 36 -5 14 5 46 9 70
9 37 0 51 -6 75 -29 51 -52 42 -59 -80 -63 -100 -3 -112 -5 -135 -27 -34 -32
-36 -88 -3 -119 49 -46 203 -50 261 -7 37 28 41 158 7 218 -33 59 -135 84
-210 52z m199 -199 c0 -39 -3 -45 -31 -57 -43 -17 -147 -17 -184 1 -35 18 -45
59 -20 84 13 13 38 16 126 16 l109 0 0 -44z"/>
<path d="M4965 641 c-22 -10 -48 -32 -57 -49 -25 -42 -24 -137 2 -179 49 -80
176 -92 252 -24 28 25 32 36 36 93 3 49 0 75 -14 103 -32 68 -136 95 -219 56z
m171 -55 c46 -53 40 -157 -11 -190 -14 -9 -47 -18 -74 -19 -87 -4 -126 36
-125 129 0 84 39 116 133 110 44 -2 59 -8 77 -30z"/>
<path d="M5351 642 c-63 -31 -76 -60 -79 -179 -3 -66 0 -109 7 -116 6 -6 13
-8 16 -6 3 3 8 54 12 113 7 120 21 150 76 164 18 5 33 16 35 25 4 22 -23 22
-67 -1z"/>
<path d="M6361 643 c-47 -25 -72 -62 -78 -117 -11 -94 39 -164 128 -181 38 -7
114 9 124 25 13 21 -7 27 -48 13 -35 -11 -53 -12 -85 -4 -43 12 -82 51 -82 82
0 17 12 19 138 21 l137 3 -2 43 c-4 80 -48 121 -140 129 -44 3 -67 0 -92 -14z
m148 -37 c25 -13 51 -52 51 -76 0 -6 -51 -10 -120 -10 -90 0 -120 3 -120 13 1
22 27 60 51 73 32 18 103 17 138 0z"/>
<path d="M6751 642 c-63 -32 -76 -60 -79 -183 -3 -94 -2 -109 12 -109 12 0 16
11 16 48 1 145 21 198 81 218 37 13 53 44 22 44 -10 0 -33 -8 -52 -18z"/>
<path d="M6937 644 c-23 -12 -26 -18 -17 -29 9 -11 17 -12 30 -5 48 26 147 2
170 -39 20 -38 13 -41 -90 -41 -119 0 -155 -13 -168 -63 -13 -50 -1 -80 43
-102 47 -23 172 -28 197 -8 8 7 17 10 20 7 3 -3 15 7 27 22 31 40 30 157 -2
205 -42 63 -144 89 -210 53z m203 -189 c0 -47 -26 -71 -89 -79 -51 -7 -124 6
-148 26 -18 14 -16 53 3 72 12 13 39 16 125 16 l109 0 0 -35z"/>
<path d="M7950 642 c-50 -25 -80 -75 -80 -132 0 -85 45 -152 104 -156 12 -1
29 -5 39 -9 18 -8 78 6 107 25 12 7 12 12 3 21 -9 9 -16 9 -26 1 -43 -36 -154
-14 -176 34 -24 53 -22 54 123 54 148 0 150 1 137 62 -12 54 -29 77 -71 98
-48 25 -114 26 -160 2z m166 -56 c60 -60 51 -66 -86 -66 -102 0 -120 2 -120
16 0 48 51 83 124 84 42 0 52 -4 82 -34z"/>
<path d="M9411 642 c-57 -30 -71 -70 -71 -195 0 -83 3 -108 13 -105 8 3 14 37
17 106 6 114 22 150 78 167 21 6 32 16 32 27 0 23 -26 23 -69 0z"/>
<path d="M2003 553 c4 -54 7 -122 7 -150 0 -40 4 -53 15 -53 13 0 15 23 15
150 0 147 0 150 -22 150 -20 0 -21 -2 -15 -97z"/>
<path d="M5874 573 c3 -42 6 -109 6 -150 0 -58 3 -73 15 -73 13 0 15 23 15
150 0 147 0 150 -21 150 -21 0 -22 -3 -15 -77z"/>
<path d="M9004 543 c9 -125 23 -159 80 -187 33 -16 43 -17 79 -6 79 23 92 49
102 193 7 103 7 107 -13 107 -19 0 -20 -7 -24 -109 -3 -98 -5 -112 -26 -134
-46 -49 -131 -34 -151 25 -6 17 -11 73 -11 124 0 89 -1 94 -21 94 -21 0 -22
-2 -15 -107z"/>
</g>
</svg>
