<?xml version="1.0" standalone="no"?>
<!DOCTYPE svg PUBLIC "-//W3C//DTD SVG 20010904//EN"
 "http://www.w3.org/TR/2001/REC-SVG-20010904/DTD/svg10.dtd">
<svg version="1.0" xmlns="http://www.w3.org/2000/svg"
 width="664.000000pt" height="313.000000pt" viewBox="0 0 664.000000 313.000000"
 preserveAspectRatio="xMidYMid meet">

<g transform="translate(0.000000,313.000000) scale(0.100000,-0.100000)"
fill="#000000" stroke="none">
<path d="M3079 3057 c-37 -33 -117 -101 -151 -127 -11 -8 -35 -28 -53 -45 -18
-16 -54 -48 -81 -70 -94 -77 -199 -169 -202 -177 -2 -4 -8 -8 -14 -8 -6 0 -18
-8 -27 -17 -16 -18 -125 -113 -170 -149 -13 -10 -39 -33 -58 -51 -18 -18 -33
-30 -33 -27 0 4 -52 -41 -96 -83 -7 -7 -15 -13 -18 -13 -3 0 -18 -12 -34 -27
-15 -16 -50 -46 -77 -68 -27 -22 -65 -54 -84 -71 -20 -17 -47 -39 -59 -50 -13
-10 -41 -35 -62 -54 -51 -46 -79 -70 -85 -70 -2 0 -17 -12 -33 -27 -27 -26
-90 -81 -152 -133 -14 -12 -35 -30 -48 -41 -12 -10 -24 -19 -25 -19 -2 0 -26
-20 -53 -44 -53 -49 -160 -140 -263 -225 -36 -30 -67 -59 -69 -63 -2 -4 -9 -8
-16 -8 -6 0 -18 -9 -26 -21 -8 -11 -39 -39 -68 -61 -29 -22 -50 -43 -48 -46 7
-6 66 21 66 31 0 5 4 6 9 2 9 -5 36 5 135 52 28 13 58 23 68 23 10 0 18 4 18
9 0 5 15 13 33 16 17 4 37 11 42 14 6 4 26 14 45 21 19 7 49 19 65 26 139 59
224 91 229 86 3 -3 6 0 6 6 0 7 8 12 18 12 9 0 32 9 50 20 17 11 32 18 32 15
0 -3 25 6 56 20 31 14 63 25 70 25 8 0 14 5 14 10 0 6 3 9 8 8 10 -2 30 6 137
53 27 12 54 22 60 23 12 3 102 42 127 56 22 12 78 13 78 1 0 -5 12 -12 27 -16
15 -3 30 -10 33 -13 3 -4 21 -15 40 -26 19 -10 73 -39 120 -64 47 -25 87 -48
90 -52 3 -4 30 -19 60 -33 30 -15 78 -40 105 -57 74 -44 74 -44 111 -26 19 9
41 16 49 16 8 0 15 4 15 9 0 5 16 12 35 15 19 4 35 11 35 16 0 6 6 10 13 10 8
0 56 18 107 40 51 23 114 50 139 61 25 11 54 24 63 29 10 6 25 10 33 10 8 0
15 5 15 11 0 5 4 8 9 4 5 -3 12 -1 16 5 3 5 15 10 26 10 10 0 19 4 19 10 0 5
3 9 8 8 14 -3 62 14 62 23 0 5 7 9 16 9 8 0 34 9 58 19 23 11 48 21 56 23 8 2
18 7 22 12 3 5 72 -23 152 -63 80 -40 148 -72 152 -71 4 1 10 -2 13 -7 6 -8
192 -103 202 -103 3 0 39 -18 79 -40 40 -22 79 -40 86 -40 8 0 14 -4 14 -10 0
-5 5 -10 11 -10 13 0 202 -91 209 -101 3 -4 18 -11 33 -14 15 -4 27 -11 27
-16 0 -5 6 -9 13 -9 15 0 201 -92 205 -102 2 -5 9 -8 16 -8 6 0 77 -33 156
-73 80 -40 161 -79 180 -87 19 -8 37 -16 40 -19 5 -5 87 -46 180 -90 19 -9 37
-18 40 -21 13 -13 142 -72 147 -67 3 3 14 -3 26 -14 11 -10 27 -19 34 -19 7 0
13 -3 13 -8 0 -4 15 -13 33 -20 17 -7 50 -22 72 -32 46 -23 62 -26 43 -7 -12
11 -141 117 -192 157 -10 8 -40 33 -66 55 -26 22 -58 49 -71 59 -13 11 -42 34
-64 53 -22 19 -45 37 -50 41 -10 7 -128 106 -151 127 -6 6 -28 24 -49 40 -21
17 -59 48 -83 70 -24 22 -51 44 -60 49 -9 5 -30 22 -46 37 -17 16 -51 45 -76
65 -91 74 -135 110 -180 149 -26 22 -64 54 -85 70 -21 17 -43 35 -49 40 -6 6
-33 28 -61 50 -27 22 -62 51 -77 65 -15 14 -42 37 -60 52 -137 111 -167 137
-198 165 -19 18 -39 33 -43 33 -5 0 -21 12 -36 28 -32 30 -54 50 -126 107 -27
22 -67 56 -88 75 -21 19 -46 39 -55 44 -9 5 -26 19 -39 30 -12 12 -37 33 -55
47 -18 15 -55 46 -83 69 -66 55 -81 68 -140 115 -27 22 -63 52 -80 66 -16 15
-64 54 -105 88 -41 35 -84 70 -95 79 -11 9 -43 35 -70 57 -28 21 -52 42 -55
45 -8 9 -88 70 -91 70 -2 0 -20 -15 -40 -33z"/>
<path d="M3615 1463 c-44 -21 -82 -40 -85 -43 -3 -3 -67 -37 -142 -75 -76 -38
-138 -72 -138 -75 0 -4 29 -19 65 -35 36 -15 65 -31 65 -36 0 -5 3 -8 8 -7 7
3 603 -291 612 -302 3 -3 25 -14 50 -25 25 -11 86 -40 135 -65 l90 -47 453 -2
c330 -2 452 1 452 9 0 6 -4 9 -9 6 -5 -4 -11 -3 -13 1 -1 5 -57 35 -123 68
-66 33 -121 63 -123 68 -2 4 -9 7 -15 7 -7 0 -79 34 -162 76 -258 131 -345
174 -355 174 -4 0 -10 3 -12 8 -3 8 -133 74 -145 74 -4 -1 -15 5 -23 12 -8 7
-35 21 -60 31 -25 11 -47 22 -50 25 -8 9 -265 134 -269 131 -2 -2 -7 1 -10 6
-7 11 -93 53 -107 53 -5 0 -45 -17 -89 -37z"/>
<path d="M2260 1436 c-30 -13 -116 -49 -190 -80 -74 -32 -144 -61 -155 -66
-75 -33 -136 -60 -175 -78 -25 -11 -90 -39 -145 -62 -55 -23 -114 -48 -132
-56 -17 -8 -33 -14 -36 -14 -3 0 -38 -15 -79 -34 -127 -58 -167 -76 -171 -76
-3 0 -22 -8 -43 -17 -22 -9 -42 -16 -46 -15 -5 1 -8 -3 -8 -8 0 -6 -7 -10 -15
-10 -8 0 -23 -4 -33 -10 -9 -5 -51 -23 -92 -41 -41 -17 -103 -44 -138 -60 -35
-16 -69 -29 -75 -29 -7 0 -21 -8 -32 -16 -18 -15 113 -16 1470 -10 820 4 1494
6 1499 6 10 0 -133 78 -234 128 -30 15 -57 30 -60 33 -3 4 -16 10 -30 14 -14
4 -27 10 -30 14 -3 3 -50 29 -104 56 -55 28 -105 53 -110 58 -11 7 -210 110
-381 196 -49 25 -92 48 -95 51 -6 6 -293 150 -300 150 -3 0 -30 -11 -60 -24z"/>
<path d="M553 512 c-15 -2 -25 -16 -37 -52 -9 -27 -16 -56 -16 -64 0 -9 -4
-16 -8 -16 -4 0 -8 -8 -9 -17 -1 -10 -5 -37 -9 -61 -5 -35 -9 -41 -19 -30 -11
11 -43 114 -64 203 -5 22 -13 31 -32 33 l-26 3 -12 -138 c-7 -76 -15 -162 -18
-190 -4 -44 -2 -53 11 -53 9 0 16 3 16 8 2 38 12 156 16 192 l6 45 13 -31 c7
-17 16 -51 20 -75 4 -24 10 -46 14 -49 4 -3 11 -23 16 -44 6 -22 15 -41 21
-43 13 -4 23 21 54 132 31 111 39 122 40 52 0 -32 6 -87 12 -123 12 -61 14
-65 38 -62 14 2 24 8 24 13 -1 6 -5 64 -9 130 -4 66 -10 147 -14 180 -5 54 -8
60 -28 57z"/>
<path d="M715 510 l-60 -5 1 -165 c1 -226 -2 -210 35 -210 l31 0 -5 75 -5 75
32 0 c58 1 96 51 96 126 0 46 -21 89 -49 102 -9 4 -43 5 -76 2z m51 -57 c29
-39 9 -123 -30 -123 -13 0 -16 12 -16 70 0 58 3 70 16 70 9 0 23 -8 30 -17z"/>
<path d="M1139 510 c0 -3 0 -57 0 -120 0 -63 1 -148 1 -187 l0 -73 70 0 c63 0
70 2 70 20 0 17 -7 20 -40 20 l-40 0 0 75 0 75 40 0 c33 0 40 3 40 20 0 17 -7
20 -40 20 l-40 0 0 55 0 55 40 0 c33 0 40 3 40 20 0 12 -7 20 -17 21 -10 0
-42 1 -71 2 -28 1 -52 0 -53 -3z"/>
<path d="M1368 502 c-18 -10 -30 -29 -34 -50 -9 -47 1 -124 17 -133 8 -4 25
-17 38 -28 13 -12 27 -21 31 -21 4 0 10 -12 13 -27 7 -33 -16 -73 -41 -73 -22
1 -52 23 -53 41 0 8 -5 1 -10 -16 -8 -25 -6 -33 12 -47 44 -36 109 -14 134 46
28 66 -5 144 -77 182 -28 14 -36 43 -22 78 10 25 63 21 73 -6 l9 -23 10 25 c8
21 6 29 -14 48 -28 26 -49 27 -86 4z"/>
<path d="M1626 508 c-7 -22 -20 -72 -21 -83 -4 -22 -17 -71 -25 -90 -5 -11
-12 -40 -16 -65 -3 -25 -9 -47 -13 -50 -3 -3 -11 -24 -17 -47 -9 -34 -9 -43 2
-43 18 0 27 18 34 65 5 38 7 40 43 43 50 4 67 -11 67 -60 0 -42 11 -52 53 -46
l25 3 -24 95 c-65 258 -75 290 -91 290 -7 0 -15 -6 -17 -12z m15 -168 c5 0 9
-14 9 -31 0 -27 -3 -30 -27 -27 -23 2 -27 7 -25 28 2 14 8 39 15 55 l12 30 3
-27 c2 -16 8 -28 13 -28z"/>
<path d="M1953 508 c-4 -7 -11 -60 -15 -118 -7 -109 -15 -186 -23 -232 -4 -23
-1 -28 15 -28 18 0 20 7 21 58 1 31 2 73 4 92 2 19 3 46 4 60 1 21 3 22 15 10
8 -8 19 -35 25 -60 35 -153 40 -164 68 -153 7 3 13 16 13 29 0 13 6 41 14 61
8 21 20 59 26 86 7 26 16 47 20 47 4 0 11 -52 15 -115 l7 -115 30 0 31 0 -8
112 c-20 288 -17 273 -47 276 -25 3 -28 0 -28 -27 0 -16 -4 -32 -9 -35 -5 -4
-12 -29 -16 -56 -4 -28 -10 -50 -15 -50 -4 0 -10 -18 -14 -40 -8 -48 -22 -52
-31 -7 -4 17 -13 52 -20 77 -8 25 -19 66 -26 93 -13 47 -38 63 -56 35z"/>
<path d="M2280 325 l0 -195 35 0 35 0 0 195 0 195 -35 0 -35 0 0 -195z"/>
<path d="M2410 325 c0 -179 1 -195 18 -195 15 0 17 12 14 127 -3 126 -2 128
16 105 10 -13 27 -40 38 -60 10 -21 31 -56 47 -78 15 -23 27 -47 27 -53 0 -6
5 -11 10 -11 6 0 10 -7 10 -15 0 -8 9 -15 20 -15 23 0 22 -12 24 200 2 172 0
190 -20 190 -10 0 -14 -28 -16 -122 l-3 -123 -26 45 c-14 25 -41 72 -59 105
-51 92 -53 95 -77 95 l-23 0 0 -195z"/>
<path d="M2700 325 l0 -195 75 0 c68 0 75 2 75 20 0 12 -7 20 -17 21 -69 4
-67 3 -66 37 1 17 2 50 2 72 1 40 1 40 40 40 34 0 38 3 34 20 -4 15 -14 20
-39 20 -32 0 -34 2 -34 33 0 17 -3 42 -6 55 -6 20 -3 22 33 22 46 0 53 4 46
31 -5 16 -14 19 -74 19 l-69 0 0 -195z"/>
<path d="M2890 325 l0 -195 30 0 30 0 0 85 c0 47 3 85 8 85 8 0 42 -73 42 -90
0 -5 8 -25 17 -45 14 -29 22 -35 49 -35 l32 0 -34 87 c-41 103 -41 117 -9 147
35 33 35 93 -1 130 -24 23 -35 26 -95 26 l-69 0 0 -195z m128 105 c5 -34 -18
-70 -45 -70 -21 0 -23 4 -23 54 0 34 5 56 13 59 19 7 52 -18 55 -43z"/>
<path d="M3215 484 c-8 -20 -15 -48 -15 -63 -1 -14 -7 -44 -15 -66 -8 -22 -15
-50 -15 -62 0 -12 -4 -24 -9 -28 -6 -3 -13 -26 -17 -50 -3 -25 -10 -48 -15
-51 -15 -9 -10 -34 6 -34 20 0 35 32 35 74 0 36 0 36 44 36 50 0 58 -8 66 -65
5 -37 8 -40 38 -43 23 -2 32 1 32 12 0 20 -31 144 -81 329 -16 56 -33 60 -54
11z m26 -144 c5 0 9 -14 9 -31 0 -27 -3 -30 -27 -27 -24 3 -28 7 -25 33 2 17
8 44 15 60 l12 30 3 -32 c2 -18 7 -33 13 -33z"/>
<path d="M3546 498 c-3 -13 -6 -61 -6 -108 0 -48 -4 -90 -9 -95 -5 -6 -11 -45
-13 -87 -3 -69 -1 -78 14 -78 15 0 18 10 19 68 1 84 7 154 14 160 12 12 14 5
58 -168 6 -25 16 -48 21 -52 13 -9 31 -5 32 8 1 19 16 80 24 99 4 11 14 41 20
68 7 26 16 47 20 47 5 0 11 -52 15 -115 l7 -115 30 0 30 0 -6 107 c-4 60 -10
146 -14 193 -7 83 -8 85 -34 88 -25 3 -28 0 -28 -26 0 -16 -3 -32 -7 -36 -5
-4 -13 -29 -20 -54 -39 -156 -43 -162 -62 -86 -43 172 -55 204 -77 204 -14 0
-24 -8 -28 -22z"/>
<path d="M3880 325 l0 -195 35 0 35 0 0 195 0 195 -35 0 -35 0 0 -195z"/>
<path d="M4020 325 c0 -167 2 -195 15 -195 13 0 15 21 15 126 0 105 2 123 13
112 8 -7 16 -18 18 -24 2 -6 31 -56 64 -112 48 -81 65 -102 83 -102 l22 0 -2
192 c-3 163 -5 193 -18 196 -13 2 -15 -15 -12 -123 2 -69 0 -125 -5 -125 -4 0
-30 39 -56 87 -78 138 -96 163 -117 163 -19 0 -20 -7 -20 -195z"/>
<path d="M4390 500 c0 -11 -4 -20 -9 -20 -5 0 -12 -24 -15 -52 -4 -29 -11 -57
-15 -63 -5 -5 -11 -30 -15 -55 -4 -24 -11 -49 -15 -55 -5 -5 -11 -30 -15 -55
-4 -24 -12 -50 -18 -57 -8 -10 -5 -13 16 -13 21 0 26 5 26 24 0 13 3 37 6 54
5 26 11 31 38 30 56 0 63 -5 70 -58 l7 -50 40 0 c28 0 38 3 33 12 -4 6 -13 36
-21 65 -7 29 -19 77 -27 105 -8 29 -22 85 -32 123 -17 65 -27 84 -46 85 -5 0
-8 -9 -8 -20z m13 -159 c2 -11 6 -24 10 -27 17 -17 5 -34 -23 -34 -34 0 -37
11 -19 74 9 31 13 36 20 24 5 -9 10 -25 12 -37z"/>
<path d="M4600 500 c-11 -11 -20 -17 -21 -12 0 4 -4 -2 -9 -13 -24 -56 1 -175
37 -175 7 0 13 -4 13 -8 0 -5 11 -14 25 -20 19 -9 25 -19 25 -45 0 -18 -5 -38
-12 -45 -19 -19 -56 -14 -70 8 -18 28 -28 25 -28 -10 0 -33 22 -50 65 -50 74
0 116 84 84 167 -10 28 -41 63 -56 63 -19 1 -53 40 -53 62 0 49 63 69 79 26 9
-22 9 -22 17 -3 4 11 9 23 11 27 5 9 -39 38 -66 43 -13 2 -30 -4 -41 -15z"/>
<path d="M4764 511 c-2 -2 -4 -15 -4 -27 0 -20 4 -23 30 -19 l30 4 0 -169 c0
-179 2 -185 50 -173 21 6 21 9 19 172 l-2 166 32 3 c22 2 31 8 31 22 0 17 -10
19 -91 22 -50 2 -93 1 -95 -1z"/>
<path d="M113 320 l0 -190 68 0 c53 0 68 3 73 16 8 22 5 24 -39 27 l-37 2 0
70 c0 44 4 70 11 71 6 1 22 2 36 3 18 1 25 7 25 21 0 17 -7 20 -39 20 l-38 0
1 53 1 52 38 3 c29 3 37 7 37 23 0 17 -7 19 -69 19 l-69 0 1 -190z"/>
<path d="M900 320 l0 -190 30 0 30 0 0 88 1 87 28 -60 c15 -33 31 -72 35 -87
5 -24 12 -28 41 -28 19 0 35 2 35 5 0 2 -10 28 -23 57 -13 29 -29 72 -37 96
-13 42 -13 44 13 68 22 20 27 34 27 69 0 68 -22 85 -110 85 l-70 0 0 -190z
m114 134 c18 -46 2 -94 -30 -94 -22 0 -24 4 -24 55 0 51 2 55 24 55 13 0 27
-7 30 -16z"/>
<path d="M4992 318 l3 -193 34 -3 34 -3 -7 84 c-5 56 -3 87 4 92 6 3 10 -3 10
-14 0 -12 5 -21 10 -21 6 0 10 -8 10 -17 0 -10 6 -30 14 -44 7 -14 16 -37 20
-52 5 -23 12 -27 41 -27 19 0 35 2 35 5 0 3 -16 44 -35 92 -19 48 -35 93 -35
100 0 8 11 26 25 41 31 33 33 83 4 123 -19 28 -24 29 -95 29 l-75 0 3 -192z
m118 133 c24 -46 6 -91 -37 -91 -21 0 -23 4 -23 55 0 52 1 55 25 55 14 0 29
-8 35 -19z"/>
<path d="M5241 325 c2 -102 6 -190 9 -196 4 -6 20 -9 36 -7 l29 3 -1 120 c-1
66 -2 153 -3 193 l-1 72 -36 0 -35 0 2 -185z"/>
<path d="M5532 490 c-12 -11 -27 -38 -33 -60 -10 -34 -9 -46 5 -77 9 -21 32
-48 51 -60 50 -33 68 -64 56 -97 -9 -21 -17 -26 -44 -26 -18 0 -39 6 -45 12
-10 10 -15 10 -22 -2 -7 -11 -3 -21 16 -37 65 -58 144 0 144 105 0 45 -16 69
-69 106 -37 26 -72 86 -50 86 5 0 9 7 9 15 0 32 70 10 82 -25 3 -8 7 0 10 18
4 29 1 35 -23 48 -38 19 -61 18 -87 -6z"/>
<path d="M5850 315 l0 -195 30 0 30 0 0 85 c0 86 13 112 25 53 4 -18 10 -35
14 -38 3 -3 13 -25 22 -50 14 -41 19 -45 52 -48 l36 -3 -34 83 c-43 108 -44
118 -14 150 23 24 25 33 19 78 -9 66 -27 79 -112 80 l-68 0 0 -195z m120 97
c0 -41 -14 -62 -42 -62 -15 0 -18 9 -18 54 0 57 11 71 43 54 11 -6 17 -21 17
-46z"/>
<path d="M6223 323 c4 -103 7 -191 7 -195 0 -5 34 -8 75 -8 68 0 75 2 75 20 0
17 -7 20 -45 20 l-45 0 -2 173 -3 172 -34 3 -34 4 6 -189z"/>
<path d="M5731 196 c-14 -17 -3 -76 15 -76 23 0 38 39 25 66 -12 27 -23 30
-40 10z"/>
<path d="M6114 186 c-8 -31 3 -66 21 -66 26 0 40 42 24 72 -14 26 -38 22 -45
-6z"/>
<path d="M6442 198 c-14 -14 -15 -47 -2 -68 7 -12 13 -12 27 -4 22 14 29 50
13 70 -15 17 -22 18 -38 2z"/>
</g>
</svg>
