<?xml version="1.0" standalone="no"?>
<!DOCTYPE svg PUBLIC "-//W3C//DTD SVG 20010904//EN"
 "http://www.w3.org/TR/2001/REC-SVG-20010904/DTD/svg10.dtd">
<svg version="1.0" xmlns="http://www.w3.org/2000/svg"
 width="1024.000000pt" height="858.000000pt" viewBox="0 0 1024.000000 858.000000"
 preserveAspectRatio="xMidYMid meet">

<g transform="translate(0.000000,858.000000) scale(0.100000,-0.100000)"
fill="#000000" stroke="none">
<path d="M0 8544 c0 -30 3 -35 18 -31 9 3 60 20 112 36 85 27 91 30 54 30 -23
1 -61 -6 -84 -14 -23 -8 -47 -15 -52 -15 -6 0 -5 7 2 15 11 13 8 15 -19 15
-29 0 -31 -2 -31 -36z"/>
<path d="M345 8565 c-27 -6 -116 -31 -197 -55 l-148 -43 0 -34 c0 -18 3 -33 6
-33 4 0 50 13 103 29 117 35 242 68 423 112 76 18 136 35 133 37 -6 6 -306
-56 -454 -94 -73 -19 -138 -33 -143 -32 -6 2 64 27 154 56 89 29 172 57 183
62 28 12 0 10 -60 -5z"/>
<path d="M1470 8576 c0 -3 34 -33 75 -67 41 -34 75 -68 75 -75 0 -7 6 -11 13
-9 6 2 24 -6 39 -20 21 -18 28 -34 30 -67 l3 -43 -45 -5 c-27 -3 -45 -10 -44
-17 3 -35 4 -38 12 -26 4 6 34 14 67 17 137 12 422 53 445 64 25 11 60 16 375
52 94 11 186 22 205 25 19 3 58 7 85 11 28 3 75 9 106 13 65 8 79 5 80 -17 1
-21 28 114 28 146 l1 22 -476 -2 -477 -3 -17 -50 c-36 -105 -63 -168 -80 -185
-19 -19 -158 -39 -179 -26 -6 4 -11 23 -11 42 0 27 12 51 47 97 92 120 122
145 108 90 -6 -27 -6 -27 14 -9 21 19 21 19 21 -4 0 -22 1 -23 20 -5 26 23 25
17 -6 -89 -14 -49 -24 -90 -22 -92 2 -2 19 39 37 92 18 52 37 97 42 100 5 3 9
13 9 24 0 16 -9 18 -75 18 l-76 0 -56 -71 c-31 -40 -63 -76 -71 -80 -9 -6 -13
-25 -12 -55 3 -65 2 -72 -14 -72 -9 0 -17 27 -25 89 -7 50 -14 98 -16 108 -2
10 -4 33 -4 51 -1 25 -5 32 -21 32 -13 0 -20 -7 -20 -20 0 -26 -14 -25 -50 2
-54 39 -42 12 14 -33 38 -31 55 -51 56 -68 0 -17 -3 -21 -12 -14 -152 116
-198 146 -198 129z m768 -67 c2 -9 -24 -51 -58 -93 -55 -69 -64 -76 -96 -76
-41 0 -43 -5 45 109 49 61 70 81 85 79 12 -2 22 -10 24 -19z m298 -35 c13 -3
24 -12 24 -20 0 -17 -37 -37 -52 -28 -8 5 -9 2 -5 -10 11 -29 -25 -15 -43 16
-14 25 -13 28 5 42 11 9 26 13 33 11 8 -3 25 -8 38 -11z m-507 -90 c-11 -41
-29 -68 -29 -44 0 15 32 91 37 87 1 -2 -2 -21 -8 -43z m28 14 c-3 -8 -6 -5 -6
6 -1 11 2 17 5 13 3 -3 4 -12 1 -19z"/>
<path d="M1737 8536 c3 -22 9 -54 13 -71 l8 -30 1 29 c1 18 13 43 29 60 18 21
20 24 4 12 -27 -23 -36 -17 -23 15 7 21 6 24 -14 25 -21 2 -22 -2 -18 -40z"/>
<path d="M3055 8363 c-30 -211 -35 -343 -13 -343 18 0 176 125 169 133 -11 11
-1 57 12 57 6 0 18 -7 27 -15 14 -13 19 -11 45 10 25 20 27 24 11 25 -15 0
-17 5 -11 27 13 55 92 143 127 143 14 0 38 -44 38 -71 0 -9 9 -28 21 -43 23
-29 19 -56 -8 -56 -27 0 -297 -202 -302 -225 -4 -24 -19 -35 -47 -35 -12 0
-32 -8 -45 -19 l-23 -19 29 -5 c78 -16 148 -19 155 -7 4 7 15 10 25 7 9 -4 13
-12 10 -17 -4 -6 -3 -10 2 -9 4 1 15 -1 23 -4 21 -8 239 -47 266 -47 13 0 36
13 52 30 35 34 68 32 57 -4 -4 -11 -10 -34 -14 -51 -11 -47 -27 -47 -391 11
-85 13 -168 26 -184 29 l-29 5 7 -87 c8 -92 20 -171 29 -179 3 -3 45 -11 93
-19 104 -16 124 -22 124 -41 0 -24 -28 -28 -114 -17 -45 5 -83 9 -84 7 -2 -1
1 -47 8 -101 6 -54 14 -126 17 -160 7 -75 23 -84 23 -14 0 28 4 52 9 56 15 9
17 -83 4 -160 -17 -97 -16 -139 1 -62 10 42 26 32 27 -15 0 -24 4 -52 9 -63 8
-19 8 -19 17 4 6 16 12 20 17 13 10 -17 29 -15 23 2 -7 17 15 97 51 187 6 16
6 31 0 42 -14 26 -28 20 -28 -12 0 -17 -4 -33 -10 -36 -5 -3 -10 -16 -10 -28
0 -12 -5 -29 -10 -37 -7 -11 -10 -2 -10 33 0 30 4 46 10 42 6 -4 10 11 10 39
0 24 5 57 12 73 l12 28 4 -27 c3 -28 16 -36 27 -18 11 18 34 10 49 -17 12 -23
16 -25 21 -11 4 9 0 27 -8 40 -14 21 -13 28 3 68 19 46 28 32 10 -16 -8 -21
-7 -32 5 -51 9 -13 20 -21 25 -18 17 11 11 -9 -15 -48 -26 -37 -25 -63 1 -53
9 3 14 -1 14 -12 1 -13 4 -11 15 8 13 23 14 23 15 4 0 -11 -6 -43 -14 -70 -20
-69 -39 -165 -33 -170 7 -7 101 173 117 221 7 22 16 44 21 50 5 5 9 18 9 28 0
10 6 31 14 45 8 15 17 36 21 46 4 14 9 16 16 9 8 -8 2 -30 -18 -74 -26 -56
-58 -142 -77 -204 -4 -11 14 21 40 70 25 50 43 79 40 65 -25 -129 -18 -132 23
-7 32 96 46 125 55 116 5 -5 -56 -185 -79 -231 -15 -30 -12 -38 15 -31 11 3
16 11 13 19 -8 21 15 79 42 104 22 21 27 22 40 9 8 -8 21 -32 29 -54 10 -27
15 -33 15 -19 1 12 8 27 16 34 13 11 15 10 10 -1 -3 -8 -1 -34 4 -59 l9 -45 3
48 c6 97 7 92 -26 89 -23 -2 -38 5 -60 28 -32 34 -28 44 24 54 31 6 33 5 29
-19 -3 -14 1 -30 8 -36 10 -8 15 -5 20 15 3 14 4 33 0 41 -3 8 -1 15 4 15 6 0
10 10 11 23 0 18 3 16 12 -11 7 -18 17 -36 23 -40 5 -4 10 -45 10 -92 0 -48 5
-94 11 -105 13 -21 13 -24 -1 90 -3 20 1 52 8 73 9 24 10 45 4 61 -10 27 -7
33 10 22 17 -10 21 -71 7 -105 -11 -26 -11 -35 2 -59 19 -37 30 -27 14 12 -10
23 -10 34 0 52 11 22 13 20 26 -31 7 -30 25 -90 38 -132 14 -42 25 -85 26 -95
0 -16 1 -16 8 1 4 12 -4 56 -21 115 -16 53 -30 116 -31 141 -1 25 -5 50 -9 55
-8 13 -28 122 -28 154 0 24 30 -59 95 -259 13 -41 43 -146 65 -233 47 -182 63
-227 54 -153 -3 27 -8 56 -11 65 -2 9 8 3 23 -14 20 -21 26 -24 20 -10 -68
175 -87 255 -42 170 26 -47 33 -37 8 12 -39 76 -83 198 -106 292 -13 53 -22
98 -20 100 7 8 34 -22 34 -38 1 -9 6 -26 14 -39 11 -21 14 -22 25 -8 17 20 35
20 50 2 10 -11 8 -17 -6 -25 -10 -6 -12 -11 -5 -11 6 0 12 -7 12 -15 0 -19
-19 -19 -44 0 -11 8 -23 15 -28 15 -17 0 -7 -29 17 -48 14 -11 38 -48 55 -83
26 -56 28 -65 15 -78 -13 -13 -11 -18 14 -40 18 -17 40 -58 61 -116 41 -111
56 -131 30 -40 -11 38 -18 70 -16 72 2 2 13 -13 25 -33 31 -53 35 -37 6 24
-14 29 -25 56 -25 62 0 5 -8 10 -17 10 -10 0 -26 14 -35 31 -10 16 -14 28 -9
25 8 -6 -4 65 -15 88 -3 6 6 -2 20 -19 14 -16 27 -41 27 -55 1 -21 2 -21 6 -4
5 27 73 32 73 5 0 -15 86 -141 96 -141 4 0 -16 39 -56 110 -11 19 -17 43 -14
52 3 10 1 18 -4 18 -6 0 -12 7 -16 15 -4 13 -2 14 14 5 13 -7 -5 27 -47 94
-38 57 -76 106 -87 109 -11 4 -16 12 -13 20 3 8 -3 28 -14 46 -26 43 -10 39
22 -7 50 -69 139 -174 139 -162 0 18 -90 149 -128 187 -29 29 -32 36 -20 50
11 15 11 16 -4 10 -22 -8 -23 2 -3 30 19 26 8 35 -31 24 -18 -5 -28 -14 -28
-25 3 -31 -23 2 -28 36 -4 25 1 38 21 58 l26 27 50 -51 c62 -62 70 -79 44
-102 -10 -9 -19 -22 -19 -29 0 -11 51 -86 77 -113 7 -8 18 -22 23 -33 6 -10
15 -19 21 -19 6 0 8 4 4 9 -3 5 -1 12 5 16 10 6 -64 126 -82 133 -9 4 -1 22
11 22 4 0 30 -27 56 -60 52 -65 70 -72 36 -14 -25 43 -20 55 11 28 16 -14 15
-10 -7 19 -32 43 -30 52 9 37 15 -5 32 -10 37 -10 16 0 -31 60 -55 71 -21 10
-54 51 -39 47 5 0 16 2 26 7 10 4 23 2 32 -5 8 -7 15 -9 15 -5 0 4 7 2 15 -5
8 -7 14 -18 13 -25 -2 -6 12 -24 30 -39 37 -32 44 -21 7 14 -13 12 -30 38 -36
57 -7 24 -16 33 -26 29 -8 -3 -12 -2 -9 3 3 5 -4 11 -15 14 -13 4 -19 10 -14
19 3 7 0 4 -9 -6 -8 -10 -13 -22 -11 -26 8 -13 -27 -22 -39 -10 -17 17 -27 11
-14 -10 16 -26 4 -36 -27 -22 -31 14 -115 91 -115 105 0 5 8 2 19 -7 17 -16
19 -16 24 4 3 11 1 23 -4 26 -19 11 -4 37 23 40 34 3 83 34 55 34 -10 0 -15 5
-12 10 10 16 21 12 74 -30 28 -22 53 -40 56 -40 14 0 2 18 -22 33 -59 36 -65
44 -54 66 10 18 7 21 -26 30 -21 6 -46 11 -55 11 -9 0 -20 5 -24 11 -13 22
153 -4 366 -58 118 -30 230 -58 249 -63 20 -5 30 -5 24 1 -14 14 -175 67 -300
98 -210 52 -208 51 -118 45 44 -3 91 -8 105 -11 14 -3 22 -3 19 1 -3 3 -60 17
-125 31 -65 14 -139 31 -164 40 -45 14 -44 14 60 11 70 -3 128 -12 173 -26 50
-16 72 -18 81 -11 10 8 34 7 86 -4 40 -8 75 -14 77 -11 4 3 -132 37 -212 52
-40 8 -39 8 25 15 36 4 108 8 160 9 l95 3 -90 8 c-49 4 -132 7 -182 8 -51 1
-93 5 -93 10 0 5 -13 14 -30 21 -18 8 -30 20 -30 31 0 23 -18 25 -26 4 -12
-31 -144 -5 -199 40 -34 28 -27 44 12 26 28 -13 28 -13 9 8 -11 12 -16 24 -13
28 9 8 62 -49 59 -64 -2 -8 24 -10 94 -7 55 2 105 -1 116 -7 10 -6 24 -8 31
-6 7 2 -3 11 -20 21 -33 17 -47 43 -17 32 9 -4 22 -1 30 4 7 6 34 14 61 17 26
2 55 9 65 14 22 12 58 11 58 -1 0 -20 28 -10 33 12 8 29 2 34 -26 20 -12 -6
-51 -14 -87 -17 -36 -4 -74 -9 -85 -12 -14 -4 -17 -2 -10 5 6 6 26 15 45 20
53 15 15 14 -78 -3 -77 -13 -112 -12 -112 4 0 4 66 20 148 36 144 29 146 29
97 37 -75 11 -96 18 -90 28 7 12 -21 12 -49 1 -21 -8 -80 15 -71 28 2 5 -16 3
-41 -2 -31 -7 -48 -7 -55 0 -7 7 12 15 63 26 l73 16 -80 -4 c-122 -6 -41 12
135 30 l145 14 -175 -3 c-167 -4 -175 -5 -193 -27 -18 -22 -61 -49 -78 -49 -5
0 -9 8 -9 18 0 28 -8 31 -47 20 -23 -6 -39 -6 -45 0 -6 6 12 15 53 23 69 15
97 42 33 32 -27 -4 -36 -3 -32 7 5 17 73 39 90 29 17 -11 28 -11 28 0 0 17
-38 22 -81 11 -28 -8 -45 -8 -52 -1 -7 7 -1 12 19 16 98 22 85 30 -53 34 -65
1 -122 6 -126 11 -5 4 31 13 80 19 126 17 128 19 29 20 -101 1 -170 -14 -161
-37 3 -7 5 -18 5 -23 0 -5 10 -9 23 -9 12 0 28 -4 36 -9 9 -6 -5 -8 -38 -6
-51 4 -53 3 -47 -19 4 -15 0 -28 -9 -36 -18 -15 -45 -6 -45 15 0 12 -6 15 -22
9 -23 -7 -108 -7 -115 0 -3 2 8 11 24 19 l28 15 -25 10 c-75 30 -76 31 -17 25
31 -3 57 -3 57 0 0 16 -34 37 -51 32 -11 -4 -19 -2 -19 4 0 6 -20 11 -45 11
-31 0 -44 -4 -43 -12 2 -8 -9 -14 -26 -16 -23 -3 -28 0 -23 12 6 14 -16 16
-196 16 l-202 0 -30 -217z m935 147 c-20 -13 -50 -13 -50 0 0 6 15 10 33 10
24 0 28 -3 17 -10z m-418 -22 c-11 -11 -55 -1 -47 11 2 5 16 6 30 3 17 -3 23
-8 17 -14z m458 -18 c0 -5 -11 -10 -25 -10 -14 0 -25 5 -25 10 0 6 11 10 25
10 14 0 25 -4 25 -10z m-686 -30 c14 -14 -4 -30 -34 -30 -32 0 -45 13 -36 37
5 11 14 13 34 8 15 -3 31 -10 36 -15z m595 11 c18 -12 2 -20 -56 -28 -44 -6
-47 -5 -34 11 8 9 20 15 27 12 7 -3 16 -1 19 4 8 12 26 12 44 1z m-426 -48
c-7 -2 -19 -2 -25 0 -7 3 -2 5 12 5 14 0 19 -2 13 -5z m402 -98 c0 -5 -17 -11
-37 -13 -36 -3 -47 5 -31 22 11 10 68 3 68 -9z m360 -24 c-3 -6 -27 -13 -53
-17 -26 -3 -52 -11 -59 -16 -8 -6 -18 -6 -30 1 -16 9 -16 10 5 11 13 0 30 7
38 15 17 16 109 22 99 6z m200 0 c24 -6 11 -9 -61 -19 -50 -7 -99 -12 -110
-12 -18 1 -18 1 1 12 37 22 118 31 170 19z m-547 -56 c-2 -15 -12 -21 -39 -23
-32 -3 -37 0 -43 24 -8 31 -1 41 34 46 29 5 52 -18 48 -47z m149 49 c-3 -3
-12 -4 -19 -1 -8 3 -5 6 6 6 11 1 17 -2 13 -5z m-1007 -44 c0 -5 -7 -10 -16
-10 -8 0 -12 5 -9 10 3 6 10 10 16 10 5 0 9 -4 9 -10z m990 -14 c0 -9 -40 -13
-46 -5 -3 5 6 9 20 9 14 0 26 -2 26 -4z m200 -26 c0 -13 -40 -13 -60 0 -11 7
-5 10 23 10 20 0 37 -4 37 -10z m-448 -33 c-6 -23 -30 -33 -44 -19 -17 17 -2
40 25 38 18 -1 23 -6 19 -19z m203 -17 c4 -6 -7 -10 -24 -10 -17 0 -31 5 -31
10 0 6 11 10 24 10 14 0 28 -4 31 -10z m-75 -20 c0 -5 -9 -10 -19 -10 -11 0
-23 5 -26 10 -4 6 5 10 19 10 14 0 26 -4 26 -10z m-385 -50 c8 -25 -1 -41 -20
-33 -23 8 -18 53 6 53 4 0 10 -9 14 -20z m635 -10 c11 -7 4 -10 -25 -10 -22 0
-47 5 -55 10 -11 7 -4 10 25 10 22 0 47 -5 55 -10z m-247 -17 c-7 -2 -19 -2
-25 0 -7 3 -2 5 12 5 14 0 19 -2 13 -5z m102 -13 c-3 -5 -17 -10 -31 -10 -14
0 -22 4 -19 10 3 6 17 10 31 10 14 0 22 -4 19 -10z m245 0 c-19 -13 -30 -13
-30 0 0 6 10 10 23 10 18 0 19 -2 7 -10z m-1125 -90 c-28 -12 -37 -12 -30 0 3
6 16 10 28 9 21 0 21 -1 2 -9z m755 -73 c0 -17 -45 -42 -59 -33 -19 12 -12 34
12 39 41 8 47 7 47 -6z m-73 -91 c-2 -6 -9 -12 -17 -14 -9 -3 -11 1 -7 11 4
11 2 14 -8 10 -20 -7 -32 26 -14 38 15 9 51 -27 46 -45z m297 28 c9 -8 16 -18
16 -20 0 -7 -38 15 -45 26 -10 16 12 12 29 -6z m-72 -20 c3 -3 4 -14 1 -25 -6
-20 -37 -26 -48 -9 -13 21 30 52 47 34z m-706 -94 c-2 -38 -38 -39 -65 -2 -12
17 -21 33 -21 36 0 11 39 6 46 -5 4 -8 10 -6 17 6 8 15 11 15 17 4 4 -8 7 -25
6 -39z m293 -6 c5 -5 -19 -53 -39 -76 -16 -19 -46 -23 -69 -9 -12 8 -12 13 3
36 32 49 55 66 79 59 12 -3 24 -8 26 -10z m-251 -82 c2 -12 -1 -22 -6 -22 -15
0 -34 28 -27 40 10 17 30 6 33 -18z m140 -40 c13 11 15 10 9 -5 -4 -10 -7 -23
-7 -29 0 -6 -6 -6 -15 2 -8 7 -15 20 -14 29 0 11 2 12 6 3 4 -10 8 -10 21 0z
m292 -7 c0 -8 -7 -15 -15 -15 -8 0 -15 7 -15 15 0 8 7 15 15 15 8 0 15 -7 15
-15z m-393 -37 c-3 -8 -6 -5 -6 6 -1 11 2 17 5 13 3 -3 4 -12 1 -19z m153 -20
c0 -19 -18 -43 -25 -36 -4 3 -2 16 5 27 12 24 20 27 20 9z m-117 -42 c6 -38
-1 -76 -13 -76 -10 0 -25 40 -22 54 2 4 -2 14 -9 22 -14 17 -4 34 20 34 13 0
20 -10 24 -34z m-183 -19 c-1 -12 -7 -35 -15 -52 l-13 -30 -1 26 c-1 41 10 89
20 83 5 -3 9 -15 9 -27z m560 13 c0 -5 -4 -10 -10 -10 -5 0 -10 5 -10 10 0 6
5 10 10 10 6 0 10 -4 10 -10z m140 1 c0 -5 3 -18 6 -28 5 -16 4 -16 -10 1 -18
23 -20 36 -6 36 6 0 10 -4 10 -9z m-242 -66 c-9 -19 -14 -22 -25 -14 -15 13 0
39 23 39 11 0 11 -5 2 -25z m-314 -11 c11 -27 7 -37 -9 -24 -16 14 -20 40 -6
40 5 0 12 -7 15 -16z m35 -75 c-12 -27 -29 -49 -36 -49 -17 0 -9 39 11 55 7 6
18 26 26 45 11 27 15 31 18 16 2 -10 -6 -41 -19 -67z m663 73 c-9 -7 -8 -13 8
-27 29 -27 13 -39 -21 -15 -33 24 -37 37 -11 43 29 8 38 7 24 -1z m-602 -56
c0 -11 -32 -78 -35 -74 -7 7 18 78 27 78 4 0 8 -2 8 -4z m627 -49 c2 -26 0
-29 -8 -14 -6 10 -8 25 -5 33 8 21 11 17 13 -19z m-930 -87 c5 -98 -1 -136
-17 -110 -11 17 -13 169 -4 195 11 28 16 9 21 -85z m958 40 c3 -5 1 -10 -4
-10 -6 0 -11 5 -11 10 0 6 2 10 4 10 3 0 8 -4 11 -10z m35 -70 c6 -11 8 -20 6
-20 -3 0 -10 9 -16 20 -6 11 -8 20 -6 20 3 0 10 -9 16 -20z"/>
<path d="M7305 8572 c-85 -3 -88 -4 -60 -17 29 -13 28 -13 -40 -15 l-70 -3 65
-10 c52 -8 60 -12 40 -17 -21 -6 -18 -8 23 -15 26 -4 47 -11 47 -17 0 -5 -15
-6 -35 -2 -21 4 -41 2 -49 -5 -7 -6 -33 -15 -57 -20 -24 -5 -66 -16 -94 -24
l-50 -13 34 -7 c55 -11 91 -8 91 7 0 21 54 25 79 5 18 -15 19 -18 5 -23 -13
-5 -14 -9 -4 -21 9 -10 9 -15 1 -15 -6 0 -11 -11 -11 -25 0 -34 -22 -41 -56
-19 -26 18 -27 18 -20 -4 7 -21 5 -22 -18 -16 -15 3 -32 2 -39 -4 -6 -5 -38
-9 -69 -8 -41 2 -58 -2 -58 -10 0 -8 17 -14 43 -16 l42 -3 -56 -18 c-45 -15
-65 -17 -107 -9 -29 5 -67 6 -85 2 -33 -8 -15 -14 30 -10 13 1 30 -5 37 -13
11 -11 26 -13 55 -7 31 5 38 4 34 -7 -3 -7 -20 -13 -42 -13 -32 0 -60 5 -148
25 -15 3 -20 10 -17 20 5 12 -3 15 -37 15 l-44 -1 30 -17 30 -17 -40 -5 c-36
-4 -29 -7 60 -24 55 -10 109 -23 120 -28 17 -7 16 -8 -5 -3 -14 3 -86 8 -160
10 -128 5 -132 4 -82 -9 72 -18 75 -26 11 -27 -30 -1 -40 -4 -24 -6 67 -8 95
-14 95 -22 0 -4 -27 -5 -60 -3 -56 4 -59 3 -65 -21 -7 -27 -34 -40 -79 -37
-17 1 -26 -2 -22 -8 4 -6 -6 -12 -21 -15 -16 -2 7 -5 50 -6 74 -1 78 0 87 24
11 30 40 33 47 5 4 -15 14 -20 39 -20 19 0 34 -5 34 -11 0 -8 -17 -10 -51 -7
-38 4 -49 2 -45 -8 4 -10 -13 -12 -82 -8 -48 3 -95 7 -104 9 -10 2 -18 -1 -18
-6 0 -5 4 -9 9 -9 33 0 167 -23 174 -30 18 -17 -16 -21 -92 -10 -87 13 -126 9
-71 -8 35 -10 35 -10 -20 -12 -62 -1 -47 -12 33 -24 51 -8 65 -26 18 -26 -47
0 -121 -12 -121 -20 0 -4 57 -8 128 -8 70 -1 146 -5 170 -10 65 -14 71 -27 17
-35 -17 -2 -29 -10 -28 -16 3 -12 -27 -13 -105 -2 -49 7 -62 -2 -17 -11 19 -5
19 -5 1 -13 -10 -5 -46 -4 -78 1 -53 9 -60 8 -69 -8 -5 -10 -17 -18 -26 -18
-14 0 -14 2 3 14 23 18 19 22 -28 29 -42 6 -50 -4 -16 -20 l23 -10 -23 -12
c-19 -10 -20 -15 -11 -32 6 -12 8 -23 6 -26 -9 -8 -46 16 -57 38 -11 20 -33
20 -110 2 -23 -6 -21 -7 15 -15 22 -5 55 -12 73 -15 17 -3 32 -9 32 -14 0 -12
-47 -22 -62 -13 -7 4 -28 9 -48 11 l-35 3 40 -16 c22 -9 50 -18 63 -21 12 -3
22 -9 22 -14 0 -12 -23 -12 -35 0 -6 5 -28 6 -50 2 l-40 -8 50 -8 c28 -4 59
-11 70 -15 19 -8 19 -8 -5 -18 -14 -5 -40 -7 -59 -4 -31 4 -32 3 -22 -16 14
-26 14 -35 1 -27 -5 3 -7 0 -4 -9 3 -8 19 -20 35 -26 39 -17 37 -30 -6 -30
-19 0 -35 -4 -35 -10 0 -5 7 -7 15 -4 8 4 15 1 15 -5 0 -6 20 -16 45 -22 46
-12 76 -34 33 -25 -96 20 -158 16 -158 -10 0 -8 -1 -14 -2 -14 -56 -10 -120
-7 -198 9 -93 20 -134 21 -69 2 l34 -9 -46 -1 c-25 -1 -50 -6 -56 -12 -16 -16
-33 42 -43 156 -5 55 -13 123 -19 150 -5 28 -10 60 -10 73 -2 50 -6 62 -18 58
-7 -3 -10 1 -6 10 3 7 0 14 -7 14 -8 0 -10 -9 -6 -26 9 -34 43 -209 50 -259
13 -81 -15 -6 -50 138 -19 78 -37 148 -40 156 -5 14 -19 2 -153 -130 -65 -64
-139 -102 -256 -131 l-82 -21 10 -34 c12 -38 32 -52 50 -34 8 8 5 17 -12 35
-21 22 -21 24 -4 29 10 3 84 9 166 12 139 7 148 8 166 31 10 13 23 24 28 24
10 0 49 -70 45 -82 -1 -5 5 -11 13 -14 8 -4 15 -15 15 -25 0 -10 5 -19 11 -19
5 0 8 -4 4 -9 -3 -5 -1 -12 4 -15 12 -8 72 -118 67 -123 -2 -2 -55 -11 -117
-19 -62 -8 -116 -17 -118 -20 -5 -4 216 4 253 10 4 0 16 -12 25 -28 23 -41 40
-44 47 -7 4 17 10 31 15 31 4 0 9 12 11 26 7 60 68 58 68 -1 0 -33 2 -36 23
-28 37 13 200 10 205 -4 9 -30 77 -8 77 25 0 15 66 42 103 42 12 0 22 -5 22
-11 0 -6 7 -8 16 -5 20 8 64 -3 64 -16 0 -6 -19 -8 -44 -7 -43 4 -45 3 -55
-30 -5 -19 -8 -38 -5 -42 8 -13 -30 -27 -59 -22 -31 6 -37 23 -7 23 16 0 20 7
20 33 l-1 32 -18 -22 c-19 -23 -88 -46 -135 -45 -20 1 -26 -2 -18 -10 6 -6 8
-17 5 -24 -6 -15 -49 -19 -55 -5 -1 5 -27 12 -57 16 -34 5 -51 4 -48 -3 8 -12
-61 -22 -172 -23 -47 -1 -117 -5 -156 -9 -57 -6 -41 -7 90 -9 155 -2 185 -11
83 -25 -58 -9 -69 -22 -24 -29 21 -3 64 4 113 18 86 25 285 45 268 27 -5 -6
-45 -17 -88 -25 -43 -8 -81 -17 -84 -20 -3 -3 3 -17 14 -32 17 -24 22 -25 73
-19 30 3 57 7 60 7 3 1 6 -2 8 -8 2 -5 -31 -18 -74 -28 -42 -9 -82 -24 -88
-33 -7 -8 -52 -24 -101 -35 -49 -11 -92 -23 -95 -26 -3 -3 11 -2 30 2 54 11
25 -8 -58 -40 -40 -15 -71 -29 -69 -31 4 -4 153 45 230 75 16 6 41 11 56 11
15 0 31 4 37 9 11 11 84 26 84 17 0 -3 -17 -14 -38 -25 -21 -11 -44 -27 -51
-35 -12 -14 -10 -16 7 -16 14 0 20 -5 16 -14 -3 -8 -1 -17 4 -20 14 -8 3 -43
-14 -50 -8 -3 -17 1 -21 10 -4 12 -13 8 -39 -20 -19 -20 -34 -42 -34 -50 0
-26 -106 -103 -299 -217 -18 -11 -31 -23 -28 -26 6 -5 28 8 143 81 25 16 47
26 50 23 7 -7 -116 -157 -180 -219 -26 -27 -42 -48 -34 -48 8 0 25 12 39 26
28 31 98 84 111 84 5 0 2 -13 -7 -30 -9 -16 -13 -30 -11 -30 3 0 12 13 21 30
21 41 74 100 90 100 8 0 -12 -44 -51 -109 -60 -102 -119 -221 -110 -221 3 0
28 42 57 93 77 137 186 293 232 332 44 38 67 46 46 16 -90 -127 -239 -358
-275 -426 -36 -68 -19 -49 64 75 148 222 185 262 85 92 -100 -171 -249 -452
-239 -452 2 0 27 42 56 93 226 395 409 673 494 749 31 27 56 45 56 38 0 -6
-33 -50 -73 -99 -124 -150 -211 -275 -320 -463 -38 -65 -26 -61 18 7 53 80 64
79 20 -1 -45 -81 -40 -79 21 7 55 79 56 68 2 -30 -24 -42 -51 -94 -62 -116
-11 -22 -26 -53 -34 -70 -26 -54 3 -12 62 90 74 126 255 399 296 445 l31 35
-17 -35 c-9 -19 -54 -92 -100 -162 -45 -70 -75 -124 -66 -121 9 4 -4 -21 -29
-55 -24 -33 -59 -82 -78 -108 -53 -73 -19 -42 54 48 62 76 86 88 47 23 -35
-58 -83 -145 -79 -145 6 0 101 144 151 228 21 34 40 62 43 62 2 0 -4 -15 -15
-32 -11 -18 -54 -91 -97 -163 -43 -71 -88 -143 -100 -160 -28 -38 -38 -55 -31
-55 3 0 38 44 78 98 40 53 81 106 91 117 10 11 42 57 70 102 29 46 55 83 58
83 4 0 -22 -65 -57 -145 -35 -79 -64 -148 -64 -152 0 -5 14 13 30 40 17 26 32
47 35 47 2 0 -3 -21 -11 -47 -48 -157 -15 -92 49 97 25 74 61 171 80 215 19
44 47 118 62 165 16 47 35 92 43 100 8 8 12 10 9 4 -6 -10 -22 -94 -33 -174
-7 -43 -73 -242 -85 -254 -5 -6 -9 -17 -9 -25 1 -13 4 -12 15 3 22 29 18 5
-15 -91 -35 -99 -36 -111 -13 -92 15 13 16 9 10 -51 -8 -85 2 -53 48 150 20
85 45 189 56 230 28 100 90 300 93 300 5 0 -6 -117 -15 -155 -6 -22 -12 -63
-14 -91 -2 -27 -15 -91 -29 -142 -28 -99 -30 -112 -18 -112 5 0 19 42 31 93
12 50 30 121 41 157 10 36 21 77 24 91 3 15 13 30 22 33 22 8 31 -1 16 -16 -7
-7 -12 -21 -12 -32 0 -12 -9 -50 -20 -85 -22 -70 -20 -90 4 -43 23 44 35 48
31 10 -2 -18 -6 -58 -9 -88 -8 -96 10 -22 30 120 21 152 27 145 41 -45 6 -86
8 -94 13 -53 3 26 9 50 12 54 7 7 23 -44 39 -131 7 -33 16 -64 22 -70 6 -7 8
-2 4 15 -8 36 -11 299 -4 307 4 3 31 -45 62 -108 59 -124 66 -129 35 -29 -26
85 -24 97 5 35 l24 -50 -4 55 c-4 40 -2 48 4 30 5 -14 23 -50 41 -80 34 -61
32 -35 -6 49 -26 57 -29 71 -16 71 5 0 19 -29 31 -65 13 -36 31 -75 41 -88 9
-12 32 -51 51 -87 18 -36 34 -58 36 -50 2 9 -9 66 -25 128 -16 62 -25 112 -21
112 4 0 11 -9 14 -20 3 -11 10 -20 15 -20 5 0 -4 30 -21 66 -16 37 -28 69 -25
71 4 4 56 -85 56 -97 0 -4 7 -13 15 -20 13 -11 13 -8 4 21 -6 19 -15 43 -20
54 -4 11 -10 27 -11 35 -2 8 -6 17 -10 20 -3 3 -9 19 -13 35 -6 29 -6 29 9 11
9 -11 25 -45 37 -75 17 -47 20 -77 20 -189 -2 -151 13 -172 24 -34 4 48 8 96
10 107 2 11 4 33 4 48 1 34 21 26 21 -8 0 -13 4 -26 9 -29 11 -7 51 -136 51
-166 0 -12 7 -28 15 -36 8 -9 15 -24 15 -34 0 -10 5 -22 11 -25 6 -4 10 -1 8
6 -1 8 -1 25 0 39 l2 25 15 -25 15 -25 -6 25 c-12 48 -17 119 -10 137 6 14 11
7 25 -32 23 -62 25 -35 5 68 -8 43 -14 104 -14 135 l2 57 8 -55 c10 -72 36
-180 45 -188 3 -4 4 31 1 78 -5 78 -4 83 9 60 14 -24 15 -22 9 33 -8 83 10 70
24 -18 13 -80 30 -100 32 -37 1 20 5 51 9 67 l7 30 11 -27 c6 -16 16 -28 21
-28 10 0 7 21 -16 93 -15 47 -10 130 6 111 15 -18 54 -151 66 -229 l12 -80 8
60 c4 33 5 117 1 187 -3 70 -4 128 -1 128 2 0 14 -17 25 -37 l21 -38 -7 35
c-8 41 -55 154 -66 158 -11 5 -10 36 2 48 8 8 8 19 0 38 -5 15 -10 34 -10 42
0 25 21 15 32 -17 8 -22 15 -28 27 -23 46 19 57 16 97 -31 21 -26 47 -57 57
-68 10 -11 20 -32 24 -46 8 -37 24 -55 34 -40 10 17 74 -52 101 -111 15 -32
22 -40 25 -27 4 14 8 16 19 6 14 -12 30 -1 129 85 34 29 50 34 41 11 -3 -8 -1
-15 4 -15 6 0 10 5 10 11 0 6 14 -1 31 -15 17 -14 35 -26 41 -26 6 0 8 -10 4
-24 -10 -38 11 -40 43 -4 35 38 37 46 14 55 -10 4 -36 18 -58 32 -22 14 -43
26 -47 27 -5 1 -10 2 -13 3 -3 0 0 11 6 24 31 57 142 181 153 170 3 -4 2 -11
-3 -17 -6 -7 -3 -16 6 -25 13 -12 15 -12 11 0 -2 7 3 38 12 68 15 52 18 56 55
63 76 15 92 27 124 90 32 62 42 116 19 101 -7 -4 -17 -8 -23 -8 -5 0 -27 -6
-48 -14 -21 -7 -45 -10 -53 -7 -18 7 -64 -63 -126 -190 -24 -48 -55 -102 -70
-119 -15 -16 -61 -69 -103 -117 -42 -48 -88 -96 -103 -107 l-28 -19 -39 35
c-22 19 -53 47 -70 63 -51 47 -300 310 -303 320 -2 5 6 17 17 27 12 9 21 24
21 33 -1 14 -116 108 -126 103 -2 -2 -16 10 -31 25 -16 16 -57 50 -92 77 -38
29 -69 61 -77 81 -9 22 -21 34 -34 34 -10 0 -22 5 -26 12 -5 8 -2 9 9 5 9 -3
19 -2 22 4 4 5 11 7 16 4 13 -9 11 9 -2 22 -15 15 -3 46 13 38 7 -4 5 0 -6 9
-18 14 -18 16 3 42 21 26 22 27 27 7 4 -13 13 -20 29 -19 19 1 48 33 132 145
59 79 115 155 124 170 8 14 34 46 58 71 30 32 41 51 39 70 -3 22 1 25 27 26
51 1 54 3 71 37 9 17 23 36 30 40 8 4 14 13 14 20 0 7 17 31 38 54 20 23 51
59 69 80 17 21 58 67 92 103 54 58 58 66 43 78 -18 14 -19 11 36 87 l33 45
-167 0 c-165 0 -167 0 -150 -19 20 -22 14 -41 -13 -41 -25 0 -46 26 -30 35 19
13 -12 25 -63 25 -28 0 -48 -5 -51 -12 -4 -9 -8 -9 -14 -3 -5 6 -46 9 -98 7z
m454 -38 c18 -4 31 -13 31 -21 0 -10 -7 -14 -20 -10 -10 3 -21 0 -23 -6 -6
-18 -37 1 -37 23 0 22 3 23 49 14z m-336 -39 c22 -16 18 -51 -5 -49 -11 1 -14
-4 -11 -13 4 -10 0 -14 -13 -12 -10 1 -27 -1 -37 -6 -21 -9 -87 2 -87 15 0 5
20 8 45 5 43 -3 45 -2 39 17 -5 17 -3 19 18 13 15 -4 18 -3 10 3 -14 10 -6 42
12 42 6 0 19 -7 29 -15z m180 -102 c40 -20 43 -38 13 -82 -40 -57 -78 -90
-135 -116 -67 -32 -65 -23 5 16 36 21 51 34 43 39 -11 8 -10 24 5 61 4 9 2 16
-6 16 -7 1 -75 2 -151 3 -123 2 -135 4 -111 16 29 15 74 19 74 6 0 -4 24 -8
54 -8 30 1 53 3 51 7 -2 3 17 6 43 7 87 3 115 16 60 27 -42 9 -50 14 -42 26 7
12 57 3 97 -18z m-272 -159 c28 -25 25 -54 -5 -54 -38 0 -76 18 -76 35 0 9
-12 21 -27 27 l-28 11 30 7 c36 8 81 -3 106 -26z m-173 -19 c-16 -16 -27 -18
-95 -16 -29 0 -53 5 -53 9 0 5 19 15 43 22 60 18 59 18 90 7 24 -8 26 -12 15
-22z m136 -46 c12 -11 -12 -39 -34 -39 -24 0 -28 7 -22 36 4 20 9 23 26 18 11
-3 25 -10 30 -15z m-100 -26 c9 -21 -2 -31 -42 -39 -39 -8 -43 9 -9 37 28 23
43 24 51 2z m-365 -71 c-5 -2 -17 2 -26 10 -15 12 -15 11 -2 -9 16 -26 6 -41
-16 -23 -12 10 -15 10 -15 -1 -1 -11 -29 56 -30 69 0 1 10 6 23 11 18 7 27 3
49 -23 14 -17 22 -33 17 -34z m-195 -1 c3 -5 15 -7 25 -4 10 3 22 -1 26 -8 6
-9 -1 -11 -31 -6 -21 4 -45 7 -51 7 -7 0 -13 5 -13 10 0 12 37 13 44 1z m103
-33 c-3 -8 -6 -5 -6 6 -1 11 2 17 5 13 3 -3 4 -12 1 -19z m227 -58 c7 0 21 -6
32 -14 17 -14 15 -14 -29 -11 -27 3 -53 8 -59 11 -14 9 13 25 30 19 8 -3 19
-5 26 -5z m158 -21 c34 3 37 -15 7 -53 -21 -27 -23 -27 -110 -17 -4 1 -9 10
-12 20 -3 14 -1 18 9 14 8 -3 14 -9 14 -14 0 -5 7 -9 15 -9 10 0 15 10 15 28
0 33 8 44 24 35 6 -4 23 -6 38 -4z m-412 -39 c11 -7 3 -10 -30 -10 -33 0 -41
3 -30 10 8 5 22 10 30 10 8 0 22 -5 30 -10z m133 -15 c11 -7 25 -11 33 -8 8 3
14 0 14 -7 0 -6 -5 -8 -12 -4 -8 5 -9 0 -4 -17 15 -49 13 -54 -26 -57 -21 -2
-38 1 -38 6 0 5 -11 21 -25 36 -32 35 -26 66 13 66 15 0 35 -7 45 -15z m-336
-1 c-3 -3 -12 -4 -19 -1 -8 3 -5 6 6 6 11 1 17 -2 13 -5z m488 -4 c4 -6 -9
-10 -32 -9 -34 1 -35 2 -13 9 35 11 38 11 45 0z m245 0 c0 -5 -7 -10 -16 -10
-8 0 -12 5 -9 10 3 6 10 10 16 10 5 0 9 -4 9 -10z m-583 -46 c-3 -3 -12 -4
-19 -1 -8 3 -5 6 6 6 11 1 17 -2 13 -5z m400 -10 c8 -21 -23 -52 -38 -37 -8 8
-8 17 0 32 14 25 29 27 38 5z m-242 -64 c4 -6 -7 -10 -27 -9 -31 1 -32 1 -8 9
14 4 26 8 27 9 1 1 5 -3 8 -9z m58 3 c-7 -2 -21 -2 -30 0 -10 3 -4 5 12 5 17
0 24 -2 18 -5z m-154 -27 c-2 -2 -17 -6 -34 -10 -22 -5 -26 -4 -15 4 14 9 59
15 49 6z m-82 -22 c-3 -3 -12 -4 -19 -1 -8 3 -5 6 6 6 11 1 17 -2 13 -5z m-70
-20 c-3 -3 -12 -4 -19 -1 -8 3 -5 6 6 6 11 1 17 -2 13 -5z m422 -7 c13 -16 -7
-67 -26 -67 -18 0 -21 12 -11 48 9 35 19 40 37 19z m-289 -6 c0 -5 -9 -13 -20
-16 -23 -7 -63 3 -56 14 7 11 76 13 76 2z m-345 -11 c-26 -11 -55 -12 -55 -2
0 4 17 9 38 10 29 1 33 -1 17 -8z m220 -14 l30 -13 -32 -7 c-36 -8 -93 1 -93
14 0 8 24 15 55 18 6 1 24 -5 40 -12z m-236 -37 c40 -14 40 -31 -1 -27 -19 2
-33 -2 -35 -9 -3 -7 0 -13 6 -13 32 0 -8 -49 -40 -50 -21 0 -18 39 4 55 22 16
21 21 -5 29 -19 5 -21 8 -8 16 20 13 40 12 79 -1z m374 -15 c9 -4 17 -10 17
-14 0 -4 -8 -10 -17 -14 -10 -3 -23 -8 -29 -11 -6 -3 -14 4 -17 16 -7 27 0 42
16 35 7 -4 20 -9 30 -12z m-293 -24 c0 -5 -7 -10 -16 -10 -8 0 -12 5 -9 10 3
6 10 10 16 10 5 0 9 -4 9 -10z m600 3 c0 -10 -32 -43 -42 -43 -5 0 -1 11 8 25
15 23 34 33 34 18z m-656 -65 c15 -20 14 -24 -6 -45 -25 -27 -43 -29 -52 -8
-3 8 -1 15 4 15 6 0 10 5 10 11 0 5 -4 7 -10 4 -5 -3 -10 1 -10 9 0 14 25 35
42 36 4 0 14 -10 22 -22z m51 2 c3 -5 -3 -10 -14 -10 -12 0 -21 5 -21 10 0 6
6 10 14 10 8 0 18 -4 21 -10z m222 -32 c-7 -19 11 -60 23 -53 6 4 8 15 5 25
-9 27 10 33 46 15 l31 -17 -28 -29 c-18 -19 -34 -27 -44 -23 -20 8 -31 9 -56
0 -18 -5 -24 -1 -33 26 -10 29 -9 34 11 50 27 20 52 24 45 6z m-72 -59 c9 -39
3 -44 -25 -19 -19 16 -21 22 -10 35 19 22 28 18 35 -16z m-300 -19 c4 -6 -6
-10 -22 -10 -22 0 -25 2 -13 10 19 12 27 12 35 0z m500 -10 c26 -29 10 -81
-29 -91 -16 -5 -34 -6 -39 -2 -19 11 18 113 42 113 4 0 16 -9 26 -20z m-804
-88 c-7 -2 -18 1 -23 6 -8 8 -4 9 13 5 13 -4 18 -8 10 -11z m1109 -2 c0 -5 -4
-10 -10 -10 -5 0 -10 5 -10 10 0 6 5 10 10 10 6 0 10 -4 10 -10z m-1070 -10
c0 -5 -2 -10 -4 -10 -3 0 -8 5 -11 10 -3 6 -1 10 4 10 6 0 11 -4 11 -10z m875
-35 c0 -29 -30 -30 -43 -1 -10 23 -9 25 16 23 19 -2 27 -8 27 -22z m-271 -14
c9 -14 -4 -41 -20 -41 -8 0 -14 6 -15 13 0 10 -2 10 -6 0 -6 -16 -23 -17 -23
-2 0 25 52 49 64 30z m-274 -32 c0 -10 -42 -19 -54 -12 -5 4 -1 9 9 13 25 9
45 8 45 -1z m910 -49 c0 -5 -2 -10 -4 -10 -3 0 -8 5 -11 10 -3 6 -1 10 4 10 6
0 11 -4 11 -10z m-38 -22 c-7 -7 -12 -8 -12 -2 0 14 12 26 19 19 2 -3 -1 -11
-7 -17z m-1060 -53 c-5 -27 -13 -34 -42 -37 -17 -2 -25 3 -28 15 -5 26 18 48
47 45 20 -2 25 -8 23 -23z m45 19 c-3 -3 -12 -4 -19 -1 -8 3 -5 6 6 6 11 1 17
-2 13 -5z m588 -38 c61 -21 76 -66 50 -153 -7 -21 -5 -22 51 -18 89 7 116 15
110 31 -7 20 4 18 19 -3 12 -16 15 -16 32 -2 10 8 26 14 36 11 14 -3 17 -12
15 -40 -3 -34 -7 -38 -40 -46 -35 -9 -38 -12 -38 -45 0 -23 -3 -31 -9 -23 -6
10 -11 5 -21 -17 -6 -16 -10 -36 -7 -43 3 -7 6 -3 6 9 1 22 21 44 21 23 0 -20
-21 -51 -30 -45 -11 7 -86 -74 -82 -87 1 -5 -2 -7 -8 -3 -5 3 -10 2 -10 -3 0
-16 -77 -35 -116 -29 -73 12 -159 109 -196 219 -16 51 -18 68 -9 110 6 27 11
64 11 82 0 50 32 74 105 79 33 2 62 4 65 5 3 1 23 -4 45 -12z m482 -48 c-3 -8
-6 -5 -6 6 -1 11 2 17 5 13 3 -3 4 -12 1 -19z m-1117 -43 c0 -6 -56 -35 -67
-35 -14 1 39 40 53 40 8 0 14 -2 14 -5z m-71 -112 c-40 -51 -129 -117 -129
-96 0 10 14 23 84 76 54 41 66 46 45 20z m1186 -59 c8 -74 1 -99 -10 -32 -3
24 -8 55 -11 71 -3 15 -1 27 4 27 5 0 13 -30 17 -66z m-1135 21 c-7 -8 -17
-15 -22 -15 -6 0 -5 7 2 15 7 8 17 15 22 15 6 0 5 -7 -2 -15z m1040 -49 c-1
-16 -5 -12 -15 13 -19 42 -19 52 0 27 8 -11 15 -29 15 -40z m164 -66 c7 -24 6
-24 -8 -6 -9 11 -16 29 -16 40 1 17 2 18 9 6 5 -8 12 -26 15 -40z m-1177 -23
c-32 -47 -137 -177 -143 -177 -3 0 15 28 38 61 24 34 49 71 57 83 23 33 54 66
62 66 5 0 -2 -15 -14 -33z m-246 6 c-16 -30 -138 -153 -151 -153 -9 0 -8 7 4
23 9 12 27 39 41 59 35 53 131 116 106 71z m1299 -2 c0 -6 -4 -13 -10 -16 -5
-3 -10 1 -10 9 0 9 5 16 10 16 6 0 10 -4 10 -9z m-790 -63 c0 -19 -18 -43 -25
-36 -4 3 -2 16 5 27 12 24 20 27 20 9z m264 -61 c14 -10 16 -21 11 -51 -7 -33
-10 -37 -33 -34 -23 3 -27 8 -28 38 -2 33 10 60 25 60 4 0 15 -6 25 -13z m293
-9 c-3 -8 -6 -5 -6 6 -1 11 2 17 5 13 3 -3 4 -12 1 -19z m-1073 -28 c-10 -16
-20 -28 -22 -26 -4 5 28 56 35 56 2 0 -4 -13 -13 -30z m1293 8 c-3 -8 -6 -5
-6 6 -1 11 2 17 5 13 3 -3 4 -12 1 -19z m-1497 -38 c-6 -11 -20 -25 -32 -31
-21 -11 -21 -11 1 20 25 35 48 43 31 11z m1279 -55 c-1 -35 -2 -37 -9 -15 -4
14 -8 39 -9 55 0 23 2 26 9 15 5 -8 9 -33 9 -55z m-363 -1 c8 -20 13 -38 10
-41 -4 -4 -36 61 -36 73 0 15 13 -2 26 -32z m-506 -14 c-16 -31 -23 -19 -9 16
6 16 13 24 16 17 2 -7 -1 -22 -7 -33z m929 -92 c0 -51 -3 -85 -7 -76 -7 17 -4
168 4 168 2 0 4 -42 3 -92z m-968 20 c-11 -18 -21 -29 -21 -25 0 13 33 67 38
62 3 -2 -5 -19 -17 -37z m926 -10 c-3 -8 -6 -5 -6 6 -1 11 2 17 5 13 3 -3 4
-12 1 -19z"/>
<path d="M6995 6920 c-3 -5 1 -10 9 -10 9 0 16 5 16 10 0 6 -4 10 -9 10 -6 0
-13 -4 -16 -10z"/>
<path d="M8868 8563 c-9 -10 -25 -33 -36 -51 -19 -32 -19 -36 -3 -63 l16 -29
-47 -47 c-44 -44 -49 -46 -61 -30 -15 22 -13 25 -181 -193 -66 -85 -148 -192
-183 -237 -35 -44 -63 -85 -63 -90 0 -4 16 -21 35 -36 19 -15 35 -32 35 -38 0
-5 -14 -18 -30 -27 -17 -9 -33 -25 -36 -34 -7 -23 -64 -79 -73 -74 -4 3 -8 -2
-8 -10 0 -12 7 -14 26 -9 63 16 82 17 96 5 12 -10 15 -9 15 8 0 11 -4 32 -9
45 -6 14 -7 27 -4 31 13 13 43 -17 54 -54 7 -22 16 -40 21 -40 5 0 18 15 28
34 38 63 83 27 109 -84 15 -67 13 -126 -5 -144 -19 -19 -43 -19 -109 -2 -63
17 -66 12 -54 -79 5 -39 14 -113 19 -165 11 -105 32 -174 59 -193 10 -6 28
-28 40 -47 l21 -35 0 213 c0 134 4 212 10 212 6 0 10 -3 10 -7 0 -5 14 -23 31
-42 22 -24 33 -30 39 -21 10 17 41 9 54 -14 24 -40 83 -95 135 -124 l54 -31
17 22 c24 30 60 107 60 127 0 20 -28 46 -102 95 -61 39 -76 60 -52 69 9 3 12
11 8 17 -7 12 16 10 126 -6 32 -5 29 -1 -10 11 -13 5 -13 6 0 14 8 6 27 10 42
10 15 0 67 13 115 29 49 16 158 48 243 71 242 65 363 120 356 164 -2 11 -9 22
-17 24 -11 3 -11 1 1 -7 21 -15 -5 -14 -29 0 -27 17 -55 7 -169 -65 -57 -35
-124 -69 -150 -76 -26 -6 -60 -18 -77 -25 -213 -98 -377 -126 -399 -70 -17 45
-8 55 100 107 113 54 184 111 184 146 0 27 -32 57 -92 88 -26 13 -59 39 -74
58 l-28 34 -39 -21 c-22 -12 -50 -28 -64 -35 -13 -7 -31 -12 -41 -10 -13 3 -8
13 27 51 24 26 65 62 90 79 163 112 209 140 260 159 182 69 250 87 294 75 23
-5 77 -80 92 -125 3 -11 15 -23 26 -26 10 -4 19 -12 19 -18 0 -7 5 -4 11 6 14
23 129 25 129 2 0 -12 15 -15 73 -15 l72 0 -34 -21 c-48 -29 -33 -33 38 -9 67
22 91 25 91 10 0 -5 -17 -10 -37 -10 -21 0 -45 -5 -53 -11 -11 -7 -3 -8 29 -4
73 12 45 -21 -64 -75 -25 -12 -33 -20 -21 -20 11 0 16 -3 13 -6 -4 -4 2 -19
13 -34 11 -16 20 -36 20 -45 0 -12 5 -15 20 -10 11 4 20 2 20 -4 0 -6 -6 -11
-14 -11 -14 0 -66 -61 -66 -78 0 -6 -20 -31 -45 -56 -25 -26 -45 -51 -45 -56
0 -5 14 -7 32 -3 22 4 29 3 24 -5 -4 -7 -15 -12 -26 -12 -10 0 -20 -7 -24 -15
-3 -8 -11 -15 -19 -15 -7 0 -26 -13 -42 -30 -32 -34 -26 -37 34 -15 22 8 63
18 91 23 40 8 50 7 50 -5 0 -7 -6 -15 -12 -17 -54 -15 -176 -40 -188 -39 -16
2 -31 -17 -24 -29 3 -4 13 -4 23 1 10 6 23 6 32 0 11 -7 9 -9 -8 -9 -12 0 -25
-4 -28 -10 -3 -5 -17 -10 -31 -10 -24 0 -64 -31 -64 -50 0 -5 23 -10 50 -10
70 0 62 -15 -16 -30 -42 -8 -76 -22 -95 -38 -35 -29 -31 -38 17 -33 55 4 39
-15 -24 -29 -54 -11 -60 -10 -95 10 -31 19 -37 20 -37 6 0 -9 -4 -16 -10 -16
-5 0 -10 -5 -10 -10 0 -11 -98 -138 -219 -285 -56 -68 -80 -89 -95 -87 -15 2
-5 -11 34 -46 48 -44 57 -48 71 -36 25 23 33 16 14 -12 -21 -33 -7 -46 44 -39
40 5 47 10 33 27 -6 7 -11 18 -11 23 -3 27 -14 45 -23 39 -7 -4 -8 -2 -4 4 5
9 12 9 26 0 10 -7 16 -16 14 -20 -10 -16 29 -21 63 -9 19 7 36 11 39 8 2 -2
-24 -26 -58 -52 -35 -27 -67 -52 -72 -57 -11 -9 21 0 109 31 88 32 101 19 20
-19 -38 -18 -65 -35 -58 -37 7 -2 21 0 32 6 11 6 26 11 33 10 7 0 -31 -22 -84
-50 -54 -27 -98 -51 -98 -54 0 -2 31 7 69 20 38 14 75 25 84 25 8 0 40 12 71
26 32 14 59 24 62 21 11 -10 -96 -65 -184 -95 -139 -47 -195 -83 -73 -46 29 8
55 13 58 11 11 -12 -97 -73 -147 -83 -43 -9 -48 -12 -22 -13 17 -1 32 -5 32
-11 0 -5 -3 -10 -7 -10 -5 0 -19 -10 -33 -21 l-25 -20 25 7 c14 5 37 9 51 9
15 1 40 7 55 13 48 19 196 52 205 46 5 -3 18 0 29 6 12 6 31 10 43 8 17 -2 6
-13 -53 -50 -41 -26 -79 -51 -85 -55 -5 -5 -26 -19 -45 -33 -49 -33 -102 -80
-92 -80 5 0 58 31 119 69 153 96 163 100 261 116 119 20 117 20 92 -15 -19
-27 -27 -30 -78 -32 l-57 -2 48 -3 c26 -2 47 -7 47 -12 0 -21 -31 -31 -100
-33 -70 -1 -72 -2 -25 -8 47 -6 48 -6 20 -14 -16 -4 -73 -19 -125 -33 -52 -14
-105 -28 -117 -30 -12 -3 -28 -12 -35 -20 -10 -13 -6 -14 33 -9 24 4 98 9 164
12 154 8 180 10 191 16 19 11 146 20 140 10 -3 -6 0 -13 6 -15 7 -3 -3 -6 -22
-7 -19 -1 -44 -3 -55 -5 -11 -2 -42 -7 -70 -10 -102 -10 -175 -21 -180 -27 -6
-6 68 -2 153 7 23 2 42 3 42 1 0 -3 -30 -14 -66 -26 -36 -12 -64 -24 -62 -26
2 -2 55 5 117 16 62 11 117 17 122 14 21 -13 5 -22 -48 -28 -88 -10 -237 -38
-245 -45 -4 -3 50 -1 120 4 70 6 137 9 150 7 20 -4 18 -6 -15 -24 -21 -11 -85
-45 -143 -76 -58 -31 -125 -66 -150 -78 -67 -33 -38 -28 90 15 63 21 119 36
125 33 5 -3 4 -7 -3 -10 -7 -2 -9 -9 -5 -15 3 -7 3 -9 -2 -5 -9 8 -65 -28 -65
-42 0 -5 42 14 93 42 50 28 119 63 152 79 l60 30 -45 -42 c-25 -23 -98 -82
-162 -131 -65 -50 -118 -92 -118 -94 0 -8 8 -4 42 24 20 15 46 34 58 42 12 8
36 25 53 37 41 31 46 21 12 -27 -43 -62 -25 -56 34 10 29 33 58 60 64 60 7 0
22 15 35 33 l22 32 0 -27 c0 -18 -16 -44 -50 -81 -27 -30 -50 -60 -50 -66 0
-6 -5 -11 -11 -11 -16 0 -79 -62 -79 -79 0 -10 5 -9 18 5 33 37 119 103 125
97 4 -3 9 2 13 11 8 20 184 159 192 151 9 -8 -301 -324 -511 -522 -102 -96
-121 -123 -38 -55 67 56 80 62 58 29 -36 -55 3 -24 80 62 43 49 79 85 81 80 2
-5 -6 -22 -17 -38 -49 -68 -15 -35 59 57 71 89 239 255 254 253 4 -1 20 15 37
34 17 19 36 35 41 35 12 0 -16 -48 -41 -70 -24 -22 -141 -166 -186 -230 -31
-42 -206 -252 -235 -280 -3 -3 -12 -14 -19 -25 -8 -11 8 2 37 30 56 53 65 49
31 -12 l-21 -38 21 25 c12 14 56 73 99 132 42 59 82 108 88 108 6 0 -15 -53
-47 -117 -52 -107 -121 -273 -114 -273 2 0 20 30 41 68 78 141 146 253 151
248 3 -2 -23 -57 -56 -121 -34 -64 -61 -119 -61 -123 0 -4 22 27 48 68 50 80
67 77 32 -5 -11 -26 -18 -50 -15 -53 3 -3 10 9 16 27 13 37 29 26 29 -21 0
-16 6 -28 13 -28 9 0 8 -3 -2 -9 -11 -7 -10 -11 7 -20 11 -6 29 -11 39 -11 10
0 26 -13 35 -29 16 -29 15 -32 -12 -88 -28 -56 -36 -83 -24 -83 11 0 59 64 87
114 15 28 25 40 21 26 -3 -14 -12 -35 -20 -47 -36 -57 4 -73 48 -21 21 25 28
29 28 16 0 -10 -4 -18 -10 -18 -5 0 -10 -4 -10 -10 0 -18 49 -11 59 9 6 10 8
21 5 23 -2 3 13 17 35 31 21 14 42 23 45 20 3 -4 6 -24 6 -46 l0 -40 25 48
c24 49 24 49 25 372 0 197 -3 323 -9 323 -6 0 -6 12 0 32 5 18 9 180 9 359 0
273 -2 329 -15 339 -19 16 -45 9 -59 -15 -6 -11 -14 -22 -17 -25 -3 -3 -14
-20 -23 -37 -9 -18 -22 -33 -29 -33 -6 0 -3 -7 7 -15 28 -21 6 -19 -24 2 -50
34 -61 51 -76 114 -17 68 -34 98 -34 62 0 -12 5 -25 10 -28 6 -3 10 -16 10
-28 -1 -17 -4 -14 -16 13 -11 26 -13 44 -6 71 5 19 5 45 1 57 -5 13 -4 22 1
22 6 0 10 9 10 21 0 51 64 111 130 123 20 3 57 2 83 -3 l47 -8 0 888 0 888
-115 -1 c-97 -1 -112 -3 -97 -14 16 -12 15 -13 -5 -14 -24 0 -31 -14 -13 -25
15 -10 2 -25 -23 -26 -17 -1 -15 -3 11 -11 17 -6 32 -14 32 -18 0 -3 -28 -14
-62 -23 l-63 -16 50 5 c146 15 160 16 147 3 -7 -7 -61 -21 -120 -30 -99 -16
-103 -17 -52 -19 30 -1 47 -4 37 -7 -9 -2 -15 -9 -12 -14 10 -16 -35 -26 -232
-54 l-191 -28 -59 35 c-32 19 -89 52 -128 73 -38 21 -123 69 -188 108 -89 53
-121 67 -129 59 -9 -9 -8 -12 3 -12 8 0 24 -8 35 -17 26 -23 47 -35 174 -100
58 -30 114 -64 126 -76 22 -24 21 -47 -2 -47 -8 0 -14 -4 -14 -9 0 -10 -154
-91 -174 -91 -7 0 -21 -9 -31 -20 -11 -12 -26 -18 -35 -15 -10 3 -23 -1 -30
-10 -7 -8 -18 -15 -26 -15 -14 0 -213 -100 -235 -118 -50 -42 -77 -60 -96 -66
-19 -6 -22 -2 -28 38 -4 24 -2 59 3 78 6 18 13 49 16 68 11 64 120 232 214
331 l44 47 -38 26 c-46 31 -47 31 -66 9z m1231 -69 c-11 -10 -24 -13 -43 -8
-34 8 -16 24 29 24 26 0 28 -1 14 -16z m46 -4 c-3 -5 -10 -10 -16 -10 -5 0 -9
5 -9 10 0 6 7 10 16 10 8 0 12 -4 9 -10z m-168 -186 c-3 -3 -12 -4 -19 -1 -8
3 -5 6 6 6 11 1 17 -2 13 -5z m-102 -42 l40 -8 -60 -18 c-61 -19 -91 -36 -64
-36 8 -1 3 -7 -11 -15 -23 -13 -19 -14 43 -8 75 7 95 -10 25 -21 -60 -9 -177
-49 -157 -54 21 -4 237 26 252 35 5 3 7 1 3 -5 -3 -5 -25 -13 -49 -17 -23 -4
-70 -15 -105 -26 -34 -10 -91 -21 -125 -25 l-64 -6 -21 50 c-12 28 -22 54 -22
58 0 4 12 21 28 37 25 26 26 29 10 41 -10 7 -15 16 -11 19 9 9 237 8 288 -1z
m210 -12 c-3 -5 -15 -10 -26 -10 -10 0 -19 5 -19 10 0 6 12 10 26 10 14 0 23
-4 19 -10z m-84 -206 c-36 -7 -67 -12 -69 -9 -7 7 61 23 98 23 26 0 18 -3 -29
-14z m73 -33 c7 -10 -74 -21 -89 -12 -5 3 6 9 25 12 54 10 58 10 64 0z m-1460
-171 c-5 -79 -11 -101 -31 -127 -24 -34 -43 -42 -43 -21 0 6 -10 31 -21 55
-20 42 -21 46 -5 87 9 24 30 58 46 76 16 18 33 43 36 54 14 45 25 -27 18 -124z
m1426 125 c0 -2 -10 -10 -22 -16 -21 -11 -22 -11 -9 4 13 16 31 23 31 12z m90
-64 c-45 -14 -125 -22 -115 -12 9 9 57 17 115 18 l25 1 -25 -7z m55 -22 c-8
-12 -45 -12 -45 0 0 10 30 20 43 14 4 -3 5 -9 2 -14z m-245 -37 c0 -5 -11 -14
-25 -20 -26 -12 -33 -4 -13 16 14 14 38 16 38 4z m94 -1 c3 -5 -6 -11 -19 -14
-27 -5 -44 8 -23 16 21 8 36 8 42 -2z m-174 -151 c0 -5 -4 -10 -10 -10 -5 0
-10 5 -10 10 0 6 5 10 10 10 6 0 10 -4 10 -10z m60 -55 c0 -13 -66 -36 -98
-33 l-37 3 30 17 c27 15 105 25 105 13z m-5 -65 c-3 -5 -16 -10 -28 -9 -21 0
-21 1 -2 9 28 12 37 12 30 0z m70 -59 c-6 -5 -30 -11 -55 -15 -41 -5 -43 -5
-26 9 21 16 97 22 81 6z m-75 -61 c-8 -5 -28 -10 -45 -10 -23 0 -27 3 -15 10
8 5 29 10 45 10 23 0 27 -3 15 -10z m-100 -10 c0 -14 -46 -24 -67 -15 -15 7
-13 9 12 15 44 11 55 11 55 0z m190 -25 c0 -8 -7 -15 -15 -15 -26 0 -18 20 13
29 1 1 2 -6 2 -14z m-173 -41 c-3 -3 -12 -4 -19 -1 -8 3 -5 6 6 6 11 1 17 -2
13 -5z m-62 -14 c34 -14 -3 -21 -91 -18 l-79 3 45 11 c54 14 98 16 125 4z
m-244 -190 c17 0 28 -4 24 -9 -3 -5 4 -12 15 -16 36 -11 21 -21 -50 -33 -96
-16 -94 -17 -69 28 15 26 28 39 37 35 7 -3 27 -5 43 -5z m223 -70 c-5 -5 -30
-11 -54 -14 -25 -2 -81 -10 -125 -18 l-80 -13 60 -5 60 -5 -75 -13 c-150 -26
-170 -29 -170 -24 0 2 11 15 24 27 14 13 23 25 21 27 -2 2 4 4 13 5 9 1 37 6
62 12 42 10 178 27 245 30 19 1 26 -2 19 -9z m-227 -106 c-3 -3 -12 -4 -19 -1
-8 3 -5 6 6 6 11 1 17 -2 13 -5z m-152 -25 c7 12 85 12 85 0 0 -4 -26 -17 -57
-29 -32 -13 -62 -27 -67 -31 -5 -4 -15 -5 -24 -2 -9 4 -13 2 -9 -4 4 -6 0 -13
-8 -17 -23 -8 -18 1 22 50 23 29 39 41 43 33 6 -8 9 -8 15 0z m709 -53 c33
-30 33 -54 0 -62 -21 -5 -31 -1 -49 22 -21 27 -22 30 -8 47 21 22 27 22 57 -7z
m-464 -31 c0 -6 -73 -55 -83 -55 -16 0 5 21 41 40 42 22 42 22 42 15z m105 -4
c-11 -10 -75 -23 -75 -15 0 7 42 23 65 23 11 1 15 -3 10 -8z m-277 -46 c-20
-18 -56 -39 -80 -45 -24 -6 -51 -14 -61 -17 -15 -4 -18 0 -15 24 3 26 8 29 88
50 111 28 111 28 68 -12z m369 -1 c-3 -3 -12 -4 -19 -1 -8 3 -5 6 6 6 11 1 17
-2 13 -5z m-547 -23 c0 -5 3 -16 6 -25 4 -10 1 -16 -9 -16 -15 0 -30 34 -19
44 8 9 22 7 22 -3z m220 -26 c0 -6 -69 -35 -83 -35 -16 0 24 26 48 33 30 7 35
7 35 2z m66 -30 c-20 -15 -36 -19 -36 -10 0 5 38 23 50 24 3 0 -4 -6 -14 -14z
m-83 -42 c-7 -2 -19 -2 -25 0 -7 3 -2 5 12 5 14 0 19 -2 13 -5z m172 -143
c-26 -17 -118 -30 -102 -14 11 11 82 33 107 33 25 1 25 1 -5 -19z m-243 -43
c-23 -12 -70 -39 -103 -60 -33 -21 -65 -37 -71 -35 -25 9 160 118 197 118 14
-1 6 -8 -23 -23z m158 -2 c0 -13 -148 -70 -158 -61 -8 8 105 66 131 66 15 0
27 -2 27 -5z m-185 -55 c-10 -11 -28 -20 -39 -20 -17 1 -14 5 14 20 45 24 47
24 25 0z m465 0 c0 -5 -6 -10 -14 -10 -7 0 -29 -3 -47 -6 -24 -5 -31 -3 -24 4
9 9 35 17 73 21 6 0 12 -3 12 -9z m-145 -19 c-9 -7 -48 -18 -175 -47 -21 -5
-19 -2 10 16 40 26 190 54 165 31z m214 -45 c1 18 31 26 31 9 0 -25 -38 -55
-70 -55 l-30 0 17 28 c24 37 37 44 45 24 4 -9 7 -12 7 -6z m-129 6 c0 -19 -62
-53 -91 -50 l-29 3 25 28 c19 19 36 27 60 27 19 0 35 -4 35 -8z m-590 -12 c-8
-5 -22 -10 -30 -10 -13 0 -13 1 0 10 8 5 22 10 30 10 13 0 13 -1 0 -10z m500
-70 c0 -8 -60 -30 -84 -30 -5 0 -1 9 9 20 18 20 75 28 75 10z m190 -20 c0 -13
-34 -30 -59 -30 -28 0 -27 18 2 30 30 12 57 12 57 0z m-93 -16 c-3 -3 -12 -4
-19 -1 -8 3 -5 6 6 6 11 1 17 -2 13 -5z m-143 -33 c-9 -9 -183 -35 -190 -28
-5 5 189 45 195 40 3 -2 0 -7 -5 -12z m61 9 c3 -5 -1 -10 -10 -10 -9 0 -13 5
-10 10 3 6 8 10 10 10 2 0 7 -4 10 -10z m98 -37 c-7 -2 -19 -2 -25 0 -7 3 -2
5 12 5 14 0 19 -2 13 -5z m-376 -9 c-3 -3 -12 -4 -19 -1 -8 3 -5 6 6 6 11 1
17 -2 13 -5z m283 -204 c-24 -15 -36 -11 -14 4 10 8 21 12 24 10 2 -3 -2 -9
-10 -14z m250 5 c-7 -8 -17 -15 -22 -15 -6 0 -5 7 2 15 7 8 17 15 22 15 6 0 5
-7 -2 -15z m50 -10 c-7 -8 -17 -15 -23 -15 -5 0 -2 9 8 20 21 23 35 19 15 -5z
m140 -120 c0 -8 -4 -15 -10 -15 -5 0 -7 7 -4 15 4 8 8 15 10 15 2 0 4 -7 4
-15z m33 -88 c-20 -57 -73 -159 -73 -141 0 14 26 89 45 129 7 17 19 44 26 60
20 51 22 8 2 -48z m47 -64 c0 -23 -17 -49 -26 -41 -9 10 4 58 16 58 6 0 10 -8
10 -17z m-140 -23 c-6 -11 -13 -20 -16 -20 -2 0 0 9 6 20 6 11 13 20 16 20 2
0 0 -9 -6 -20z m-140 -300 c-6 -11 -12 -20 -14 -20 -2 0 -2 9 1 20 3 11 9 20
15 20 5 0 4 -9 -2 -20z m230 -64 c0 -3 -4 -8 -10 -11 -5 -3 -10 -1 -10 4 0 6
5 11 10 11 6 0 10 -2 10 -4z m-20 -201 c-7 -8 -17 -15 -23 -15 -5 0 -2 9 8 20
21 23 35 19 15 -5z"/>
<path d="M9538 7133 c7 -3 16 -2 19 1 4 3 -2 6 -13 5 -11 0 -14 -3 -6 -6z"/>
<path d="M6520 8548 c0 -4 14 -8 30 -8 17 0 30 2 30 4 0 2 -13 6 -30 8 -16 3
-30 1 -30 -4z"/>
<path d="M4180 8525 c14 -8 30 -14 35 -14 6 0 -1 6 -15 14 -14 8 -29 14 -35
14 -5 0 1 -6 15 -14z"/>
<path d="M6515 8509 c-7 -10 48 -19 58 -9 5 4 -6 10 -23 12 -17 3 -33 1 -35
-3z"/>
<path d="M280 8456 c-25 -7 -98 -27 -162 -45 l-118 -33 0 -44 c0 -27 5 -44 12
-44 6 0 61 16 122 36 61 20 179 53 261 75 83 21 141 38 130 39 -25 0 -160 -26
-238 -46 -86 -22 -91 -12 -7 15 80 25 88 37 15 21 -65 -14 -68 -6 -6 15 28 9
51 18 51 21 0 6 -9 4 -60 -10z"/>
<path d="M4166 8440 c-15 -5 -14 -8 8 -18 15 -7 28 -8 31 -2 3 5 20 14 38 19
31 9 30 10 -14 9 -25 -1 -54 -4 -63 -8z"/>
<path d="M4721 8428 c0 -13 4 -31 7 -41 7 -17 9 -16 30 3 28 27 28 34 -3 48
-34 16 -35 16 -34 -10z"/>
<path d="M6512 8414 c4 -24 58 -33 58 -10 0 9 -6 16 -14 16 -8 0 -22 3 -31 6
-13 5 -16 2 -13 -12z"/>
<path d="M6587 8423 c-12 -11 -8 -23 8 -23 8 0 15 -5 15 -12 0 -9 3 -9 12 0 8
8 8 15 -2 27 -14 16 -23 19 -33 8z"/>
<path d="M5710 8413 c0 -5 5 -15 10 -23 8 -12 10 -11 10 8 0 12 -4 22 -10 22
-5 0 -10 -3 -10 -7z"/>
<path d="M6251 8389 c-17 -49 -13 -53 15 -20 14 17 23 35 19 41 -11 18 -23 11
-34 -21z"/>
<path d="M1306 8384 c57 -53 155 -127 160 -121 3 3 -29 31 -71 63 -95 73 -130
95 -89 58z"/>
<path d="M365 8358 c-134 -53 -155 -59 -149 -44 2 6 -42 -3 -106 -24 -99 -32
-110 -37 -110 -59 0 -22 3 -23 41 -18 47 6 45 -2 -3 -12 -30 -6 -33 -11 -36
-45 l-3 -39 53 6 c29 4 127 10 217 13 154 7 165 6 179 -12 15 -20 15 -17 -9
49 -9 27 -18 36 -28 32 -9 -4 -63 -13 -121 -21 -58 -8 -118 -17 -135 -20 -63
-13 -7 14 81 39 51 14 116 38 145 53 30 15 59 27 65 26 5 -1 48 14 95 33 46
19 80 35 76 35 -5 0 -62 -16 -128 -36 -66 -20 -122 -34 -125 -31 -3 3 18 13
46 22 66 22 59 30 -11 11 -30 -7 -74 -16 -99 -20 l-45 -6 65 30 c188 87 206
103 45 38z m-35 -88 c-34 -11 -60 -11 -35 0 11 5 29 8 40 8 16 0 15 -2 -5 -8z
m-80 -20 c-8 -5 -22 -9 -30 -9 -10 0 -8 3 5 9 27 12 43 12 25 0z m-63 -16 c-3
-3 -12 -4 -19 -1 -8 3 -5 6 6 6 11 1 17 -2 13 -5z m243 -64 c0 -5 -17 -10 -37
-10 -28 0 -34 3 -23 10 20 13 60 13 60 0z"/>
<path d="M5680 8393 c0 -4 5 -15 10 -23 8 -13 10 -13 10 2 0 9 -4 20 -10 23
-5 3 -10 3 -10 -2z"/>
<path d="M1230 8371 c0 -5 17 -21 38 -36 20 -16 51 -41 69 -58 17 -16 36 -28
42 -26 5 2 -26 32 -69 66 -44 35 -80 59 -80 54z"/>
<path d="M5850 8370 c0 -5 5 -10 10 -10 6 0 10 5 10 10 0 6 -4 10 -10 10 -5 0
-10 -4 -10 -10z"/>
<path d="M6004 8365 c-10 -8 -14 -15 -8 -15 5 0 19 7 30 15 10 8 14 15 8 15
-5 0 -19 -7 -30 -15z"/>
<path d="M6289 8363 c-13 -17 -13 -17 6 -3 11 8 22 16 24 17 2 2 0 3 -6 3 -6
0 -17 -8 -24 -17z"/>
<path d="M7080 8360 c11 -7 5 -10 -25 -11 -32 0 -36 -2 -20 -9 33 -14 92 -12
98 4 8 20 -1 26 -37 26 -24 0 -27 -3 -16 -10z"/>
<path d="M6295 8325 l-30 -25 43 0 c42 0 47 5 36 34 -8 21 -13 20 -49 -9z"/>
<path d="M6015 8329 c-11 -17 -2 -18 25 -4 24 14 24 14 3 15 -12 0 -25 -5 -28
-11z"/>
<path d="M5125 8285 c42 -37 158 -117 150 -105 -9 14 66 -31 87 -52 10 -10 23
-18 29 -18 6 0 40 -21 75 -46 36 -26 67 -44 70 -41 3 3 0 40 -7 81 -11 71 -10
78 7 98 19 21 19 21 -3 7 -25 -15 -102 0 -288 58 -159 49 -155 48 -120 18z"/>
<path d="M6090 8295 c0 -8 5 -15 10 -15 6 0 10 7 10 15 0 8 -4 15 -10 15 -5 0
-10 -7 -10 -15z"/>
<path d="M6674 8303 c4 -5 42 -11 84 -14 42 -3 85 -9 95 -13 12 -6 17 -4 17 7
0 8 -7 18 -16 21 -23 9 -189 7 -180 -1z"/>
<path d="M6910 8281 c0 -10 7 -21 14 -24 10 -4 13 -1 9 9 -3 7 0 14 6 14 6 0
11 5 11 10 0 6 -9 10 -20 10 -13 0 -20 -7 -20 -19z"/>
<path d="M3389 8273 c-13 -17 -13 -17 6 -3 11 8 22 16 24 17 2 2 0 3 -6 3 -6
0 -17 -8 -24 -17z"/>
<path d="M471 8260 c0 -8 9 -33 19 -55 10 -22 18 -31 16 -20 -4 27 -35 94 -35
75z"/>
<path d="M6053 8263 c-13 -5 -19 -33 -7 -33 3 0 14 5 25 10 34 19 19 38 -18
23z"/>
<path d="M6561 8216 c2 -2 22 -6 44 -10 29 -5 36 -4 25 3 -13 10 -79 16 -69 7z"/>
<path d="M8020 8215 c0 -5 10 -27 23 -47 12 -20 36 -61 54 -90 40 -66 83 -125
83 -113 0 11 -112 198 -140 235 -11 14 -20 21 -20 15z"/>
<path d="M4696 8184 c-9 -23 -7 -46 3 -40 12 8 21 45 11 51 -4 3 -11 -2 -14
-11z"/>
<path d="M5182 8077 c62 -175 64 -183 47 -204 -17 -20 -59 -91 -59 -100 0 -3
15 9 33 27 l32 33 135 1 c74 1 143 6 153 12 16 9 11 15 -40 51 -32 23 -79 63
-104 89 -59 63 -106 104 -111 98 -3 -2 -32 21 -65 51 l-60 54 39 -112z"/>
<path d="M4731 8153 c0 -25 1 -26 9 -8 12 27 12 35 0 35 -5 0 -10 -12 -9 -27z"/>
<path d="M515 8150 c3 -5 8 -10 11 -10 2 0 4 5 4 10 0 6 -5 10 -11 10 -5 0 -7
-4 -4 -10z"/>
<path d="M4560 8151 c0 -7 -25 -11 -71 -11 -62 0 -70 -2 -59 -15 17 -21 160
-22 160 -1 0 7 -7 19 -15 26 -10 9 -15 9 -15 1z"/>
<path d="M4674 8118 c-3 -4 15 -8 40 -8 25 0 46 2 46 4 0 8 -82 11 -86 4z"/>
<path d="M6493 8123 c9 -2 23 -2 30 0 6 3 -1 5 -18 5 -16 0 -22 -2 -12 -5z"/>
<path d="M534 8094 c77 -201 157 -426 153 -431 -11 -10 -55 25 -62 49 -4 13
-13 37 -20 53 -7 17 -26 64 -43 105 -55 136 -73 173 -83 163 -12 -12 -59 -5
-59 8 0 5 16 9 35 9 24 0 33 4 29 13 -3 10 -19 11 -62 6 -31 -4 -86 -7 -122
-7 -64 0 -65 0 -35 14 l30 15 -40 -5 c-22 -3 -88 -9 -147 -12 -91 -6 -108 -10
-108 -24 0 -14 26 -18 218 -29 119 -6 231 -14 249 -17 30 -6 34 -12 81 -133
28 -70 52 -134 54 -142 4 -19 -24 -14 -87 16 -27 13 -93 41 -145 61 -52 20
-124 50 -160 67 -68 32 -98 36 -111 16 -5 -8 -22 -10 -53 -6 -25 4 -46 3 -46
-2 0 -11 25 -21 53 -21 11 0 28 -7 37 -15 14 -13 306 -145 425 -192 45 -18 66
-33 46 -33 -12 0 -192 -73 -306 -125 -28 -12 -81 -33 -118 -46 l-67 -23 -28
27 c-35 33 -42 34 -42 3 0 -14 10 -30 25 -40 24 -16 30 -14 141 29 297 116
437 166 452 160 23 -9 8 -19 -113 -70 -60 -25 -127 -54 -150 -64 -22 -10 -77
-35 -123 -55 -46 -21 -106 -46 -135 -57 l-52 -19 44 4 c24 3 47 9 50 14 3 5
17 13 31 17 14 4 75 26 135 50 61 25 173 68 251 98 137 52 142 53 175 38 19
-8 49 -21 67 -29 34 -15 54 -10 35 9 -9 9 -170 78 -592 254 -110 46 -140 65
-104 65 24 0 117 -34 248 -90 50 -21 135 -57 190 -80 55 -23 115 -48 132 -56
54 -25 116 -45 121 -39 9 8 -9 20 -58 38 -43 16 -46 20 -77 100 -40 106 -99
250 -124 304 -10 24 -19 47 -19 52 0 6 -5 13 -12 17 -8 5 -9 2 -4 -12z"/>
<path d="M6104 8056 c-7 -7 -25 -22 -40 -34 -16 -12 -24 -22 -19 -22 14 0 81
57 75 63 -3 3 -10 -1 -16 -7z"/>
<path d="M6118 7982 c-21 -13 -38 -29 -38 -35 0 -7 32 13 79 50 2 2 2 5 0 7
-2 2 -21 -8 -41 -22z"/>
<path d="M2035 7915 c-55 -46 -101 -87 -102 -92 -5 -15 43 -66 55 -59 6 4 41
52 78 107 36 54 70 102 75 105 11 6 12 24 2 24 -5 -1 -53 -39 -108 -85z"/>
<path d="M0 7971 c0 -9 125 -21 214 -21 38 0 55 4 46 9 -19 11 -260 22 -260
12z"/>
<path d="M2141 7939 c-11 -24 -22 -58 -25 -75 -3 -17 -12 -48 -19 -70 -8 -21
-12 -45 -9 -53 4 -11 -5 -13 -43 -7 l-49 6 24 -27 c14 -16 45 -49 69 -75 48
-51 47 -62 -4 -72 -39 -8 -44 -3 -80 69 -41 84 -139 239 -143 227 -2 -6 27
-69 63 -142 36 -72 63 -135 60 -141 -4 -5 1 -12 9 -15 12 -4 16 -20 16 -54 0
-42 -7 -57 -53 -122 -54 -75 -140 -163 -160 -163 -11 0 -106 149 -154 240 -14
28 -39 67 -55 87 -20 26 -27 44 -23 58 5 14 2 20 -10 20 -23 0 -29 -25 -12
-52 8 -13 25 -54 37 -93 12 -38 25 -77 30 -85 4 -9 11 -35 15 -58 6 -40 6 -42
-19 -42 -19 0 -26 -5 -26 -20 0 -11 -5 -20 -12 -20 -7 0 -86 -21 -176 -46 -90
-25 -166 -43 -170 -39 -4 3 0 10 8 15 29 16 149 115 149 123 1 5 -4 5 -9 2 -6
-4 -18 11 -26 32 -9 21 -17 39 -19 41 -4 5 -211 -30 -224 -37 -14 -9 -15 -31
-7 -156 6 -112 5 -111 -32 35 l-27 105 -95 2 -95 2 -152 -69 c-84 -38 -170
-74 -193 -81 -23 -7 -37 -16 -32 -21 5 -5 61 12 128 37 155 60 235 85 246 78
5 -3 8 -19 7 -37 -2 -17 0 -36 3 -42 4 -5 17 -95 29 -198 15 -121 28 -193 37
-202 18 -18 58 -18 137 2 54 14 65 20 66 38 0 20 1 20 12 -2 10 -22 15 -23 96
-21 47 2 94 5 104 7 11 3 36 41 64 96 25 50 50 94 55 97 14 9 -11 25 -111 74
-50 24 -91 47 -91 51 0 3 68 4 151 2 l151 -5 23 52 c12 29 28 56 34 59 17 11
62 -2 90 -24 l23 -20 -41 -66 c-22 -36 -41 -68 -41 -71 0 -4 -6 -14 -13 -22
-24 -27 -79 -131 -70 -131 4 0 25 26 45 58 62 95 114 171 133 192 17 19 18 19
48 -6 35 -30 97 -108 97 -123 0 -6 -17 -18 -37 -28 -21 -9 -42 -19 -47 -21 -6
-3 0 8 13 24 58 73 -74 12 -195 -90 -49 -41 -91 -73 -95 -70 -4 2 -10 -3 -13
-12 -4 -11 -13 -14 -27 -11 -15 4 -37 -6 -74 -34 -28 -21 -59 -39 -67 -39 -9
0 -21 -7 -28 -15 -19 -22 -7 -19 79 24 57 29 81 37 89 29 9 -9 18 -8 36 0 14
6 76 21 138 32 98 18 233 49 290 66 13 4 21 -2 28 -20 8 -21 16 -26 42 -25 29
0 30 1 11 9 -29 12 -45 44 -37 75 3 14 9 25 13 25 13 0 71 -40 71 -50 0 -5 6
-10 14 -10 7 0 24 -10 38 -22 40 -36 80 -64 135 -92 59 -29 81 -53 41 -43 -46
12 -50 -11 -18 -96 37 -94 60 -191 50 -207 -6 -9 -25 -1 -70 30 -34 23 -107
69 -161 101 l-100 58 -45 -61 c-25 -34 -52 -74 -62 -90 -16 -27 -49 -40 -40
-15 16 44 52 155 75 232 14 50 28 96 31 103 3 9 -13 12 -62 12 -58 0 -68 -3
-74 -20 -4 -11 -2 -80 5 -152 16 -180 16 -188 -2 -188 -11 0 -14 -7 -10 -27 3
-16 12 -75 20 -133 8 -57 18 -107 23 -111 4 -4 117 8 252 27 135 18 251 34
258 34 17 0 16 71 -3 194 -12 81 -13 117 -4 190 6 50 18 101 25 113 20 32 18
46 -4 34 -15 -8 -28 0 -72 44 -31 31 -79 67 -114 83 -55 26 -103 59 -191 129
-27 22 -27 24 -12 55 14 28 14 33 2 36 -8 2 -28 -6 -44 -17 -16 -12 -34 -21
-39 -21 -5 0 -24 22 -41 48 -31 49 -41 76 -19 54 19 -19 30 -14 16 7 -10 16
-6 24 25 56 l37 38 38 -27 c55 -38 67 -32 32 15 -27 38 -32 68 -9 54 5 -3 6 1
3 9 -4 10 -1 16 8 16 7 0 21 8 30 18 21 23 48 45 138 119 41 33 86 72 99 87
14 14 35 26 48 26 24 0 167 60 159 67 -2 2 -32 -7 -67 -21 -70 -27 -121 -29
-141 -5 -18 22 -85 59 -107 59 -29 0 -41 23 -35 66 17 124 27 180 37 192 5 7
7 15 4 19 -4 3 -16 -14 -26 -38z m107 -325 c-9 -9 -21 -13 -28 -9 -14 9 5 25
30 25 12 0 12 -3 -2 -16z m-67 -73 c-32 -25 -139 -81 -154 -81 -22 0 11 22 90
61 90 43 97 46 64 20z m-1064 -598 c-3 -10 -5 -4 -5 12 0 17 2 24 5 18 2 -7 2
-21 0 -30z m7 -58 c-4 -8 -8 -15 -10 -15 -2 0 -4 7 -4 15 0 8 4 15 10 15 5 0
7 -7 4 -15z"/>
<path d="M7977 7972 c-20 -2 -32 -13 -44 -36 -24 -51 0 -89 85 -129 71 -34
148 -100 137 -118 -4 -5 1 -16 11 -23 9 -7 15 -20 11 -28 -4 -11 1 -15 19 -15
13 0 24 1 24 3 0 2 -13 25 -30 51 -16 26 -41 83 -55 127 -19 64 -32 89 -62
117 -53 49 -64 55 -96 51z"/>
<path d="M2166 7925 c-3 -9 -6 -22 -5 -28 0 -7 5 -1 10 12 5 13 8 26 5 28 -2
2 -6 -3 -10 -12z"/>
<path d="M5 7920 c-4 -6 8 -10 29 -10 19 0 38 5 41 10 4 6 -8 10 -29 10 -19 0
-38 -4 -41 -10z"/>
<path d="M3623 7864 c-15 -16 -16 -24 -4 -24 8 0 24 30 19 35 -2 2 -9 -3 -15
-11z"/>
<path d="M1816 7845 c-5 -16 -8 -75 -6 -130 1 -55 -1 -97 -5 -94 -3 4 -6 42
-6 85 0 99 -18 80 -21 -21 l-1 -70 -7 60 c-4 33 -7 52 -8 43 -1 -10 -16 -21
-38 -27 -20 -5 -47 -22 -60 -38 l-24 -28 37 -5 c50 -7 60 -3 72 28 l11 27 -3
-32 c-3 -29 -1 -31 36 -37 22 -4 40 -5 41 -4 0 2 -1 64 -4 138 -4 100 -7 127
-14 105z"/>
<path d="M4300 7836 c0 -2 7 -7 16 -10 8 -3 12 -2 9 4 -6 10 -25 14 -25 6z"/>
<path d="M6278 7833 c7 -3 16 -2 19 1 4 3 -2 6 -13 5 -11 0 -14 -3 -6 -6z"/>
<path d="M0 7815 c0 -13 51 -27 145 -40 47 -6 30 2 -77 34 -54 15 -68 17 -68
6z"/>
<path d="M4360 7790 c37 -30 75 -46 174 -74 100 -27 103 -20 6 15 -61 22 -63
24 -35 29 26 5 22 7 -33 19 -34 8 -65 11 -69 8 -3 -3 -20 1 -37 9 l-31 15 25
-21z"/>
<path d="M6172 7803 c-6 -2 -10 -9 -6 -14 3 -5 -2 -9 -10 -9 -34 0 -14 -18 24
-22 41 -4 53 5 23 17 -16 6 -15 8 7 20 l25 14 -25 0 c-14 0 -31 -3 -38 -6z"/>
<path d="M6570 7790 c0 -5 5 -10 10 -10 6 0 10 5 10 10 0 6 -4 10 -10 10 -5 0
-10 -4 -10 -10z"/>
<path d="M0 7757 c0 -21 12 -27 116 -61 63 -21 117 -36 119 -34 5 5 -209 118
-224 118 -6 0 -11 -10 -11 -23z"/>
<path d="M5950 7714 c-30 -8 -62 -17 -70 -21 -8 -4 -21 -7 -29 -7 -16 -1 -46
-76 -30 -76 5 0 9 9 9 20 0 14 11 22 43 30 23 6 60 20 82 31 22 10 48 19 58
19 10 0 15 5 12 10 -7 12 -7 12 -75 -6z"/>
<path d="M4340 7697 c0 -7 13 -20 29 -30 16 -9 56 -38 88 -64 88 -70 93 -72
33 -10 -30 31 -50 57 -44 57 6 0 37 -9 69 -20 93 -32 87 -17 -7 18 -46 18 -93
39 -104 47 -26 20 -37 19 -30 -2 6 -17 5 -17 -8 0 -16 20 -26 22 -26 4z"/>
<path d="M4770 7676 c0 -2 7 -6 15 -10 8 -3 15 -1 15 4 0 6 -7 10 -15 10 -8 0
-15 -2 -15 -4z"/>
<path d="M1220 7646 c0 -3 6 -11 13 -18 7 -7 39 -49 72 -93 33 -44 72 -93 87
-110 30 -33 34 -54 16 -88 -10 -20 -9 -20 19 3 16 14 42 34 57 45 66 48 68 51
61 95 -5 33 -10 39 -20 30 -10 -9 -32 -1 -92 33 -172 98 -213 118 -213 103z"/>
<path d="M0 7630 c0 -6 7 -13 15 -17 24 -9 27 1 5 15 -13 8 -20 8 -20 2z"/>
<path d="M1649 7569 c35 -17 66 -28 69 -25 6 7 -103 56 -121 55 -7 0 17 -14
52 -30z"/>
<path d="M5811 7584 c0 -11 3 -14 6 -6 3 7 2 16 -1 19 -3 4 -6 -2 -5 -13z"/>
<path d="M1738 7533 c7 -3 16 -2 19 1 4 3 -2 6 -13 5 -11 0 -14 -3 -6 -6z"/>
<path d="M5020 7526 c0 -24 17 -28 23 -6 3 13 0 20 -9 20 -8 0 -14 -6 -14 -14z"/>
<path d="M4650 7512 c0 -5 6 -16 13 -26 13 -18 14 -18 20 -2 4 10 5 22 1 27
-7 11 -34 12 -34 1z"/>
<path d="M5790 7480 c0 -5 9 -10 21 -10 11 0 17 5 14 10 -3 6 -13 10 -21 10
-8 0 -14 -4 -14 -10z"/>
<path d="M5785 7432 c6 -5 35 -12 65 -15 63 -7 41 6 -30 18 -29 5 -42 4 -35
-3z"/>
<path d="M5294 7415 c-16 -13 -17 -16 -4 -25 19 -12 50 -13 50 -1 0 16 -12 41
-19 41 -4 0 -16 -7 -27 -15z"/>
<path d="M718 7347 c-64 -29 -148 -65 -188 -82 -118 -49 -58 -41 73 10 67 26
138 53 157 60 19 7 50 19 68 25 31 12 46 41 20 39 -7 0 -65 -24 -130 -52z"/>
<path d="M0 7374 c0 -17 22 -14 28 4 2 7 -3 12 -12 12 -9 0 -16 -7 -16 -16z"/>
<path d="M5442 7368 c3 -7 13 -15 22 -16 12 -3 17 1 14 10 -3 7 -13 15 -22 16
-12 3 -17 -1 -14 -10z"/>
<path d="M5563 7373 c9 -2 23 -2 30 0 6 3 -1 5 -18 5 -16 0 -22 -2 -12 -5z"/>
<path d="M8985 7370 c3 -5 8 -10 11 -10 2 0 4 5 4 10 0 6 -5 10 -11 10 -5 0
-7 -4 -4 -10z"/>
<path d="M5414 7319 c-3 -6 0 -15 7 -20 13 -7 28 5 29 24 0 11 -28 8 -36 -4z"/>
<path d="M1430 7290 c-9 -6 -10 -10 -3 -10 6 0 15 5 18 10 8 12 4 12 -15 0z"/>
<path d="M2451 7257 c-6 -16 -11 -35 -11 -44 0 -22 61 -103 77 -103 16 0 217
102 247 125 11 8 18 17 15 19 -2 2 -55 -1 -117 -7 -91 -9 -112 -13 -110 -26 4
-20 -43 -45 -54 -28 -10 16 0 27 23 27 10 0 19 4 19 10 0 6 -9 6 -25 0 -19 -7
-25 -6 -25 3 0 7 -6 22 -14 33 -14 18 -15 18 -25 -9z"/>
<path d="M4660 7266 c0 -2 8 -10 18 -17 15 -13 16 -12 3 4 -13 16 -21 21 -21
13z"/>
<path d="M0 7244 c0 -9 5 -14 12 -12 18 6 21 28 4 28 -9 0 -16 -7 -16 -16z"/>
<path d="M2381 7234 c0 -11 3 -14 6 -6 3 7 2 16 -1 19 -3 4 -6 -2 -5 -13z"/>
<path d="M5940 7230 l-35 -7 42 -2 c23 0 45 4 48 9 7 11 -3 11 -55 0z"/>
<path d="M3354 7133 c9 -144 10 -153 20 -153 5 0 6 30 3 68 -4 37 -7 93 -7
125 0 34 -4 57 -11 57 -8 0 -9 -30 -5 -97z"/>
<path d="M4710 7222 c0 -10 22 -32 32 -32 15 0 8 15 -12 28 -11 7 -20 9 -20 4z"/>
<path d="M5828 7213 c6 -2 18 -2 25 0 6 3 1 5 -13 5 -14 0 -19 -2 -12 -5z"/>
<path d="M5101 7186 c-9 -10 -9 -16 -1 -21 16 -10 31 7 21 23 -6 10 -10 10
-20 -2z"/>
<path d="M4771 7187 c2 -1 12 -9 22 -16 15 -12 17 -12 11 3 -3 9 -13 16 -22
16 -8 0 -13 -1 -11 -3z"/>
<path d="M4360 7146 c0 -8 43 -79 76 -126 47 -67 69 -113 55 -118 -14 -5 -15
-59 -1 -67 6 -3 10 3 10 15 0 12 4 29 9 39 7 13 -2 37 -37 96 -71 120 -112
179 -112 161z"/>
<path d="M4610 7140 c0 -5 5 -10 11 -10 5 0 7 5 4 10 -3 6 -8 10 -11 10 -2 0
-4 -4 -4 -10z"/>
<path d="M4960 7140 c0 -5 7 -7 15 -4 8 4 15 8 15 10 0 2 -7 4 -15 4 -8 0 -15
-4 -15 -10z"/>
<path d="M4500 7127 c0 -18 115 -207 127 -207 5 0 -69 142 -84 160 -7 8 -19
24 -27 35 -9 11 -16 16 -16 12z"/>
<path d="M4566 7100 c4 -14 7 -31 7 -37 0 -7 4 -13 9 -13 14 0 9 35 -8 56 -14
18 -15 18 -8 -6z"/>
<path d="M4662 7085 c0 -16 2 -22 5 -12 2 9 2 23 0 30 -3 6 -5 -1 -5 -18z"/>
<path d="M5570 7095 c-19 -7 -28 -13 -20 -13 8 0 31 6 50 13 19 7 28 13 20 13
-8 0 -31 -6 -50 -13z"/>
<path d="M3717 7093 c-4 -3 -7 -38 -6 -77 1 -60 2 -66 9 -36 23 96 21 138 -3
113z"/>
<path d="M4311 7095 c0 -5 17 -30 39 -55 22 -25 40 -40 40 -35 0 6 -18 30 -40
55 -21 25 -39 41 -39 35z"/>
<path d="M5785 7075 l-40 -13 50 6 c46 5 49 4 36 -11 -7 -10 -21 -17 -30 -17
-41 0 -389 -116 -378 -126 4 -5 60 10 212 56 77 23 167 48 200 54 57 12 59 13
38 27 -13 7 -23 19 -23 26 0 16 -13 15 -65 -2z"/>
<path d="M5860 7086 c0 -2 7 -9 15 -16 13 -11 14 -10 9 4 -5 14 -24 23 -24 12z"/>
<path d="M4230 7057 c0 -9 27 -45 60 -80 32 -35 71 -80 85 -101 39 -58 79
-106 84 -101 2 3 -19 36 -48 75 -28 39 -65 95 -82 125 -20 36 -37 55 -49 55
-11 0 -26 10 -34 22 -13 18 -16 19 -16 5z"/>
<path d="M3817 7053 c-4 -3 -7 -11 -7 -17 0 -6 5 -5 12 2 6 6 9 14 7 17 -3 3
-9 2 -12 -2z"/>
<path d="M5610 7043 c0 -13 5 -23 10 -23 13 0 13 11 0 30 -8 12 -10 11 -10 -7z"/>
<path d="M1487 6985 c4 -26 2 -40 -8 -45 -7 -5 -10 -12 -7 -16 9 -9 49 57 45
76 -1 8 -10 16 -19 18 -14 3 -16 -3 -11 -33z"/>
<path d="M2355 6978 c11 -35 28 -44 112 -58 43 -6 94 -16 113 -21 54 -14 56 6
2 29 -41 18 -214 72 -229 72 -2 0 -1 -10 2 -22z"/>
<path d="M1441 6893 c-7 -8 -11 -16 -8 -19 2 -2 10 2 17 11 17 20 9 27 -9 8z"/>
<path d="M3684 6854 c-19 -15 -19 -15 1 -6 11 5 27 12 35 15 13 5 13 6 -1 6
-8 1 -24 -6 -35 -15z"/>
<path d="M5725 6821 c-168 -68 -178 -82 -20 -26 l100 36 -75 -74 c-99 -97
-158 -160 -143 -156 21 7 252 232 247 241 -9 14 -36 9 -109 -21z"/>
<path d="M4560 6825 c-14 -16 -10 -18 14 -9 9 3 16 10 16 15 0 14 -16 11 -30
-6z"/>
<path d="M3478 6775 c-77 -32 -131 -49 -139 -44 -8 5 -18 1 -26 -11 -7 -10
-35 -26 -63 -36 -48 -17 -73 -43 -27 -28 28 9 367 153 387 165 36 20 -14 3
-132 -46z"/>
<path d="M2120 6790 c0 -5 5 -10 11 -10 5 0 7 5 4 10 -3 6 -8 10 -11 10 -2 0
-4 -4 -4 -10z"/>
<path d="M1608 6784 c-6 -5 -174 -43 -270 -61 -63 -12 -19 -21 135 -28 240
-10 229 -8 252 -58 11 -24 13 -25 9 -7 -4 14 -21 54 -38 90 -25 52 -36 66 -56
68 -14 2 -29 0 -32 -4z"/>
<path d="M2085 6743 c-52 -69 -65 -87 -65 -94 0 -8 101 20 115 32 6 6 2 21
-10 42 -10 17 -18 34 -16 35 1 2 1 5 -1 7 -2 2 -13 -8 -23 -22z"/>
<path d="M3900 6757 c0 -17 20 -37 37 -37 20 0 15 28 -6 40 -26 13 -31 13 -31
-3z"/>
<path d="M524 6718 c-4 -6 -3 -9 2 -6 10 7 62 -1 268 -37 82 -14 151 -23 154
-20 13 13 -20 23 -118 34 -58 7 -130 16 -160 21 -127 19 -139 20 -146 8z"/>
<path d="M555 6650 c50 -15 385 -64 392 -57 13 14 16 13 -382 62 -36 4 -37 4
-10 -5z"/>
<path d="M7935 6641 c-3 -5 -1 -12 5 -16 5 -3 10 1 10 9 0 18 -6 21 -15 7z"/>
<path d="M8016 6613 c-15 -15 -4 -33 19 -33 14 0 25 4 25 10 0 12 -35 31 -44
23z"/>
<path d="M7770 6571 c0 -12 6 -21 16 -21 9 0 14 7 12 17 -5 25 -28 28 -28 4z"/>
<path d="M3820 6570 c-13 -9 -13 -11 0 -20 8 -5 20 -10 27 -10 19 0 27 21 12
31 -18 11 -21 11 -39 -1z"/>
<path d="M4303 6567 c-94 -36 -167 -125 -176 -217 -2 -25 -2 -38 0 -29 6 23
34 29 88 17 26 -6 60 -6 79 -1 l34 8 -16 48 c-14 45 -14 51 0 75 9 15 35 34
58 44 22 10 39 14 36 10 -2 -4 28 -7 67 -7 l72 0 17 -35 c11 -22 19 -69 22
-125 4 -82 2 -95 -23 -145 -39 -81 -70 -124 -110 -150 -50 -32 -108 -37 -157
-12 -50 26 -119 100 -144 154 -12 29 -19 36 -19 22 -1 -25 54 -114 70 -114 7
0 10 -3 6 -6 -13 -13 86 -83 127 -90 57 -9 76 -21 76 -47 0 -13 6 -31 13 -41
12 -16 18 -17 43 -8 22 8 24 11 9 11 -12 1 -21 8 -21 19 -1 9 -4 25 -8 34 -5
12 0 22 19 34 25 16 28 16 39 2 7 -9 11 -32 11 -52 -1 -23 3 -36 11 -36 21 0
25 18 14 59 -10 39 -10 40 40 90 100 100 129 222 78 332 -28 62 -75 111 -133
142 -48 25 -174 33 -222 14z"/>
<path d="M8112 6494 c2 -9 11 -22 22 -28 10 -6 32 -24 50 -40 17 -16 76 -63
131 -105 55 -41 105 -79 110 -83 6 -5 51 -38 100 -74 50 -36 114 -89 144 -117
29 -29 52 -47 50 -41 -19 54 -64 144 -72 144 -5 0 -26 15 -46 33 -76 67 -122
100 -184 130 -15 7 -25 15 -23 18 3 3 -44 35 -103 72 -60 37 -119 76 -131 87
-28 24 -53 26 -48 4z"/>
<path d="M823 6483 c-7 -2 -13 -16 -13 -30 0 -34 31 -27 41 10 7 27 0 32 -28
20z"/>
<path d="M1790 6481 c0 -5 5 -13 10 -16 6 -3 10 -2 10 4 0 5 -4 13 -10 16 -5
3 -10 2 -10 -4z"/>
<path d="M48 6463 c-27 -2 -48 -9 -48 -14 0 -7 15 -8 42 -4 44 8 96 25 68 23
-8 -1 -36 -3 -62 -5z"/>
<path d="M938 6452 c-1 -4 -23 -24 -48 -44 l-45 -37 -185 25 c-295 39 -322 37
-81 -6 123 -21 226 -41 228 -44 3 -3 -2 -12 -10 -21 -15 -14 -26 -14 -132 0
-64 9 -124 15 -133 13 -9 -2 26 -9 78 -17 141 -19 142 -20 82 -63 -180 -131
-220 -160 -237 -176 -11 -10 -36 -29 -55 -42 -19 -13 -37 -27 -40 -30 -7 -8
-260 0 -260 8 0 4 71 22 157 39 176 36 129 36 -109 1 -141 -20 -148 -22 -148
-44 0 -20 6 -23 68 -28 37 -4 81 -8 99 -11 24 -3 31 0 26 11 -6 16 25 18 89 8
31 -5 37 -11 40 -33 4 -37 47 -40 91 -7 19 14 36 26 39 26 3 0 19 11 35 25 16
14 87 68 158 120 120 87 130 93 133 71 2 -12 -11 -125 -27 -249 -17 -124 -31
-234 -31 -243 0 -49 13 16 50 251 22 143 43 268 46 277 8 27 35 23 29 -4 -4
-20 -16 -123 -54 -458 -5 -47 -13 -96 -17 -110 -5 -17 -3 -22 4 -15 5 6 20 75
31 155 12 80 34 225 50 324 30 192 23 175 100 234 14 11 21 24 17 30 -5 8 -35
-10 -88 -51 -312 -239 -513 -387 -516 -377 -5 15 59 69 261 222 266 202 337
258 337 269 0 11 -27 12 -32 1z"/>
<path d="M3772 6441 l-24 -6 22 -28 c19 -24 27 -27 54 -21 45 9 53 20 31 44
-18 20 -41 23 -83 11z"/>
<path d="M328 6433 c7 -3 16 -2 19 1 4 3 -2 6 -13 5 -11 0 -14 -3 -6 -6z"/>
<path d="M8924 6405 c-8 -20 3 -34 25 -32 12 1 17 7 14 18 -6 23 -32 32 -39
14z"/>
<path d="M248 6373 c6 -2 18 -2 25 0 6 3 1 5 -13 5 -14 0 -19 -2 -12 -5z"/>
<path d="M23 6358 c-38 -18 -28 -38 20 -38 31 0 38 -3 27 -10 -8 -5 -27 -10
-42 -10 -18 0 -28 -5 -28 -15 0 -8 2 -15 4 -15 9 0 171 61 176 66 3 3 -33 3
-80 -1 l-85 -8 19 22 c21 24 20 24 -11 9z"/>
<path d="M448 6343 c7 -3 16 -2 19 1 4 3 -2 6 -13 5 -11 0 -14 -3 -6 -6z"/>
<path d="M7400 6331 c0 -5 7 -12 16 -15 24 -9 28 -7 14 9 -14 17 -30 20 -30 6z"/>
<path d="M7530 6305 c0 -9 9 -15 25 -15 28 0 34 15 9 24 -25 10 -34 7 -34 -9z"/>
<path d="M4121 6274 c0 -11 3 -14 6 -6 3 7 2 16 -1 19 -3 4 -6 -2 -5 -13z"/>
<path d="M7375 6280 c3 -5 8 -10 11 -10 2 0 4 5 4 10 0 6 -5 10 -11 10 -5 0
-7 -4 -4 -10z"/>
<path d="M58 6256 c-51 -18 -58 -24 -58 -47 0 -15 6 -30 13 -32 10 -4 10 -6 0
-6 -7 -1 -13 -12 -13 -26 0 -19 5 -25 23 -25 17 0 19 2 7 10 -20 13 -11 15
155 40 77 11 160 25 185 29 l45 9 -40 1 c-22 0 -80 -4 -130 -9 -50 -5 -119
-12 -155 -15 -61 -6 -64 -5 -40 9 14 8 32 15 41 16 9 0 41 11 70 24 30 13 63
26 73 30 10 4 17 9 14 11 -2 3 -51 -9 -107 -26 -101 -30 -144 -35 -79 -9 36
15 78 41 63 39 -6 -1 -36 -11 -67 -23z"/>
<path d="M7534 6264 c4 -24 20 -28 36 -9 7 9 8 15 2 15 -6 0 -17 3 -25 6 -11
4 -15 0 -13 -12z"/>
<path d="M7650 6250 c0 -5 5 -10 10 -10 6 0 10 5 10 10 0 6 -4 10 -10 10 -5 0
-10 -4 -10 -10z"/>
<path d="M8405 6210 c-3 -6 1 -7 9 -4 18 7 21 14 7 14 -6 0 -13 -4 -16 -10z"/>
<path d="M3230 6203 c0 -11 83 -203 87 -200 5 6 -72 207 -79 207 -5 0 -8 -3
-8 -7z"/>
<path d="M2910 6152 c0 -10 5 -23 12 -30 21 -21 27 -13 12 18 -18 34 -24 38
-24 12z"/>
<path d="M2355 6124 c-31 -5 -284 -35 -335 -40 -99 -10 -125 -15 -147 -29 -13
-9 -23 -20 -23 -26 0 -12 -148 -215 -207 -284 -24 -27 -43 -54 -43 -60 0 -13
24 14 139 155 83 101 188 216 167 182 -9 -14 -5 -15 27 -3 30 12 56 -21 36
-45 -10 -12 -9 -17 5 -27 10 -7 20 -37 26 -75 l10 -62 -70 -93 c-192 -251
-242 -318 -239 -322 3 -2 48 50 103 115 54 66 107 129 118 142 11 13 32 38 45
56 27 35 43 41 43 17 0 -12 -61 -108 -80 -125 -3 -3 -39 -50 -80 -104 -41 -55
-92 -120 -112 -145 -21 -25 -38 -50 -38 -56 0 -5 7 -1 15 10 52 73 292 364
300 364 6 1 23 -99 39 -231 16 -128 31 -238 33 -245 9 -24 23 -13 18 15 -4 23
-21 157 -86 678 -12 97 -9 166 8 171 7 3 15 -8 19 -24 11 -46 19 -50 24 -13 4
30 9 36 34 38 33 4 95 -36 279 -178 65 -51 120 -90 122 -88 2 1 -52 47 -118
100 -185 149 -214 176 -193 184 11 4 34 -5 64 -26 131 -92 231 -167 265 -199
20 -19 37 -30 37 -24 0 5 -65 63 -145 128 -80 65 -145 122 -145 127 0 4 8 8
18 9 29 1 74 8 88 13 14 6 20 27 7 25 -5 -1 -17 -3 -28 -5z"/>
<path d="M8225 6120 c3 -5 8 -10 11 -10 2 0 4 5 4 10 0 6 -5 10 -11 10 -5 0
-7 -4 -4 -10z"/>
<path d="M3000 6105 c-10 -12 -10 -15 3 -15 19 0 31 16 18 24 -5 3 -14 -1 -21
-9z"/>
<path d="M8509 6105 c-1 -5 -1 -13 0 -17 0 -4 -5 -5 -13 -2 -19 7 -31 -15 -16
-29 10 -9 11 -9 6 1 -5 8 0 12 13 12 25 0 32 12 20 30 -5 8 -9 11 -10 5z"/>
<path d="M2862 6087 c-7 -8 -9 -16 -6 -19 9 -10 45 4 41 15 -5 17 -23 19 -35
4z"/>
<path d="M33 6078 c-18 -6 -33 -15 -33 -19 0 -4 17 -1 38 8 60 24 57 31 -5 11z"/>
<path d="M3035 6060 c-3 -5 -4 -10 -1 -10 2 0 12 -3 20 -6 12 -5 15 -2 10 10
-7 18 -20 21 -29 6z"/>
<path d="M1799 6040 c-25 -14 -251 -319 -247 -332 2 -6 12 2 23 18 31 49 127
163 226 270 21 23 35 45 32 48 -8 8 -15 7 -34 -4z"/>
<path d="M2860 6035 c7 -8 16 -15 21 -15 5 0 9 7 9 15 0 9 -9 15 -21 15 -18 0
-19 -2 -9 -15z"/>
<path d="M3320 5977 c0 -14 25 -47 36 -47 4 0 -18 38 -33 59 -2 2 -3 -3 -3
-12z"/>
<path d="M1126 5934 c-4 -15 -4 -29 -1 -32 8 -8 25 19 25 41 0 26 -17 20 -24
-9z"/>
<path d="M1070 5935 c0 -8 5 -15 10 -15 6 0 10 7 10 15 0 8 -4 15 -10 15 -5 0
-10 -7 -10 -15z"/>
<path d="M48 5933 c29 -2 74 -2 100 0 26 2 2 3 -53 3 -55 0 -76 -1 -47 -3z"/>
<path d="M2180 5906 c0 -8 4 -17 9 -20 11 -7 33 18 24 27 -12 12 -33 7 -33 -7z"/>
<path d="M0 5896 c0 -13 11 -16 57 -16 32 0 133 -7 225 -16 190 -18 257 -16
169 4 -87 20 -176 31 -318 38 -120 6 -133 5 -133 -10z"/>
<path d="M1897 5876 c-7 -19 38 -60 57 -53 22 9 20 26 -6 48 -28 22 -44 24
-51 5z"/>
<path d="M0 5816 c0 -35 13 -44 80 -61 24 -5 23 -5 -3 10 -16 9 -27 19 -24 21
3 3 73 -2 156 -11 164 -18 222 -15 101 4 -41 7 -86 16 -100 21 l-25 8 25 2
c14 1 32 2 40 1 13 -2 13 -1 0 8 -8 6 -57 11 -107 11 -55 0 -93 4 -93 10 0 6
-11 10 -25 10 -22 0 -25 -4 -25 -34z"/>
<path d="M7076 5813 c-8 -9 6 -33 19 -33 21 0 25 28 5 33 -10 3 -21 3 -24 0z"/>
<path d="M2082 5798 c3 -7 81 -70 174 -141 162 -123 242 -178 179 -122 -56 49
-343 275 -350 275 -4 0 -5 -5 -3 -12z"/>
<path d="M0 5618 c0 -109 4 -158 13 -167 10 -11 9 -14 -1 -18 -9 -4 -12 -44
-11 -164 l0 -159 59 -58 c62 -61 285 -253 310 -267 8 -4 -16 23 -55 62 -38 38
-79 80 -90 94 l-20 24 23 -19 c46 -39 30 -7 -34 67 -36 42 -61 77 -56 77 6 0
12 -4 14 -8 6 -15 178 -144 178 -133 0 5 -11 18 -25 29 -69 54 -174 155 -169
163 3 5 -20 32 -51 60 -30 29 -55 56 -55 60 0 33 64 -26 243 -223 41 -46 89
-99 107 -118 31 -34 32 -34 15 -5 -16 27 -44 64 -131 175 -26 33 -27 34 -3 15
13 -11 26 -22 29 -25 39 -39 48 -36 15 5 -22 28 -44 53 -50 57 -6 5 -6 8 0 8
5 0 34 -24 64 -52 94 -92 25 -1 -92 119 -34 34 -58 66 -53 70 4 4 10 2 14 -4
4 -7 37 -43 73 -80 70 -74 225 -245 277 -306 18 -21 32 -33 32 -28 0 14 -180
239 -274 341 -22 25 -48 54 -56 64 -15 19 -14 19 13 1 15 -9 31 -23 35 -29 4
-6 52 -54 106 -106 113 -108 95 -72 -28 57 -44 47 -82 89 -84 94 -8 21 45 6
66 -18 13 -16 40 -46 60 -68 20 -22 54 -59 75 -83 58 -65 44 -41 -38 69 -88
118 -98 146 -31 90 18 -15 19 -15 12 12 -6 23 -3 27 17 27 12 0 33 -7 46 -16
13 -10 39 -18 58 -20 l34 -2 -46 29 c-45 28 -53 56 -14 46 11 -3 19 0 19 7 0
7 -31 19 -74 29 -60 13 -86 25 -135 63 -34 26 -60 49 -58 50 2 2 56 -14 121
-36 65 -22 121 -40 125 -40 3 1 -12 11 -34 22 -22 12 -44 21 -49 19 -6 -1 -19
2 -30 8 -12 6 -67 28 -124 50 -113 44 -145 60 -123 61 11 0 11 3 1 15 -7 8
-18 15 -25 15 -8 0 -15 4 -17 8 -1 4 -25 25 -52 45 -103 78 24 20 234 -107
143 -86 134 -81 127 -69 -8 13 -166 125 -223 159 -25 15 -43 28 -41 30 2 2 50
-3 107 -11 57 -8 106 -12 109 -10 6 7 -13 12 -179 46 -85 17 -165 38 -177 46
l-23 15 0 -154z m167 -90 c66 -50 81 -68 60 -68 -14 0 -73 40 -142 98 l-30 25
30 -7 c17 -4 53 -26 82 -48z m-36 -55 c28 -15 46 -30 41 -35 -12 -12 -53 5
-81 36 -31 33 -21 33 40 -1z"/>
<path d="M2100 5700 c0 -5 7 -10 15 -10 8 0 15 -3 15 -8 0 -4 10 -13 23 -21
l22 -14 -20 23 c-25 28 -55 45 -55 30z"/>
<path d="M9617 5689 c-10 -11 -16 -23 -13 -26 8 -8 38 25 34 37 -2 6 -11 1
-21 -11z"/>
<path d="M2197 5629 c12 -12 24 -21 27 -18 2 2 -8 13 -22 23 l-27 19 22 -24z"/>
<path d="M8653 5626 c-86 -32 -168 -76 -182 -98 -16 -26 -3 -23 82 22 41 22
83 40 91 40 15 0 96 48 96 56 0 8 -28 2 -87 -20z"/>
<path d="M9565 5641 c-9 -16 9 -20 23 -5 10 12 10 14 -2 14 -8 0 -17 -4 -21
-9z"/>
<path d="M8850 5588 c0 -19 2 -20 10 -8 13 19 13 30 0 30 -5 0 -10 -10 -10
-22z"/>
<path d="M3312 5578 c7 -19 38 -22 38 -4 0 10 -9 16 -21 16 -12 0 -19 -5 -17
-12z"/>
<path d="M2470 5497 c0 -3 12 -12 26 -22 15 -9 23 -12 20 -6 -7 11 -46 35 -46
28z"/>
<path d="M801 5464 c-15 -19 -21 -41 -21 -77 0 -43 4 -53 31 -76 17 -14 56
-49 87 -76 31 -28 87 -72 125 -99 70 -50 101 -86 73 -86 -8 0 -21 6 -28 13
-32 30 -95 75 -114 81 -27 8 -54 -16 -53 -47 2 -45 15 -69 63 -117 28 -28 50
-60 51 -74 2 -15 2 -26 0 -26 -2 0 -23 18 -47 40 -40 37 -58 48 -58 34 0 -3 6
-11 13 -19 6 -7 31 -33 53 -58 31 -32 41 -50 38 -68 -6 -31 -1 -37 69 -83 58
-38 77 -65 77 -113 0 -18 8 -28 29 -36 20 -7 31 -20 35 -38 5 -28 57 -89 75
-89 19 0 41 43 34 68 -4 17 0 27 16 38 12 9 19 20 16 25 -4 5 1 9 10 9 12 0
15 5 11 16 -3 9 -6 20 -6 24 0 5 -14 25 -30 44 -29 33 -30 35 -10 41 11 4 33
4 49 0 20 -4 30 -2 34 9 4 10 -3 17 -23 21 -15 3 -35 14 -44 24 -22 25 -70 16
-85 -15 -20 -46 -51 -19 -54 48 -2 43 -2 43 36 46 21 2 37 -1 37 -7 0 -6 -4
-11 -10 -11 -22 0 -8 -18 18 -23 34 -7 36 -4 22 22 -9 17 -5 39 20 111 37 109
50 262 28 345 -11 43 -16 50 -38 50 -22 0 -25 -5 -26 -35 -1 -19 -6 -47 -12
-61 -6 -14 -9 -39 -7 -55 14 -113 17 -172 7 -178 -7 -4 -14 4 -18 21 -11 45
-43 115 -70 155 -48 69 -151 93 -201 47 -15 -13 -23 -18 -19 -11 4 7 1 15 -7
18 -8 3 -27 43 -42 90 -29 88 -75 164 -99 164 -8 0 -24 -12 -35 -26z"/>
<path d="M8633 5433 c-149 -132 -188 -165 -226 -184 -21 -11 -35 -24 -32 -29
8 -13 130 -13 173 -1 28 8 36 7 54 -11 20 -20 21 -20 14 -2 -18 44 -17 57 19
144 20 50 35 96 33 101 -2 5 -17 -3 -35 -18z"/>
<path d="M1560 5373 c0 -10 5 -25 10 -33 7 -11 10 -7 10 18 0 17 -4 32 -10 32
-5 0 -10 -8 -10 -17z"/>
<path d="M1663 5366 c-12 -12 -27 -34 -34 -49 -7 -15 -16 -27 -21 -27 -4 0 -8
-7 -8 -16 0 -9 20 10 45 42 54 69 63 95 18 50z"/>
<path d="M1676 5273 c-6 -14 -5 -15 5 -6 7 7 10 15 7 18 -3 3 -9 -2 -12 -12z"/>
<path d="M3060 5234 c0 -14 4 -23 9 -20 5 3 7 15 4 26 -7 28 -13 25 -13 -6z"/>
<path d="M3096 5229 c-8 -43 -8 -59 3 -59 12 0 34 67 26 80 -11 18 -22 10 -29
-21z"/>
<path d="M3017 5243 c-4 -3 -1 -13 6 -21 11 -13 9 -14 -10 -1 -18 11 -25 11
-35 1 -10 -10 -5 -18 22 -42 40 -33 55 -38 45 -12 -4 9 -9 30 -11 46 -5 33 -8
39 -17 29z"/>
<path d="M9840 5160 c0 -5 7 -10 16 -10 8 0 12 5 9 10 -3 6 -10 10 -16 10 -5
0 -9 -4 -9 -10z"/>
<path d="M8260 5103 c-6 -21 -20 -72 -31 -113 -11 -41 -39 -131 -61 -199 -34
-102 -43 -121 -53 -107 -19 25 -22 10 -12 -54 6 -36 14 -59 21 -57 12 4 111
194 125 242 5 17 23 63 40 104 17 40 31 79 31 87 0 30 21 12 44 -39 l24 -54
78 -6 c42 -4 100 -7 128 -7 l51 1 -74 25 c-92 31 -119 46 -151 79 -53 57 -116
117 -132 126 -14 8 -19 3 -28 -28z"/>
<path d="M9765 5130 c-3 -5 -19 -10 -35 -10 -15 0 -30 -7 -34 -15 -4 -12 3
-14 32 -12 44 3 62 13 62 33 0 16 -16 19 -25 4z"/>
<path d="M9791 5083 c-11 -21 -25 -48 -32 -61 -16 -28 -10 -34 41 -36 41 -2
41 -2 34 28 -3 17 -11 36 -16 43 -6 7 -6 19 1 32 14 25 14 31 1 31 -5 0 -19
-17 -29 -37z"/>
<path d="M0 5035 c0 -32 25 -81 107 -213 31 -50 23 -11 -13 59 l-36 74 51 -55
c55 -59 67 -58 23 3 -15 21 -47 67 -72 102 -25 35 -48 65 -52 65 -5 0 -8 -16
-8 -35z"/>
<path d="M9856 5044 c-4 -10 -1 -14 6 -12 15 5 23 28 10 28 -5 0 -13 -7 -16
-16z"/>
<path d="M10178 5007 c-3 -19 -2 -25 4 -19 6 6 8 18 6 28 -3 14 -5 12 -10 -9z"/>
<path d="M2537 4971 c3 -12 9 -21 14 -21 14 0 11 16 -5 29 -12 10 -13 8 -9 -8z"/>
<path d="M7492 4961 c-11 -7 -10 -16 7 -47 l20 -39 1 48 c0 48 -4 54 -28 38z"/>
<path d="M7547 4963 c-4 -3 -7 -20 -6 -37 l1 -31 9 34 c10 33 8 47 -4 34z"/>
<path d="M7584 4945 c-3 -8 -3 -19 1 -25 4 -6 1 -17 -5 -25 -7 -8 -10 -19 -8
-26 4 -12 68 36 68 52 0 17 -32 23 -42 8 -7 -10 -8 -8 -3 9 7 24 -2 31 -11 7z"/>
<path d="M0 4825 c0 -8 7 -15 16 -15 14 0 14 3 4 15 -7 8 -14 15 -16 15 -2 0
-4 -7 -4 -15z"/>
<path d="M0 4710 c0 -19 3 -21 12 -12 9 9 9 15 0 24 -9 9 -12 7 -12 -12z"/>
<path d="M535 4684 c-44 -26 -120 -69 -170 -96 -49 -27 -152 -86 -228 -130
l-137 -80 0 -350 c0 -334 1 -350 18 -336 9 9 103 66 207 128 179 107 295 180
393 248 40 29 41 31 24 44 -32 22 -45 58 -38 104 3 28 2 44 -5 44 -6 0 -7 5
-4 10 3 6 35 10 70 10 38 0 67 5 71 12 14 22 5 133 -14 178 -21 50 -67 190
-76 233 -4 15 -12 27 -19 27 -7 0 -48 -21 -92 -46z m90 -374 c3 -5 -1 -10 -9
-10 -9 0 -16 5 -16 10 0 6 4 10 9 10 6 0 13 -4 16 -10z"/>
<path d="M3096 4582 c-2 -4 -1 -14 3 -21 6 -10 10 -9 14 3 6 16 -8 32 -17 18z"/>
<path d="M9400 4495 c-7 -8 -14 -48 -16 -88 l-3 -72 9 62 c5 34 16 73 25 87
18 28 6 36 -15 11z"/>
<path d="M10225 4300 c-3 -5 -1 -10 4 -10 6 0 11 5 11 10 0 6 -2 10 -4 10 -3
0 -8 -4 -11 -10z"/>
<path d="M5366 4233 c-6 -14 -5 -15 5 -6 7 7 10 15 7 18 -3 3 -9 -2 -12 -12z"/>
<path d="M3976 4193 c-6 -14 -5 -15 5 -6 7 7 10 15 7 18 -3 3 -9 -2 -12 -12z"/>
<path d="M9726 3935 c-9 -26 -7 -32 5 -12 6 10 9 21 6 23 -2 3 -7 -2 -11 -11z"/>
<path d="M9391 3925 c-1 -28 18 -143 31 -187 10 -34 13 -36 39 -31 19 4 40 -2
65 -16 20 -12 38 -20 40 -18 3 2 -5 33 -16 69 -16 52 -28 71 -58 94 -20 16
-43 34 -50 41 -7 7 -17 13 -22 13 -5 0 -13 12 -18 28 -8 21 -11 23 -11 7z"/>
<path d="M9922 3699 c2 -7 10 -15 17 -17 8 -3 12 1 9 9 -2 7 -10 15 -17 17 -8
3 -12 -1 -9 -9z"/>
<path d="M9670 3675 c0 -8 4 -15 10 -15 5 0 7 7 4 15 -4 8 -8 15 -10 15 -2 0
-4 -7 -4 -15z"/>
<path d="M9610 3646 c0 -2 7 -9 15 -16 12 -10 15 -10 15 4 0 9 -7 16 -15 16
-8 0 -15 -2 -15 -4z"/>
<path d="M10140 3604 c0 -4 8 -13 18 -21 15 -13 14 -14 -12 -8 -24 5 -27 3
-22 -10 3 -9 6 -21 6 -26 0 -18 23 -9 46 19 32 37 30 52 -6 52 -16 0 -30 -3
-30 -6z"/>
<path d="M1330 3461 c0 -7 -4 -9 -10 -6 -5 3 -10 1 -10 -6 0 -10 -3 -10 -11
-2 -9 9 -15 8 -26 -3 -8 -8 -31 -17 -52 -20 -30 -5 -43 -15 -71 -55 -18 -27
-31 -51 -28 -54 3 -3 19 0 37 6 24 8 39 8 62 -1 25 -11 33 -11 44 1 20 21 78
140 71 146 -3 4 -6 1 -6 -6z"/>
<path d="M1580 3089 l0 -329 30 0 30 0 0 129 c0 71 3 143 6 160 21 103 174
142 255 65 37 -35 49 -95 49 -240 l0 -115 28 3 27 3 3 100 c5 189 -26 283
-106 323 -75 38 -175 34 -234 -9 l-28 -20 0 126 c0 93 -3 125 -12 126 -7 0
-21 2 -30 4 -17 3 -18 -18 -18 -326z"/>
<path d="M89 3373 c-25 -65 -82 -293 -86 -342 l-5 -54 33 20 c19 11 59 34 89
50 30 17 72 40 93 51 20 12 37 18 37 14 0 -8 -192 -122 -227 -135 -13 -5 -23
-15 -23 -23 0 -8 10 -14 23 -14 12 0 69 -11 127 -25 149 -35 165 -30 32 9
-161 48 -170 65 -13 25 107 -27 116 -19 11 11 -44 13 -80 26 -80 30 0 4 56 41
125 81 119 71 144 96 115 114 -6 4 -41 -11 -78 -33 -152 -89 -195 -113 -198
-109 -4 4 35 162 60 242 21 67 20 92 -4 105 -17 9 -22 7 -31 -17z m37 -10 c-2
-10 -21 -83 -41 -163 -39 -158 -50 -190 -64 -190 -5 0 6 60 25 133 54 206 64
237 75 237 6 0 8 -8 5 -17z"/>
<path d="M4633 3393 c-10 -4 -13 -76 -13 -319 l0 -314 30 0 30 0 0 252 0 252
43 -59 c24 -33 101 -143 171 -245 148 -214 147 -213 169 -204 15 6 17 36 17
321 l0 314 -27 -3 -28 -3 0 -248 c0 -136 -2 -247 -5 -247 -3 0 -84 113 -180
250 -96 137 -179 251 -185 253 -5 2 -16 2 -22 0z"/>
<path d="M6779 3373 c5 -10 59 -90 120 -178 l111 -160 0 -137 0 -138 30 0 30
0 0 143 1 142 119 170 c113 162 117 170 93 173 -13 2 -30 1 -37 -1 -6 -3 -56
-68 -110 -146 l-98 -142 -101 146 c-96 137 -103 145 -134 145 -29 0 -32 -2
-24 -17z"/>
<path d="M9910 3363 c0 -13 0 -26 -1 -30 0 -4 4 -9 10 -11 14 -5 14 28 1 48
-8 12 -10 11 -10 -7z"/>
<path d="M10020 3215 c0 -8 5 -15 10 -15 6 0 10 7 10 15 0 8 -4 15 -10 15 -5
0 -10 -7 -10 -15z"/>
<path d="M2237 3206 c-27 -7 -55 -20 -63 -28 -13 -13 -12 -17 6 -33 16 -15 25
-16 44 -7 46 21 109 23 161 4 39 -13 54 -25 72 -57 13 -22 23 -43 23 -47 0 -5
-66 -8 -147 -8 -170 0 -205 -11 -236 -70 -22 -43 -18 -111 9 -142 36 -40 101
-60 193 -61 103 -1 172 16 211 53 30 28 30 29 30 134 0 114 -12 161 -53 204
-54 58 -161 83 -250 58z m241 -293 c-3 -57 -4 -58 -43 -77 -30 -15 -61 -20
-120 -20 -92 0 -150 17 -166 46 -16 30 -2 87 24 98 12 5 86 9 165 9 l143 1 -3
-57z"/>
<path d="M2821 3209 c-46 -9 -101 -46 -133 -90 -29 -39 -38 -119 -38 -329 0
-197 0 -198 23 -204 12 -3 25 -6 30 -6 4 0 7 52 7 115 0 63 2 115 4 115 2 0
25 -12 51 -27 40 -22 60 -26 119 -26 81 1 109 10 155 48 51 43 71 93 71 175 0
107 -33 171 -110 210 -44 22 -122 31 -179 19z m162 -76 c48 -29 71 -76 71
-148 0 -43 -6 -72 -20 -96 -29 -50 -76 -73 -149 -73 -112 0 -169 57 -169 168
1 61 18 110 48 135 51 43 158 49 219 14z"/>
<path d="M3371 3209 c-61 -12 -116 -51 -143 -102 -22 -40 -23 -55 -26 -276 -4
-245 -3 -250 41 -251 15 0 17 12 17 115 0 63 2 115 5 115 3 0 18 -9 33 -20 34
-25 114 -40 172 -33 89 11 159 66 180 141 23 86 4 200 -43 250 -50 54 -148 79
-236 61z m139 -67 c61 -24 90 -74 90 -157 0 -111 -59 -170 -170 -169 -123 2
-187 85 -165 214 18 104 131 155 245 112z"/>
<path d="M5341 3210 c-61 -13 -116 -54 -140 -104 -59 -125 -20 -276 86 -327
61 -29 160 -30 224 -2 57 25 64 35 40 57 -18 16 -21 16 -53 0 -44 -23 -142
-23 -186 0 -35 18 -72 69 -72 99 0 15 15 17 173 17 217 0 217 0 217 55 0 60
-17 105 -58 147 -51 54 -140 76 -231 58z m159 -75 c35 -18 70 -69 70 -102 0
-23 -1 -23 -165 -23 -160 0 -165 1 -165 20 0 25 23 72 44 89 50 41 152 49 216
16z"/>
<path d="M7535 3211 c-110 -29 -165 -104 -165 -226 0 -147 79 -227 224 -228
53 0 81 5 113 21 52 27 57 35 34 56 -18 16 -21 16 -53 0 -43 -23 -142 -23
-184 -1 -34 18 -60 51 -70 91 l-6 26 184 0 c220 0 224 1 213 78 -9 68 -54 135
-108 161 -48 23 -137 34 -182 22z m120 -62 c24 -6 55 -23 69 -38 26 -28 49
-84 38 -95 -3 -3 -79 -6 -169 -6 -180 0 -176 -2 -149 65 28 67 116 98 211 74z"/>
<path d="M8037 3206 c-27 -7 -55 -20 -63 -28 -13 -13 -12 -17 5 -32 18 -16 22
-16 68 -1 55 19 120 13 166 -13 29 -17 71 -84 60 -96 -4 -3 -70 -6 -147 -6
-114 0 -148 -3 -176 -18 -46 -23 -72 -74 -67 -130 9 -86 81 -126 227 -125 104
0 187 26 215 67 21 29 21 213 0 264 -43 101 -166 152 -288 118z m241 -293 c-3
-56 -4 -59 -42 -77 -84 -41 -274 -18 -291 35 -10 32 5 80 28 89 12 5 86 9 165
9 l143 1 -3 -57z"/>
<path d="M8611 3208 c-55 -9 -109 -51 -136 -104 -17 -33 -21 -63 -23 -191 l-4
-153 31 0 31 0 0 138 c1 190 22 234 127 256 27 6 31 11 27 34 -3 15 -6 27 -7
28 -1 0 -22 -3 -46 -8z"/>
<path d="M9050 3211 c-73 -22 -132 -75 -172 -151 -31 -60 -32 -173 -1 -241 64
-143 224 -200 382 -136 l63 26 40 -26 c35 -23 41 -25 54 -11 13 13 10 16 -25
26 -41 13 -58 36 -41 57 18 22 48 24 66 4 9 -10 21 -16 25 -13 12 7 11 -3 -2
-29 -9 -19 -7 -18 10 3 27 33 26 37 -9 66 -29 25 -29 26 -24 102 5 64 2 87
-15 134 -23 60 -80 142 -106 152 -9 3 -2 -12 16 -34 18 -22 35 -40 38 -40 7 0
21 -32 47 -108 16 -46 16 -58 5 -100 -7 -25 -20 -55 -29 -65 -30 -33 -95 -60
-167 -68 -87 -9 -152 2 -207 37 -24 15 -44 27 -46 26 -1 -1 -13 5 -26 13 -31
21 -45 61 -34 100 14 52 62 129 89 144 31 17 73 9 97 -19 9 -11 27 -20 39 -20
26 0 44 27 58 90 7 27 16 44 24 42 7 -1 10 2 6 8 -8 13 21 13 48 -1 21 -11 21
-10 6 6 -9 9 -28 18 -43 18 -14 1 -26 5 -26 10 0 9 -107 8 -140 -2z"/>
<path d="M3720 3199 c0 -6 41 -103 91 -216 l91 -204 -41 -93 c-23 -52 -41 -98
-41 -105 0 -15 47 -14 57 2 12 19 273 611 273 619 0 5 -13 8 -29 8 -31 0 -31
0 -141 -253 -24 -54 -47 -94 -51 -90 -4 4 -40 83 -80 176 -69 159 -74 167
-101 167 -15 0 -28 -5 -28 -11z"/>
<path d="M5693 3198 c62 -148 192 -426 204 -435 24 -19 37 -3 79 98 21 49 41
89 44 89 3 0 24 -42 46 -92 31 -73 45 -94 62 -96 25 -4 24 -6 150 281 52 118
67 160 57 164 -38 14 -51 -4 -124 -170 -41 -92 -77 -167 -80 -167 -3 0 -31 57
-61 126 -30 69 -57 127 -60 128 -3 1 -17 0 -32 -3 l-27 -6 18 -40 18 -40 -35
-82 c-19 -46 -38 -83 -41 -83 -3 0 -40 75 -81 168 -74 165 -76 167 -109 170
-25 3 -32 0 -28 -10z"/>
<path d="M1007 3178 c4 -7 8 -15 9 -18 0 -3 4 -12 7 -20 3 -8 8 -30 9 -49 4
-51 28 -60 82 -33 37 17 51 20 73 11 38 -14 69 -54 94 -121 23 -62 20 -128 -6
-128 -7 0 -15 -3 -17 -7 -3 -8 -37 -28 -109 -65 -73 -38 -235 -21 -310 33 -36
25 -59 77 -60 136 l-1 48 -8 -38 c-4 -21 -3 -57 1 -80 4 -23 8 -45 9 -49 0 -4
-16 -22 -35 -40 l-34 -33 20 -25 c20 -24 20 -24 14 -2 -5 16 -2 22 9 22 9 0
16 4 16 9 0 18 33 21 57 6 19 -13 21 -19 13 -35 -6 -11 -16 -20 -23 -20 -7 0
-21 -7 -31 -15 -15 -11 -17 -18 -9 -26 8 -8 21 -4 47 16 l36 27 50 -21 c162
-70 338 -12 400 131 63 142 5 303 -135 377 -47 25 -183 31 -168 9z"/>
<path d="M9860 3131 c0 -6 4 -13 10 -16 6 -3 7 1 4 9 -7 18 -14 21 -14 7z"/>
<path d="M836 3089 c-11 -11 -17 -21 -14 -24 2 -3 13 4 23 15 24 26 16 33 -9
9z"/>
<path d="M388 2893 c7 -3 16 -2 19 1 4 3 -2 6 -13 5 -11 0 -14 -3 -6 -6z"/>
<path d="M328 2873 c7 -3 16 -2 19 1 4 3 -2 6 -13 5 -11 0 -14 -3 -6 -6z"/>
<path d="M7 2793 c7 -2 19 -2 26 0 6 3 1 5 -13 5 -14 0 -19 -2 -13 -5z"/>
<path d="M65 2780 c11 -5 29 -9 40 -9 l20 0 -20 9 c-11 5 -29 9 -40 9 l-20 0
20 -9z"/>
<path d="M15 2761 c11 -4 36 -11 55 -15 24 -4 29 -3 15 3 -11 4 -36 11 -55 15
-24 4 -29 3 -15 -3z"/>
<path d="M138 2763 c7 -3 16 -2 19 1 4 3 -2 6 -13 5 -11 0 -14 -3 -6 -6z"/>
<path d="M9811 2737 c-13 -16 -5 -28 15 -20 7 2 43 -11 80 -31 78 -41 98 -42
27 -1 -26 15 -62 36 -79 46 -26 16 -33 17 -43 6z"/>
<path d="M9654 2665 c-19 -14 -18 -14 4 -15 13 0 22 6 22 15 0 19 -1 19 -26 0z"/>
<path d="M9990 2645 c0 -7 61 -37 66 -33 2 3 -12 12 -31 21 -19 9 -35 15 -35
12z"/>
<path d="M10140 2604 c0 -10 5 -26 10 -34 8 -11 9 -7 4 15 -8 37 -14 45 -14
19z"/>
<path d="M9680 2600 c-13 -8 -12 -10 3 -10 9 0 17 5 17 10 0 12 -1 12 -20 0z"/>
<path d="M10030 2580 c8 -5 20 -10 25 -10 6 0 3 5 -5 10 -8 5 -19 10 -25 10
-5 0 -3 -5 5 -10z"/>
<path d="M9690 2570 c-9 -6 -10 -10 -3 -10 6 0 15 5 18 10 8 12 4 12 -15 0z"/>
<path d="M10066 2554 c-3 -8 1 -14 9 -14 7 0 17 -4 20 -10 3 -5 -21 -17 -55
-27 -37 -10 -56 -19 -48 -24 7 -4 17 -4 23 0 5 5 36 14 68 21 45 10 63 11 83
1 49 -22 32 -6 -31 30 -49 28 -65 33 -69 23z"/>
<path d="M9000 2550 c-8 -5 -12 -11 -9 -14 2 -3 11 -1 19 4 8 5 12 11 9 14 -2
3 -11 1 -19 -4z"/>
<path d="M9932 2473 c-9 -3 -4 -10 14 -19 31 -16 37 -14 28 10 -6 16 -18 19
-42 9z"/>
<path d="M9225 2420 c3 -5 8 -10 11 -10 2 0 4 5 4 10 0 6 -5 10 -11 10 -5 0
-7 -4 -4 -10z"/>
<path d="M10215 2350 c-19 -8 -19 -9 3 -9 12 -1 22 4 22 9 0 6 -1 10 -2 9 -2
0 -12 -4 -23 -9z"/>
<path d="M2406 2332 c-10 -9 -7 -552 3 -552 8 0 118 62 316 178 33 19 84 48
113 64 28 16 52 31 52 33 0 2 -53 35 -117 73 -239 141 -362 210 -367 204z"/>
<path d="M9035 2330 c3 -5 12 -10 20 -10 8 0 17 5 20 10 4 6 -5 10 -20 10 -15
0 -24 -4 -20 -10z"/>
<path d="M9622 2303 c-6 -2 -10 -9 -7 -13 7 -11 35 -2 35 11 0 10 -8 10 -28 2z"/>
<path d="M9048 2263 c6 -2 18 -2 25 0 6 3 1 5 -13 5 -14 0 -19 -2 -12 -5z"/>
<path d="M9048 2233 c7 -3 16 -2 19 1 4 3 -2 6 -13 5 -11 0 -14 -3 -6 -6z"/>
<path d="M20 2210 c-20 -6 -21 -8 -5 -8 11 0 29 3 40 8 25 11 -1 11 -35 0z"/>
<path d="M60 2176 c0 -3 61 -41 135 -86 74 -45 135 -87 135 -92 0 -5 -6 -6
-12 -2 -10 5 -10 4 -1 -6 12 -14 33 -6 33 13 0 7 -24 25 -53 41 -28 16 -92 53
-141 83 -89 53 -96 57 -96 49z"/>
<path d="M0 2143 c1 -28 49 -180 50 -155 0 7 -7 42 -16 78 -16 62 -13 94 6 64
5 -8 12 -11 17 -7 7 8 -34 46 -49 47 -5 0 -8 -12 -8 -27z"/>
<path d="M70 2131 c0 -5 7 -12 16 -15 14 -5 15 -4 4 9 -14 17 -20 19 -20 6z"/>
<path d="M9380 2105 c0 -18 8 -18 40 0 l25 14 -32 1 c-23 0 -33 -5 -33 -15z"/>
<path d="M9685 2110 c-3 -5 -2 -10 4 -10 5 0 13 5 16 10 3 6 2 10 -4 10 -5 0
-13 -4 -16 -10z"/>
<path d="M10067 2109 c7 -7 15 -10 18 -7 3 3 -2 9 -12 12 -14 6 -15 5 -6 -5z"/>
<path d="M117 2099 c7 -7 15 -10 18 -7 3 3 -2 9 -12 12 -14 6 -15 5 -6 -5z"/>
<path d="M9430 2065 c-9 -11 -10 -19 -2 -27 14 -14 32 -1 32 23 0 23 -13 25
-30 4z"/>
<path d="M10010 2061 c0 -11 31 -24 39 -16 3 3 -1 10 -9 15 -19 12 -30 12 -30
1z"/>
<path d="M207 2049 c7 -7 15 -10 18 -7 3 3 -2 9 -12 12 -14 6 -15 5 -6 -5z"/>
<path d="M2910 1738 c0 -150 -2 -273 -3 -275 -2 -1 -108 58 -236 133 -129 74
-236 133 -238 131 -2 -2 -2 -128 -1 -280 l3 -275 110 62 c234 134 356 206 397
233 24 16 129 78 233 138 105 59 196 113 203 120 10 9 1 19 -47 48 -32 20 -61
37 -64 37 -2 0 -56 31 -118 68 -115 69 -227 132 -234 132 -2 0 -4 -122 -5
-272z"/>
<path d="M8935 1990 c-3 -5 1 -10 10 -10 9 0 13 5 10 10 -3 6 -8 10 -10 10 -2
0 -7 -4 -10 -10z"/>
<path d="M4358 1593 c-2 -208 -3 -443 -3 -523 l0 -145 58 -3 57 -3 0 341 c0
247 3 341 11 338 6 -2 40 -85 76 -183 91 -252 162 -446 173 -473 9 -20 16 -23
57 -20 l48 3 82 230 c139 387 165 455 174 455 5 0 10 -66 11 -147 l3 -148 23
43 c12 23 27 42 33 42 6 0 18 -18 26 -40 9 -23 19 -37 22 -33 3 4 5 151 3 326
l-3 317 -53 0 c-42 0 -56 -4 -62 -17 -4 -10 -73 -193 -154 -408 -81 -214 -151
-390 -155 -390 -8 0 -16 21 -140 355 -46 124 -102 272 -124 330 -23 58 -41
111 -41 118 0 8 -19 12 -60 12 l-60 0 -2 -377z"/>
<path d="M6102 1959 c-23 -4 -74 -25 -112 -45 -243 -128 -343 -461 -214 -717
54 -107 126 -179 231 -233 65 -33 82 -37 171 -42 116 -5 186 11 273 64 47 28
139 113 139 128 0 2 -20 20 -45 41 l-46 37 -50 -47 c-109 -102 -251 -129 -376
-71 -200 92 -287 348 -190 560 30 64 104 143 172 182 46 27 58 29 150 29 115
0 157 -16 243 -91 28 -24 53 -44 56 -44 10 0 76 62 76 71 0 17 -98 105 -147
132 -95 51 -218 69 -331 46z"/>
<path d="M7163 1935 c-91 -44 -153 -141 -153 -240 0 -57 42 -136 98 -186 26
-23 85 -60 132 -81 47 -21 111 -51 144 -66 81 -37 106 -69 106 -138 0 -75 -18
-112 -84 -170 l-57 -49 32 -43 c17 -23 34 -42 39 -42 12 0 82 60 117 100 68
78 88 173 59 274 -29 98 -91 147 -289 228 -163 66 -222 166 -155 263 32 48 71
67 136 68 64 0 103 -16 149 -63 l30 -31 47 22 c25 13 46 27 46 31 0 21 -78 91
-132 118 -82 41 -186 43 -265 5z"/>
<path d="M9936 1922 c-7 -12 34 -72 50 -72 21 0 16 22 -11 53 -26 29 -31 32
-39 19z"/>
<path d="M9895 1873 c4 -10 8 -23 8 -30 0 -10 46 -33 64 -33 2 0 -8 18 -24 40
-29 40 -62 56 -48 23z"/>
<path d="M9781 1806 c-9 -11 -6 -21 15 -45 28 -34 32 -35 54 -21 12 8 12 12 0
37 -24 45 -48 55 -69 29z"/>
<path d="M10068 1783 c7 -3 16 -2 19 1 4 3 -2 6 -13 5 -11 0 -14 -3 -6 -6z"/>
<path d="M10110 1770 c19 -13 30 -13 30 0 0 6 -10 10 -22 10 -19 0 -20 -2 -8
-10z"/>
<path d="M10204 1764 c-18 -14 -18 -14 6 -3 31 14 36 19 24 19 -6 0 -19 -7
-30 -16z"/>
<path d="M9103 1732 c-28 -22 -17 -42 20 -35 28 6 31 11 21 37 -8 20 -14 20
-41 -2z"/>
<path d="M10087 1701 c-87 -54 -117 -79 -44 -37 27 15 51 25 54 22 4 -3 12 -1
20 6 22 18 23 6 7 -56 -23 -87 -10 -78 16 11 12 43 27 84 33 91 17 22 -6 12
-86 -37z"/>
<path d="M9950 1659 c-160 -92 -155 -88 -136 -107 13 -14 18 -14 28 -3 10 11
10 12 1 7 -7 -4 -13 -3 -13 3 0 11 85 70 173 120 48 28 66 41 54 41 -1 0 -49
-27 -107 -61z"/>
<path d="M9387 1575 c-9 -22 8 -26 21 -4 10 15 10 19 -2 19 -8 0 -16 -7 -19
-15z"/>
<path d="M6155 1510 c-19 -38 -35 -74 -35 -80 0 -5 17 -37 37 -70 l37 -59 19
27 c10 15 27 44 37 64 l20 37 -35 75 c-19 42 -37 76 -40 76 -3 0 -21 -31 -40
-70z"/>
<path d="M9450 1538 c-12 -22 -12 -22 6 -6 10 10 15 20 12 24 -4 3 -12 -5 -18
-18z"/>
<path d="M9853 1499 c-18 -5 -33 -12 -33 -14 0 -9 64 -95 71 -95 4 0 8 27 8
60 0 33 -3 60 -7 59 -4 0 -22 -5 -39 -10z"/>
<path d="M9930 1463 c0 -54 14 -48 23 10 4 28 2 37 -9 37 -10 0 -14 -13 -14
-47z"/>
<path d="M9970 1463 c-7 -21 -19 -43 -26 -49 -12 -10 -12 -13 2 -18 12 -5 26
4 45 26 32 37 37 63 13 72 -22 9 -21 10 -34 -31z"/>
<path d="M2927 1403 c-8 -8 -9 -543 -2 -543 3 0 98 54 211 120 113 66 207 120
210 120 12 0 54 39 47 43 -4 3 -24 14 -43 25 -86 48 -358 206 -386 223 -17 10
-34 16 -37 12z"/>
<path d="M8590 1311 c0 -17 5 -31 10 -31 6 0 10 9 10 20 0 11 0 23 1 27 0 4
-4 9 -10 11 -6 2 -11 -10 -11 -27z"/>
<path d="M5117 1255 c-20 -41 -37 -79 -37 -84 0 -14 70 -131 78 -131 4 0 24
29 44 65 l37 65 -36 80 c-20 44 -39 80 -43 80 -3 0 -23 -34 -43 -75z"/>
<path d="M9980 1201 c0 -27 19 -36 37 -18 18 18 9 37 -18 37 -12 0 -19 -7 -19
-19z"/>
<path d="M2427 1122 c-10 -15 -7 -552 3 -552 14 0 480 271 480 279 0 3 -89 57
-198 118 -108 62 -216 124 -239 138 -23 14 -44 22 -46 17z"/>
<path d="M5100 988 l0 -68 60 0 60 0 0 59 c0 33 -4 62 -8 65 -4 3 -16 -11 -27
-30 -17 -31 -35 -45 -35 -26 0 4 -11 21 -25 37 l-24 30 -1 -67z"/>
<path d="M9200 930 c0 -21 35 -50 61 -50 32 0 36 8 17 32 -13 15 -78 31 -78
18z"/>
<path d="M3750 776 c0 -9 7 -16 16 -16 17 0 14 22 -4 28 -7 2 -12 -3 -12 -12z"/>
<path d="M4861 693 c0 -54 4 -120 8 -148 6 -42 8 -27 15 87 4 76 5 142 1 148
-17 28 -25 1 -24 -87z"/>
<path d="M6180 735 c0 -54 -1 -56 -22 -48 -13 4 -43 8 -67 8 -35 -1 -48 -6
-67 -28 -54 -64 -11 -167 70 -167 46 0 81 17 94 45 15 33 18 238 3 243 -7 2
-11 -15 -11 -53z m-20 -85 c28 -28 27 -87 -2 -117 -49 -53 -138 -15 -138 59 0
51 27 78 80 78 27 0 47 -7 60 -20z"/>
<path d="M6267 784 c-8 -8 1 -24 14 -24 5 0 9 7 9 15 0 15 -12 20 -23 9z"/>
<path d="M6361 663 c0 -71 4 -137 9 -148 6 -15 9 -7 9 30 1 28 4 94 8 148 5
86 4 97 -10 97 -15 0 -17 -15 -16 -127z"/>
<path d="M6460 651 c0 -83 4 -142 10 -146 6 -4 10 45 10 139 0 91 -4 146 -10
146 -6 0 -10 -53 -10 -139z"/>
<path d="M7495 780 c-3 -5 -4 -31 -1 -56 6 -44 5 -46 -17 -40 -86 25 -131 13
-154 -41 -20 -48 -3 -108 37 -128 43 -22 94 -19 126 9 27 23 28 27 32 145 3
81 1 121 -6 121 -6 0 -14 -4 -17 -10z m-15 -137 c43 -55 7 -133 -60 -133 -55
0 -85 28 -85 78 0 56 26 82 81 82 35 0 47 -5 64 -27z"/>
<path d="M7821 693 c0 -54 4 -120 8 -148 6 -41 8 -26 14 88 5 75 5 142 2 147
-17 28 -25 1 -24 -87z"/>
<path d="M3397 773 c-2 -5 -3 -17 -2 -28 1 -11 2 -71 3 -134 1 -63 5 -111 10
-107 4 4 9 53 12 109 l5 102 53 -82 c29 -46 56 -83 60 -83 4 0 30 36 57 79 27
44 53 77 57 75 5 -3 8 -51 9 -107 1 -142 17 -86 18 66 1 68 -3 117 -9 117 -5
0 -35 -43 -66 -95 -31 -53 -60 -98 -64 -100 -5 -3 -33 40 -65 95 -52 93 -68
112 -78 93z"/>
<path d="M5412 764 c-43 -22 -62 -60 -62 -124 0 -65 20 -103 66 -125 42 -20
137 -17 157 5 10 10 8 11 -8 5 -75 -31 -163 -9 -186 46 -16 41 -7 126 18 151
27 26 84 38 134 27 45 -10 60 -6 41 13 -20 20 -123 21 -160 2z"/>
<path d="M8085 755 c-52 -51 -26 -104 60 -126 80 -20 95 -30 95 -59 0 -38 -29
-60 -79 -60 -32 0 -48 6 -67 25 -20 20 -25 22 -22 8 8 -44 116 -58 162 -22 17
13 26 30 26 49 0 31 -39 70 -71 70 -30 0 -97 30 -103 47 -10 24 19 60 53 66
35 7 87 -8 95 -29 7 -18 26 -18 26 0 0 29 -50 56 -102 56 -39 0 -54 -5 -73
-25z"/>
<path d="M3885 688 c-37 -22 -44 -41 -43 -118 l1 -75 9 70 c5 39 17 78 25 88
16 17 68 23 90 9 19 -12 33 -59 35 -115 l1 -52 6 50 c7 58 -2 112 -21 132 -20
19 -79 26 -103 11z"/>
<path d="M4114 691 c-33 -14 -54 -51 -54 -94 0 -52 43 -97 93 -97 43 0 67 8
67 23 0 7 -4 7 -12 -1 -30 -30 -128 4 -128 44 0 16 3 16 75 19 28 2 62 3 78 4
22 1 27 6 27 25 0 39 -39 77 -85 81 -22 3 -50 1 -61 -4z m112 -47 c25 -37 10
-45 -68 -40 -38 3 -72 7 -74 9 -11 10 12 40 38 51 40 17 86 8 104 -20z"/>
<path d="M4360 687 c-13 -7 -30 -24 -37 -37 -15 -30 -18 -163 -3 -140 5 8 10
38 10 65 0 56 21 95 51 95 10 0 19 7 19 15 0 18 -7 19 -40 2z"/>
<path d="M4487 689 c-25 -15 -11 -29 21 -20 37 10 67 3 87 -19 27 -29 9 -40
-64 -40 -43 0 -72 -5 -79 -12 -43 -55 -8 -98 79 -98 77 0 98 18 100 85 1 28
-4 60 -12 73 -23 36 -94 53 -132 31z m133 -121 c0 -36 -28 -58 -74 -58 -58 0
-84 9 -91 32 -12 35 12 48 91 48 69 0 74 -1 74 -22z"/>
<path d="M4998 694 c-10 -3 -18 -12 -18 -20 0 -11 7 -13 28 -8 29 7 28 7 55 5
22 -1 60 -39 52 -51 -4 -6 -37 -10 -74 -10 -73 0 -101 -16 -101 -58 0 -33 37
-52 102 -52 76 0 98 20 98 89 0 65 -28 101 -85 106 -22 2 -48 1 -57 -1z m122
-134 c0 -36 -23 -50 -80 -50 -23 0 -50 5 -61 10 -18 10 -26 50 -12 63 3 4 39
7 80 7 l73 0 0 -30z"/>
<path d="M5685 691 c-47 -20 -69 -70 -54 -125 26 -94 177 -87 195 10 16 84
-62 147 -141 115z m99 -34 c9 -7 20 -31 23 -54 5 -35 2 -45 -20 -67 -46 -46
-135 -25 -138 32 -5 73 17 102 76 102 22 0 49 -6 59 -13z"/>
<path d="M5925 688 c-38 -20 -45 -39 -44 -117 l2 -76 7 67 c7 71 20 95 58 109
13 5 20 13 17 19 -8 13 -15 12 -40 -2z"/>
<path d="M6579 685 c-50 -27 -63 -112 -22 -157 21 -23 41 -24 21 0 -22 25 -28
50 -14 55 6 3 43 4 80 3 82 -2 97 7 85 50 -15 54 -94 79 -150 49z m114 -33
c20 -18 22 -38 5 -44 -11 -4 -87 -3 -125 1 -16 1 -17 37 -1 47 18 11 72 21 88
16 8 -3 23 -12 33 -20z"/>
<path d="M6830 683 c-38 -25 -40 -32 -39 -113 l2 -75 9 70 c11 75 19 92 55
106 25 9 31 29 10 29 -7 0 -24 -8 -37 -17z"/>
<path d="M6968 693 c-10 -2 -18 -10 -18 -16 0 -8 16 -11 48 -9 51 4 82 -13 82
-44 0 -11 -15 -14 -66 -14 -36 0 -74 -5 -85 -10 -27 -15 -25 -64 3 -84 41 -29
147 -17 170 18 11 16 10 80 -2 110 -16 42 -75 64 -132 49z m122 -133 c0 -36
-23 -50 -82 -50 -45 0 -88 21 -88 44 0 26 25 36 97 36 l73 0 0 -30z"/>
<path d="M7602 675 c-16 -14 -32 -37 -35 -51 -7 -38 10 -91 36 -109 24 -17 94
-20 117 -5 10 7 0 8 -32 4 -58 -8 -101 14 -96 49 3 21 8 22 83 22 89 0 100 7
84 54 -21 61 -105 80 -157 36z m123 -21 c33 -33 15 -48 -58 -50 -76 -3 -94 11
-62 46 23 25 96 27 120 4z"/>
<path d="M8549 671 c-27 -27 -29 -35 -29 -100 0 -41 4 -71 10 -71 6 0 10 27
10 61 0 69 11 96 46 109 13 5 24 14 24 20 0 20 -32 10 -61 -19z"/>
<path d="M3750 595 c0 -57 4 -95 10 -95 6 0 10 38 10 95 0 57 -4 95 -10 95 -6
0 -10 -38 -10 -95z"/>
<path d="M6270 595 c0 -57 4 -95 10 -95 6 0 10 38 10 95 0 57 -4 95 -10 95 -6
0 -10 -38 -10 -95z"/>
<path d="M8302 622 c2 -51 9 -76 22 -91 25 -28 30 -21 11 15 -10 18 -15 50
-13 83 1 38 -2 56 -11 59 -11 4 -13 -11 -9 -66z"/>
<path d="M8450 620 c0 -58 -3 -72 -22 -90 -12 -11 -33 -21 -47 -21 -19 -1 -21
-3 -8 -6 36 -9 68 7 83 42 16 39 19 145 4 145 -6 0 -10 -30 -10 -70z"/>
<path d="M9940 520 c0 -18 4 -29 10 -25 6 3 10 15 10 25 0 10 -4 22 -10 25 -6
4 -10 -7 -10 -25z"/>
<path d="M6635 510 l-40 -7 42 -2 c23 0 45 4 48 9 3 6 3 9 -2 9 -4 -1 -26 -5
-48 -9z"/>
</g>
</svg>
